<svg xmlns="http://www.w3.org/2000/svg" width="23" height="23" viewBox="0 0 23 23" fill="none">
<path fill-rule="evenodd" clip-rule="evenodd" d="M9.77746 0.417422C10.3013 0.143956 10.8953 0 11.5 0C12.1047 0 12.6987 0.143968 13.2226 0.417456L13.225 0.41871L21.275 4.58576C21.7005 4.80833 22.0675 5.11004 22.3526 5.46973C22.4219 5.53258 22.4834 5.60457 22.5349 5.68512C22.5792 5.75449 22.6137 5.82656 22.6387 5.90001C22.8754 6.33082 22.9995 6.80619 23 7.28915V15.6254C22.9994 16.1735 22.8397 16.7117 22.5369 17.1862C22.2341 17.6607 21.7989 18.0548 21.275 18.3288L21.2706 18.3311L13.225 22.4958L13.2229 22.4969C12.8581 22.6874 12.4593 22.8151 12.0465 22.8751C11.8839 22.9548 11.6978 23 11.5 23C11.3022 23 11.1161 22.9548 10.9535 22.8751C10.5408 22.8151 10.1419 22.6874 9.77713 22.497L9.775 22.4958L1.72944 18.3311L1.725 18.3288C1.20105 18.0548 0.765866 17.6607 0.463096 17.1862C0.160326 16.7117 0.000620541 16.1735 0 15.6254V7.28915C0.000546556 6.80643 0.124505 6.3313 0.36093 5.90066C0.386004 5.82699 0.420558 5.7547 0.464984 5.68512C0.516546 5.60438 0.578239 5.53225 0.647767 5.4693C0.932769 5.1098 1.29963 4.80824 1.725 4.58577L1.72943 4.58345L9.77746 0.417422ZM12.65 20.3938L20.125 16.5244L20.1268 16.5234C20.3007 16.4321 20.4451 16.3012 20.5456 16.1435C20.6466 15.9854 20.6998 15.806 20.7 15.6233V7.85015L12.65 12.0685V20.3938ZM10.35 12.0686V20.3938L2.875 16.5244L2.87319 16.5234C2.69935 16.4321 2.55494 16.3012 2.45436 16.1435C2.35352 15.9855 2.30029 15.8062 2.3 15.6237V7.85022L10.35 12.0686ZM12.075 2.22311L19.5051 6.06928L11.4999 10.2642L3.49482 6.06931L10.9206 2.22542L10.925 2.2231C11.0998 2.13167 11.2981 2.08353 11.5 2.08353C11.7019 2.08353 11.9002 2.13167 12.075 2.22311Z" fill="#DBDBDB"/>
</svg>