<svg width="20" height="21" viewBox="0 0 20 21" fill="none" xmlns="http://www.w3.org/2000/svg">
<path d="M19.3346 5.08138C18.9354 4.66313 18.384 4.41598 17.7567 4.41598H14.6008V4.37796C14.6008 3.90267 14.4106 3.4464 14.0875 3.14221C13.7643 2.81902 13.327 2.62891 12.8517 2.62891H7.14829C6.65399 2.62891 6.21673 2.81902 5.89354 3.14221C5.57034 3.46541 5.38023 3.90267 5.38023 4.37796V4.41598H2.24335C1.61597 4.41598 1.06464 4.66313 0.665399 5.08138C0.26616 5.48062 0 6.05096 0 6.65932V16.127C0 16.7544 0.247148 17.3057 0.665399 17.705C1.06464 18.1042 1.63498 18.3703 2.24335 18.3703H17.7567C18.384 18.3703 18.9354 18.1232 19.3346 17.705C19.7338 17.3057 20 16.7354 20 16.127V6.65932C20 6.03195 19.7528 5.48062 19.3346 5.08138ZM19.0114 16.127H18.9924C18.9924 16.4692 18.8593 16.7734 18.6312 17.0015C18.403 17.2297 18.0989 17.3627 17.7567 17.3627H2.24335C1.90114 17.3627 1.59696 17.2297 1.36882 17.0015C1.14068 16.7734 1.0076 16.4692 1.0076 16.127V6.65932C1.0076 6.31712 1.14068 6.01294 1.36882 5.7848C1.59696 5.55666 1.90114 5.42358 2.24335 5.42358H5.91255C6.19772 5.42358 6.42585 5.19545 6.42585 4.91027V4.35894C6.42585 4.14982 6.5019 3.9597 6.63498 3.82662C6.76806 3.69354 6.95817 3.6175 7.1673 3.6175H12.8517C13.0608 3.6175 13.2509 3.69354 13.384 3.82662C13.5171 3.9597 13.5932 4.14982 13.5932 4.35894V4.91027C13.5932 5.19545 13.8213 5.42358 14.1065 5.42358H17.7757C18.1179 5.42358 18.4221 5.55666 18.6502 5.7848C18.8783 6.01294 19.0114 6.31712 19.0114 6.65932V16.127Z" fill="white"/>
<path d="M9.99712 6.71875C8.70434 6.71875 7.52564 7.25107 6.68913 8.08757C5.83362 8.94308 5.32031 10.1028 5.32031 11.3956C5.32031 12.6883 5.85263 13.867 6.68913 14.7035C7.54465 15.5591 8.70434 16.0724 9.99712 16.0724C11.2899 16.0724 12.4686 15.54 13.3051 14.7035C14.1606 13.848 14.6739 12.6883 14.6739 11.3956C14.6739 10.1028 14.1416 8.92407 13.3051 8.08757C12.4686 7.25107 11.2899 6.71875 9.99712 6.71875ZM12.5827 14.0001C11.9173 14.6465 11.0047 15.0648 9.99712 15.0648C8.98951 15.0648 8.07697 14.6465 7.41157 14.0001C6.74617 13.3347 6.34693 12.4222 6.34693 11.4146C6.34693 10.407 6.76518 9.49442 7.41157 8.82902C8.07697 8.16362 8.98951 7.76438 9.99712 7.76438C11.0047 7.76438 11.9173 8.18263 12.5827 8.82902C13.2481 9.49442 13.6473 10.407 13.6473 11.4146C13.6663 12.4222 13.2481 13.3347 12.5827 14.0001Z" fill="white"/>
<path d="M16.7675 8.55843C17.282 8.55843 17.6991 8.14136 17.6991 7.62687C17.6991 7.11239 17.282 6.69531 16.7675 6.69531C16.253 6.69531 15.8359 7.11239 15.8359 7.62687C15.8359 8.14136 16.253 8.55843 16.7675 8.55843Z" fill="white"/>
</svg>
