<svg width="10" height="11" viewBox="0 0 10 11" fill="none" xmlns="http://www.w3.org/2000/svg">
<g clip-path="url(#clip0_964_8861)">
<path d="M5.55245 5.50001L9.88559 1.16686C10.0381 1.0143 10.0381 0.766957 9.88559 0.614419C9.73303 0.46188 9.48569 0.46186 9.33315 0.614419L4.99999 4.94757L0.666859 0.614419C0.514301 0.46186 0.266957 0.46186 0.114419 0.614419C-0.03812 0.766977 -0.0381396 1.01432 0.114419 1.16686L4.44755 5.5L0.114419 9.83315C-0.0381396 9.98571 -0.0381396 10.2331 0.114419 10.3856C0.150655 10.4219 0.193713 10.4507 0.241118 10.4704C0.288523 10.49 0.33934 10.5001 0.390649 10.5C0.441957 10.5001 0.492774 10.49 0.540178 10.4704C0.587583 10.4507 0.630641 10.4219 0.666879 10.3856L4.99999 6.05245L9.33313 10.3856C9.4094 10.4619 9.50938 10.5 9.60936 10.5C9.70934 10.5 9.8093 10.4619 9.88559 10.3856C10.0381 10.233 10.0381 9.98569 9.88559 9.83315L5.55245 5.50001Z" fill="black"/>
</g>
<defs>
<clipPath id="clip0_964_8861">
<rect width="10" height="10" fill="white" transform="translate(0 0.5)"/>
</clipPath>
</defs>
</svg>
