<svg width="10" height="10" viewBox="0 0 10 10" fill="none" xmlns="http://www.w3.org/2000/svg">
<g clip-path="url(#clip0_1153_4510)">
<path d="M8.53535 1.46465C7.59049 0.519781 6.33628 0 5 0C3.66372 0 2.40951 0.519781 1.46465 1.46465C0.519781 2.40951 0 3.66372 0 5C0 6.33628 0.519781 7.59049 1.46465 8.53535C2.40951 9.48022 3.66372 10 5 10C6.33628 10 7.59049 9.48022 8.53535 8.53535C9.48022 7.59049 10 6.33628 10 5C10 3.66372 9.48022 2.40951 8.53535 1.46465ZM8.13342 8.13342C7.29588 8.97096 6.18266 9.43182 5 9.43182C3.81734 9.43182 2.70412 8.97096 1.86658 8.13342C0.138889 6.40572 0.138889 3.59428 1.86658 1.86658C2.70412 1.02904 3.81734 0.568182 5 0.568182C6.18266 0.568182 7.29588 1.02904 8.13342 1.86658C9.86111 3.59428 9.86111 6.40572 8.13342 8.13342Z" fill="#ED1F28"/>
<path d="M7.20115 2.79654C7.08962 2.68501 6.91075 2.68501 6.79922 2.79654L4.99787 4.59789L3.19652 2.79654C3.08499 2.68501 2.90612 2.68501 2.79459 2.79654C2.68305 2.90807 2.68305 3.08694 2.79459 3.19848L4.59593 4.99982L2.79459 6.80117C2.68305 6.9127 2.68305 7.09157 2.79459 7.20311C2.8493 7.25782 2.92295 7.28728 2.9945 7.28728C3.06605 7.28728 3.1397 7.25992 3.19442 7.20311L4.99577 5.40176L6.79711 7.20311C6.85183 7.25782 6.92548 7.28728 6.99703 7.28728C7.07068 7.28728 7.14223 7.25992 7.19694 7.20311C7.30848 7.09157 7.30848 6.9127 7.19694 6.80117L5.39981 4.99982L7.20115 3.19848C7.31268 3.08694 7.31268 2.90807 7.20115 2.79654Z" fill="#ED1F28"/>
</g>
<defs>
<clipPath id="clip0_1153_4510">
<rect width="10" height="10" fill="white"/>
</clipPath>
</defs>
</svg>
