<svg width="142" height="143" viewBox="0 0 142 143" fill="none" xmlns="http://www.w3.org/2000/svg">
<path d="M123.053 117.434C120.26 120.374 117.617 122.27 115.529 123.769C90.9851 141.379 61.943 136.246 55.7707 134.992C46.6562 133.141 29.0381 129.563 16.3005 114.583C-2.97036 91.9213 0.0304007 56.2176 14.9782 32.6491C17.7124 28.3381 32.1552 4.41063 61.5101 0.573382C79.2754 -1.74884 99.9839 2.93484 114.981 15.499C146.46 41.8723 144.219 95.1511 123.053 117.434Z" fill="#F3F7FF"/>
<path d="M123.053 117.434C120.26 120.374 117.617 122.27 115.529 123.769C90.9851 141.379 61.943 136.246 55.7707 134.992C46.6562 133.141 29.0381 129.563 16.3005 114.583C-2.97036 91.9213 0.0304007 56.2176 14.9782 32.6491C17.7124 28.3381 32.1552 4.41063 61.5101 0.573382C79.2754 -1.74884 99.9839 2.93484 114.981 15.499C146.46 41.8723 144.219 95.1511 123.053 117.434Z" fill="#F3F7FF"/>
<path d="M66.4605 124.964C66.4055 126.272 65.0318 127.1 63.8422 126.552C57.2778 123.528 39.4911 113.3 33.3002 89.1303C28.0723 68.7202 23.2979 58.1498 20.798 53.5014C20.2694 52.5184 21.3029 51.432 22.3119 51.9088C33.4447 57.1701 68.4534 77.5428 66.4605 124.964Z" fill="#BDD0FB"/>
<path d="M64.7697 125.505C64.7493 125.53 64.7263 125.554 64.7004 125.575C64.4841 125.757 64.1615 125.729 63.9799 125.512C63.774 125.267 43.294 100.671 34.743 72.621C34.6608 72.351 34.813 72.0652 35.0831 71.9826C35.3533 71.9003 35.639 72.0525 35.7215 72.3227C44.2102 100.169 64.5586 124.611 64.7631 124.855C64.9232 125.045 64.9205 125.318 64.7697 125.505Z" fill="white"/>
<path d="M39.7396 21.3442C39.4593 20.5664 40.3549 19.8904 41.0335 20.3629C47.924 25.1605 66.6192 39.3696 67.3627 69.6618C68.2955 107.668 76.4288 120.834 87.3306 127.723C87.3306 127.723 73.4608 125.767 63.0657 113.171C37.5434 82.2432 44.7243 35.1749 39.7396 21.3442Z" fill="#91B3FA"/>
<path d="M46.0604 32.3309C47.4283 36.3764 48.7157 40.4466 49.8524 44.5581C51.0105 48.6629 52.0436 52.801 52.9463 56.9653C53.8329 61.1328 54.6412 65.3161 55.2706 69.5277C55.9189 73.7362 56.3857 77.9678 56.8395 82.2181C57.3169 86.4633 57.7735 90.7428 58.6697 94.9884C59.5602 99.226 60.9707 103.425 63.1068 107.243C63.6403 108.194 64.1933 109.139 64.7964 110.042C65.3831 110.957 66.0103 111.846 66.6533 112.723C67.9482 114.472 69.3614 116.138 70.8918 117.691C73.9609 120.79 77.4996 123.42 81.2825 125.53C81.6806 125.752 82.1834 125.609 82.4055 125.211C82.6235 124.82 82.4898 124.328 82.1079 124.1L82.1052 124.098C81.1997 123.559 80.3014 123.01 79.4307 122.423C78.9905 122.137 78.5641 121.831 78.132 121.534C77.7117 121.22 77.2791 120.923 76.869 120.597C75.2069 119.321 73.6364 117.93 72.1765 116.429C69.2453 113.446 66.7448 110.009 64.6977 106.366C63.6945 104.533 62.8281 102.628 62.1112 100.664C61.3958 98.6988 60.8302 96.6756 60.3797 94.6186C59.4779 90.5024 58.9909 86.2705 58.4831 82.0289C57.9697 77.787 57.4246 73.5279 56.7052 69.2978C56.3512 67.1821 55.9593 65.073 55.5298 62.9719C55.3211 61.9203 55.092 60.8727 54.8649 59.825C54.6277 58.7795 54.3848 57.7354 54.1335 56.6935C53.1202 52.5275 51.9804 48.3946 50.7116 44.3033C49.4231 40.2182 48.0267 36.1687 46.4767 32.1798C46.4323 32.0657 46.3041 32.0092 46.19 32.0536C46.0793 32.0967 46.023 32.2195 46.0604 32.3309Z" fill="white"/>
<path d="M78.5265 134.974H66.2642L71.772 0.18351L72.5332 0.278088L78.5265 134.974Z" fill="#2B5CAB"/>
<path d="M101.028 117.705H43.599V123.461H101.028V117.705Z" fill="#2B5CAB"/>
<path d="M106.348 123.458H38.7192V129.214H106.348V123.458Z" fill="#4D7AC3"/>
<path d="M111.227 129.215H33.3991V134.971H111.227V129.215Z" fill="#2B5CAB"/>
<path d="M120.105 29.9941H29.1359V32.276H120.105V29.9941Z" fill="#4D7AC3"/>
<path d="M2.87117 67.5318L2.18313 67.0163L30.6856 28.9821L52.2007 67.0627L51.4522 67.4854L30.5845 30.5506L2.87117 67.5318Z" fill="#7D97F4"/>
<path d="M30.6347 33.7486C32.3059 33.7486 33.6607 32.3938 33.6607 30.7226C33.6607 29.0514 32.3059 27.6966 30.6347 27.6966C28.9635 27.6966 27.6087 29.0514 27.6087 30.7226C27.6087 32.3938 28.9635 33.7486 30.6347 33.7486Z" fill="#3F7AD8"/>
<path d="M91.1204 68.3415L90.4324 67.826L118.935 29.7917L140.45 67.8724L139.702 68.2951L118.834 31.3602L91.1204 68.3415Z" fill="#7D97F4"/>
<path d="M72.2557 41.2612C77.0903 41.2612 81.0094 37.3421 81.0094 32.5076C81.0094 27.673 77.0903 23.7539 72.2557 23.7539C67.4212 23.7539 63.502 27.673 63.502 32.5076C63.502 37.3421 67.4212 41.2612 72.2557 41.2612Z" fill="#4D7AC3"/>
<path d="M118.147 33.921C119.819 33.921 121.173 32.5662 121.173 30.895C121.173 29.2238 119.819 27.869 118.147 27.869C116.476 27.869 115.121 29.2238 115.121 30.895C115.121 32.5662 116.476 33.921 118.147 33.921Z" fill="#3F7AD8"/>
<path d="M115.425 92.7334C129.039 92.7334 140.075 81.6973 140.075 68.0837H90.7753C90.7753 81.6974 101.811 92.7334 115.425 92.7334Z" fill="#2B5CAB"/>
<path d="M141.462 69.3001H88.7854C88.4895 69.3001 88.2474 69.058 88.2474 68.7621V66.0844C88.2474 65.7885 88.4895 65.5464 88.7854 65.5464H141.462C141.758 65.5464 142 65.7885 142 66.0844V68.7621C142 69.058 141.758 69.3001 141.462 69.3001Z" fill="#4D7AC3"/>
<path d="M29.7273 71.5226C38.496 71.5226 45.6044 64.4142 45.6044 55.6456C45.6044 46.8769 38.496 39.7685 29.7273 39.7685C20.9587 39.7685 13.8503 46.8769 13.8503 55.6456C13.8503 64.4142 20.9587 71.5226 29.7273 71.5226Z" fill="#ED1F28"/>
<path d="M19.5399 52.8293L27.709 63.5646C27.9261 63.8499 28.3834 63.8306 28.5725 63.5282L42.0799 41.9237C42.2356 41.6747 41.9739 41.3793 41.6855 41.4785L38.1378 42.6991C37.6634 42.8624 37.2672 43.1804 37.021 43.5953L28.3516 58.2117C28.2662 58.3557 28.0518 58.3698 27.9459 58.2384L20.856 49.445C20.6067 49.1357 20.0954 49.1948 19.9329 49.5516L19.3174 50.9032C19.0285 51.5378 19.1129 52.2681 19.5399 52.8293Z" fill="white"/>
<path d="M27.1776 91.9238C40.7913 91.9238 51.8273 80.8878 51.8273 67.2741H2.52794C2.52794 80.8878 13.5639 91.9238 27.1776 91.9238Z" fill="#2B5CAB"/>
<path d="M53.2143 68.4869H0.538075C0.242157 68.4869 0 68.2448 0 67.9488V65.2712C0 64.9752 0.242106 64.7331 0.538075 64.7331H53.2143C53.5102 64.7331 53.7524 64.9752 53.7524 65.2712V67.9488C53.7523 68.2448 53.5102 68.4869 53.2143 68.4869Z" fill="#4D7AC3"/>
<path d="M95.8318 66.6149C95.8318 66.6149 97.5206 67.4363 97.8311 68.3799C98.0802 69.137 99.9476 69.2347 100.132 70.7238C100.227 71.4926 100.796 72.1083 101.562 72.2257C103.469 72.518 106.408 73.5084 106.879 76.8197C107.238 79.3471 105.949 80.3056 104.597 80.6373C103.604 80.8809 102.944 81.8469 103.145 82.8496C103.337 83.8113 103.05 84.9231 101.384 85.8023C97.6501 87.7725 93.9214 81.1349 93.9214 81.1349L93.1572 69.5453L95.8318 66.6149Z" fill="url(#paint0_linear_10_56)"/>
<path d="M75.516 63.8677C75.516 63.8677 82.9708 75.6591 91.8355 77.9367C91.8355 77.9367 90.1082 82.8564 88.775 83.4194C88.775 83.4194 77.8689 74.3196 75.0663 65.5432L75.516 63.8677Z" fill="url(#paint1_linear_10_56)"/>
<path d="M111.178 139.286L111.42 141.272C111.466 141.649 111.763 141.947 112.14 141.99C112.776 142.063 113.798 142.137 114.798 142.032C115.237 141.985 115.522 141.541 115.388 141.12C115.144 140.354 114.698 139.203 114.055 138.525H111.852C111.445 138.525 111.129 138.882 111.178 139.286Z" fill="url(#paint2_linear_10_56)"/>
<path d="M93.9209 116.016L93.549 118.203C93.549 118.203 94.7944 130.818 95.0159 135.864C95.0506 136.655 94.846 137.437 94.4308 138.111L92.2653 141.628L97.7689 138.38L97.8785 137.708L96.9775 136.47L98.1576 122.338C98.227 121.508 98.0557 120.675 97.6642 119.94L96.5258 117.801L93.9209 116.016Z" fill="url(#paint3_linear_10_56)"/>
<path d="M91.9033 142.143H93.6596C93.9884 142.143 94.2984 141.992 94.4989 141.731C95.0464 141.02 96.1808 139.632 96.7232 139.596C97.4535 139.547 97.36 142.143 97.36 142.143H97.7693L98.2878 138.917C98.4183 138.105 98.0146 137.301 97.2858 136.921C97.2858 136.921 97.1189 138.156 96.2138 138.702C95.3088 139.248 92.5307 141.203 92.5307 141.203C92.5307 141.203 92.1905 141.155 91.8169 141.222C91.2627 141.322 91.3401 142.143 91.9033 142.143Z" fill="url(#paint4_linear_10_56)"/>
<path d="M101.461 117.056C101.461 117.056 108.757 130.895 109.916 134.055C111.076 137.215 111.482 139.851 111.498 140.101C111.522 140.491 112.007 140.865 113.345 140.865C114.035 140.865 114.373 140.588 114.538 140.32C114.679 140.092 114.687 139.806 114.568 139.565C114.146 138.711 112.806 135.982 112.31 134.744C111.718 133.266 110.444 126.567 109.746 124.238C109.047 121.909 108.257 119.383 105.215 117.056C105.215 117.056 103.126 115.01 101.461 117.056Z" fill="url(#paint5_linear_10_56)"/>
<path d="M96.85 94.3805C94.968 86.4057 99.7356 81.8952 99.7356 81.8952C96.7273 79.0076 91.2462 77.6936 91.2462 77.6936C91.2462 77.6936 86.016 81.5173 86.6365 84.5102C87.0001 86.2643 90.3128 95.0173 90.3128 95.0173C90.3128 95.0173 93.376 96.467 96.85 94.3805Z" fill="url(#paint6_linear_10_56)"/>
<path d="M101.024 98.331C100.258 96.0236 96.8509 94.3828 96.8509 94.3828C93.377 96.4693 90.3138 95.0196 90.3138 95.0196C90.3138 95.0196 89.6268 97.6454 90.101 100.086C90.5751 102.526 93.5498 118.208 93.5498 118.208C98.2369 119.158 105.446 117.253 105.446 117.253C102.46 111.952 101.789 100.638 101.024 98.331Z" fill="url(#paint7_linear_10_56)"/>
<path d="M94.664 72.4235L96.1941 79.2965C96.3405 79.9019 95.7887 79.8028 95.1766 79.6874C94.1743 79.4984 92.8824 79.1092 92.4506 78.3293C92.4066 78.2499 92.3847 78.1602 92.3723 78.0703L91.7149 73.3044C91.6628 72.9263 91.8671 72.5593 92.2161 72.4046L93.4846 71.8421C93.973 71.6256 94.5383 71.9042 94.664 72.4235Z" fill="url(#paint8_linear_10_56)"/>
<path d="M99.7371 81.8949C99.7371 81.8949 114.506 96.5149 93.0874 90.679C93.0874 90.679 92.8432 88.8309 93.1619 88.8627C100.108 89.5557 103.013 91.1459 97.3665 85.6711C97.1669 85.4775 97.2286 84.7469 97.357 84.5002C97.7479 83.7491 98.642 82.2578 99.7371 81.8949Z" fill="url(#paint9_linear_10_56)"/>
<path d="M91.7359 66.155C91.7359 66.155 90.107 67.2576 89.407 70.0658C88.707 72.8739 89.8446 73.8812 91.0106 73.8195C92.1766 73.7577 93.8673 73.3971 95.3321 71.3826C96.797 69.368 93.8706 64.8075 91.7359 66.155Z" fill="url(#paint10_linear_10_56)"/>
<path d="M93.8535 70.2485C93.8535 70.2485 94.4504 66.2247 91.1096 66.8402L90.4341 67.5435C90.4341 67.5435 88.7989 65.7019 90.6085 64.3099C92.4181 62.9179 94.9292 63.2743 96.3185 65.8086C97.7078 68.3428 98.2121 70.1236 97.0476 71.6983C95.8831 73.2731 95.0072 71.9225 95.0072 71.9225C95.0072 71.9225 95.5412 70.5596 95.0981 69.9747C94.6549 69.3898 94.0833 70.3148 94.0833 70.3148L93.8535 70.2485Z" fill="url(#paint11_linear_10_56)"/>
<path d="M94.3101 70.5944C94.3101 70.5944 94.6047 68.5242 95.662 69.116C96.7193 69.7078 95.281 71.0498 94.7042 71.5065L94.3101 70.5944Z" fill="url(#paint12_linear_10_56)"/>
<path d="M75.5661 66.2931C75.5435 66.5364 76.448 66.7044 76.7359 65.6675C76.6567 65.2173 76.5162 63.2459 76.171 62.9397C74.3326 61.3084 71.0544 59.4734 71.0544 59.4734C70.6877 60.0332 71.1686 60.4018 71.1686 60.4018L72.805 61.5062C72.6343 62.0716 72.3852 62.5715 72.357 63.2169C72.3357 63.7058 72.5162 64.1843 72.8407 64.5551C73.1664 64.9272 73.6048 65.4077 74 65.7725C74.7481 66.463 75.5661 66.2931 75.5661 66.2931Z" fill="url(#paint13_linear_10_56)"/>
<path d="M74.6783 65.4908L74.9284 65.3879C74.8952 65.307 74.1099 63.3987 73.7301 63.0017C73.5857 62.8511 73.516 62.7221 73.5225 62.6182C73.5257 62.5619 73.5536 62.5063 73.6065 62.4497L74.9305 63.1579L75.5154 64.0736L75.7434 63.9278L75.1206 62.9524L73.5697 62.1231L73.4996 62.1801C73.3428 62.3084 73.2617 62.4461 73.2524 62.6015C73.241 62.7866 73.3332 62.9786 73.5343 63.1889C73.8204 63.4879 74.4571 64.9519 74.6783 65.4908Z" fill="url(#paint14_linear_10_56)"/>
<path d="M93.9507 93.6946L90.3764 81.2125C90.3359 81.0709 90.215 80.9675 90.0686 80.9504C89.421 80.8749 87.5445 80.6628 85.3779 80.4795C82.7682 80.2588 79.7376 80.0799 77.9266 80.2321C77.6691 80.2537 77.5136 80.526 77.6281 80.7577C78.6579 82.8412 82.8941 91.3164 85.0154 94.0929C85.0857 94.1848 85.1944 94.2386 85.3101 94.2375L93.6029 94.1604C93.8442 94.1581 94.0171 93.9265 93.9507 93.6946Z" fill="url(#paint15_linear_10_56)"/>
<path d="M85.006 79.3955L82.4147 78.9638C82.2766 78.9408 82.1636 79.0727 82.2075 79.2055L82.464 79.9829C82.4863 80.0505 82.5454 80.0995 82.616 80.1089L85.1097 80.4421C85.2387 80.4593 85.345 80.3421 85.3154 80.2153L85.1566 79.5367C85.1395 79.4635 85.0801 79.4079 85.006 79.3955Z" fill="url(#paint16_linear_10_56)"/>
<path d="M86.9481 81.5925L86.7347 80.4805C86.7132 80.3689 86.6212 80.2847 86.5082 80.2732L81.2742 79.7421C81.0981 79.7242 80.957 79.8856 80.9983 80.0578L81.3311 81.4435C81.3578 81.5543 81.4542 81.6344 81.5682 81.6401L86.6828 81.8976C86.8493 81.906 86.9796 81.7562 86.9481 81.5925Z" fill="url(#paint17_linear_10_56)"/>
<path d="M93.0875 90.6752C93.0875 90.6752 93.5853 88.6279 93.3845 87.9015C93.1837 87.1751 92.7945 86.2413 91.4975 86.4488C90.2004 86.6564 88.6705 87.2027 88.6705 87.2027C88.6705 87.2027 88.7477 88.1488 89.7335 87.8436L89.1222 88.3166C89.1222 88.3166 89.2096 89.0742 90.0423 88.6695L89.4737 89.2967C89.4737 89.2967 89.8313 89.9189 90.4439 89.5198C91.0565 89.1208 91.3501 90.9218 93.0875 90.6752Z" fill="url(#paint18_linear_10_56)"/>
<defs>
<linearGradient id="paint0_linear_10_56" x1="92.8615" y1="59.8554" x2="97.8709" y2="72.4214" gradientUnits="userSpaceOnUse">
<stop stop-color="#09005D"/>
<stop offset="1" stop-color="#1A0F91"/>
</linearGradient>
<linearGradient id="paint1_linear_10_56" x1="81.0829" y1="69.4325" x2="94.5644" y2="88.0678" gradientUnits="userSpaceOnUse">
<stop stop-color="#FEBBBA"/>
<stop offset="1" stop-color="#FF928E"/>
</linearGradient>
<linearGradient id="paint2_linear_10_56" x1="111.173" y1="140.305" x2="115.421" y2="140.305" gradientUnits="userSpaceOnUse">
<stop stop-color="#4F52FF"/>
<stop offset="1" stop-color="#4042E2"/>
</linearGradient>
<linearGradient id="paint3_linear_10_56" x1="93.2241" y1="157.053" x2="99.337" y2="85.6084" gradientUnits="userSpaceOnUse">
<stop stop-color="#FEBBBA"/>
<stop offset="1" stop-color="#FF928E"/>
</linearGradient>
<linearGradient id="paint4_linear_10_56" x1="91.4389" y1="139.532" x2="98.3121" y2="139.532" gradientUnits="userSpaceOnUse">
<stop stop-color="#4F52FF"/>
<stop offset="1" stop-color="#4042E2"/>
</linearGradient>
<linearGradient id="paint5_linear_10_56" x1="105.522" y1="158.117" x2="111.637" y2="86.654" gradientUnits="userSpaceOnUse">
<stop stop-color="#FEBBBA"/>
<stop offset="1" stop-color="#FF928E"/>
</linearGradient>
<linearGradient id="paint6_linear_10_56" x1="94.0949" y1="84.2" x2="84.0394" y2="103.537" gradientUnits="userSpaceOnUse">
<stop stop-color="#FE7062"/>
<stop offset="1" stop-color="#FF928E"/>
</linearGradient>
<linearGradient id="paint7_linear_10_56" x1="102.739" y1="98.3617" x2="87.4557" y2="122.815" gradientUnits="userSpaceOnUse">
<stop stop-color="#09005D"/>
<stop offset="1" stop-color="#1A0F91"/>
</linearGradient>
<linearGradient id="paint8_linear_10_56" x1="92.5522" y1="86.6328" x2="93.7004" y2="78.2322" gradientUnits="userSpaceOnUse">
<stop stop-color="#FEBBBA"/>
<stop offset="1" stop-color="#FF928E"/>
</linearGradient>
<linearGradient id="paint9_linear_10_56" x1="116.321" y1="94.6156" x2="90.3956" y2="83.77" gradientUnits="userSpaceOnUse">
<stop stop-color="#FEBBBA"/>
<stop offset="1" stop-color="#FF928E"/>
</linearGradient>
<linearGradient id="paint10_linear_10_56" x1="90.5102" y1="76.5129" x2="96.8735" y2="57.0758" gradientUnits="userSpaceOnUse">
<stop stop-color="#FEBBBA"/>
<stop offset="1" stop-color="#FF928E"/>
</linearGradient>
<linearGradient id="paint11_linear_10_56" x1="89.6054" y1="60.8615" x2="96.961" y2="72.2146" gradientUnits="userSpaceOnUse">
<stop stop-color="#09005D"/>
<stop offset="1" stop-color="#1A0F91"/>
</linearGradient>
<linearGradient id="paint12_linear_10_56" x1="92.8336" y1="77.274" x2="99.197" y2="57.837" gradientUnits="userSpaceOnUse">
<stop stop-color="#FEBBBA"/>
<stop offset="1" stop-color="#FF928E"/>
</linearGradient>
<linearGradient id="paint13_linear_10_56" x1="79.4631" y1="70.6014" x2="92.9447" y2="89.2367" gradientUnits="userSpaceOnUse">
<stop stop-color="#FEBBBA"/>
<stop offset="1" stop-color="#FF928E"/>
</linearGradient>
<linearGradient id="paint14_linear_10_56" x1="75.7434" y1="63.807" x2="73.2514" y2="63.807" gradientUnits="userSpaceOnUse">
<stop stop-color="#FEBBBA"/>
<stop offset="1" stop-color="#FF928E"/>
</linearGradient>
<linearGradient id="paint15_linear_10_56" x1="90.6467" y1="77.568" x2="75.5171" y2="107.483" gradientUnits="userSpaceOnUse">
<stop stop-color="#09005D"/>
<stop offset="1" stop-color="#1A0F91"/>
</linearGradient>
<linearGradient id="paint16_linear_10_56" x1="82.4097" y1="73.7765" x2="84.1996" y2="81.6367" gradientUnits="userSpaceOnUse">
<stop stop-color="#4F52FF"/>
<stop offset="1" stop-color="#4042E2"/>
</linearGradient>
<linearGradient id="paint17_linear_10_56" x1="84.2654" y1="79.562" x2="82.0996" y2="88.844" gradientUnits="userSpaceOnUse">
<stop stop-color="#4F52FF"/>
<stop offset="1" stop-color="#4042E2"/>
</linearGradient>
<linearGradient id="paint18_linear_10_56" x1="93.4322" y1="88.559" x2="88.6704" y2="88.559" gradientUnits="userSpaceOnUse">
<stop stop-color="#FEBBBA"/>
<stop offset="1" stop-color="#FF928E"/>
</linearGradient>
</defs>
</svg>
