<svg xmlns="http://www.w3.org/2000/svg" width="23" height="23" viewBox="0 0 23 23" fill="none">
<path fill-rule="evenodd" clip-rule="evenodd" d="M16.9246 7.39791C17.0498 7.02224 16.952 6.60807 16.672 6.32806C16.392 6.04806 15.9778 5.95028 15.6022 6.07551L8.95307 8.29187C8.64089 8.39593 8.39593 8.64089 8.29187 8.95307L6.07551 15.6022C5.95028 15.9778 6.04806 16.392 6.32806 16.672C6.60807 16.952 7.02224 17.0498 7.39791 16.9246L14.047 14.7082C14.3592 14.6041 14.6041 14.3592 14.7082 14.047L16.9246 7.39791ZM8.72032 14.2798L10.1102 10.1102L14.2798 8.72032L12.8899 12.8899L8.72032 14.2798Z" fill="#DBDBDB"/>
<path fill-rule="evenodd" clip-rule="evenodd" d="M11.5 0C5.14873 0 0 5.14873 0 11.5C0 17.8513 5.14873 23 11.5 23C17.8513 23 23 17.8513 23 11.5C23 5.14873 17.8513 0 11.5 0ZM2.09091 11.5C2.09091 6.3035 6.3035 2.09091 11.5 2.09091C16.6965 2.09091 20.9091 6.3035 20.9091 11.5C20.9091 16.6965 16.6965 20.9091 11.5 20.9091C6.3035 20.9091 2.09091 16.6965 2.09091 11.5Z" fill="#DBDBDB"/>
</svg>