<svg width="82" height="82" viewBox="0 0 82 82" fill="none" xmlns="http://www.w3.org/2000/svg">
<circle cx="40.6347" cy="40.6347" r="39.4737" fill="white" stroke="#ED1F28" stroke-width="2.32198"/>
<path fill-rule="evenodd" clip-rule="evenodd" d="M40.6136 23C41.6636 23 42.3636 23.7 42.3636 24.75V27.025C44.8736 27.3722 47.1733 28.6153 48.8386 30.525C48.988 30.7089 49.0997 30.9203 49.1674 31.1473C49.235 31.3744 49.2573 31.6125 49.2329 31.8481C49.2085 32.0837 49.138 32.3123 49.0253 32.5206C48.9126 32.729 48.76 32.9131 48.5761 33.0625C48.3923 33.2119 48.1808 33.3236 47.9538 33.3912C47.7268 33.4589 47.4886 33.4812 47.253 33.4568C47.0174 33.4324 46.7889 33.3619 46.5805 33.2492C46.3721 33.1365 46.188 32.9839 46.0386 32.8C45.1636 31.75 43.9386 31.05 42.5386 30.525C41.9075 30.3822 41.2602 30.3233 40.6136 30.35C38.1636 30.35 36.4136 31.75 35.8886 33.325C35.7136 34.375 35.8886 35.425 36.9386 36.65C37.8136 37.7 39.2136 38.75 40.9636 39.1C43.2386 39.625 45.3386 41.025 46.7386 42.775C47.5211 43.6034 48.0894 44.6102 48.3944 45.7081C48.6994 46.806 48.7317 47.9618 48.4886 49.075C48.0713 50.4412 47.2737 51.6604 46.1891 52.5901C45.1045 53.5198 43.7776 54.1215 42.3636 54.325V56.25C42.3636 56.7141 42.1793 57.1592 41.8511 57.4874C41.5229 57.8156 41.0778 58 40.6136 58C40.1495 58 39.7044 57.8156 39.3762 57.4874C39.048 57.1592 38.8636 56.7141 38.8636 56.25V54.5C36.2287 54.2357 33.7909 52.9856 32.0386 51C31.7369 50.6287 31.5951 50.1528 31.6443 49.6769C31.6936 49.201 31.9298 48.7642 32.3011 48.4625C32.6724 48.1608 33.1484 48.019 33.6242 48.0682C34.1001 48.1174 34.5369 48.3537 34.8386 48.725C35.7136 49.95 36.9386 50.65 38.3386 51C41.8386 51.875 44.4636 50.3 44.9886 48.2C45.0881 47.6291 45.0442 47.0424 44.8609 46.4926C44.6777 45.9428 44.3608 45.4471 43.9386 45.05C42.9572 43.7984 41.6123 42.8814 40.0886 42.425C37.7863 41.9139 35.704 40.689 34.1386 38.925C33.3587 38.0616 32.8062 37.0175 32.5312 35.8869C32.2562 34.7564 32.2674 33.5751 32.5636 32.45C33.2636 29.475 36.0636 27.55 38.8636 27.025V24.75C38.8636 23.7 39.7386 23 40.6136 23Z" fill="#ED1F28"/>
</svg>
