<svg width="25" height="24" viewBox="0 0 25 24" fill="none" xmlns="http://www.w3.org/2000/svg">
<mask id="mask0_1075_19904" style="mask-type:alpha" maskUnits="userSpaceOnUse" x="0" y="0" width="25" height="24">
<rect x="0.203125" width="24" height="24" fill="#D9D9D9"/>
</mask>
<g mask="url(#mask0_1075_19904)">
<path d="M6.8185 19.0004C6.35825 19.0004 5.97396 18.8463 5.66563 18.5379C5.35729 18.2296 5.20312 17.8453 5.20312 17.3851V15.0004H6.20312V17.3851C6.20312 17.5389 6.26723 17.6799 6.39543 17.8081C6.52364 17.9363 6.66467 18.0004 6.8185 18.0004H17.5878C17.7416 18.0004 17.8826 17.9363 18.0108 17.8081C18.139 17.6799 18.2031 17.5389 18.2031 17.3851V15.0004H19.2031V17.3851C19.2031 17.8453 19.049 18.2296 18.7406 18.5379C18.4323 18.8463 18.048 19.0004 17.5878 19.0004H6.8185ZM12.2031 15.2312L8.66465 11.6927L9.37235 10.9735L11.7031 13.3043V4.6543H12.7031V13.3043L15.0339 10.9735L15.7416 11.6927L12.2031 15.2312Z" fill="black"/>
</g>
</svg>
