<svg width="20" height="20" viewBox="0 0 20 20" fill="none" xmlns="http://www.w3.org/2000/svg">
<g clip-path="url(#clip0_964_6356)">
<path d="M18.7503 9.24996H11.0892C10.7553 9.24996 10.4844 8.96997 10.4844 8.62498C10.4844 8.27999 10.7553 8 11.0892 8H18.7503C19.0842 8 19.3551 8.27999 19.3551 8.62498C19.3551 8.96997 19.0842 9.24996 18.7503 9.24996Z" fill="white"/>
<path d="M15.8575 12.1209C15.9309 12.1523 16.0096 12.1684 16.0891 12.1683C16.1687 12.1684 16.2475 12.1522 16.3211 12.1206C16.3946 12.089 16.4613 12.0426 16.5173 11.9841L19.5414 8.85919C19.7776 8.61505 19.7776 8.21924 19.5414 7.97511L16.5173 4.85021C16.281 4.60592 15.898 4.60592 15.6616 4.85021C15.4253 5.09434 15.4253 5.49015 15.6616 5.73428L18.2584 8.4176L15.6616 11.1008C15.4253 11.3449 15.4253 11.7407 15.6616 11.985C15.7176 12.0432 15.7842 12.0894 15.8575 12.1209Z" fill="white"/>
<path d="M6.45146 20.0004C6.27886 20.0004 6.11511 19.9754 5.95146 19.9228L1.09832 18.252C0.437927 18.0137 0 17.3779 0 16.6672V1.66764C0 0.748492 0.723402 0.000976562 1.6129 0.000976562C1.78535 0.000976562 1.94915 0.0259758 2.1129 0.0784741L6.9659 1.74928C7.6264 1.98759 8.06421 2.62343 8.06421 3.33415V18.3337C8.06421 19.2528 7.34096 20.0004 6.45146 20.0004ZM1.6129 1.25094C1.39112 1.25094 1.20964 1.43843 1.20964 1.66764V16.6672C1.20964 16.8446 1.32493 17.0095 1.48944 17.0688L6.31988 18.7321C6.35458 18.7437 6.39979 18.7504 6.45146 18.7504C6.67324 18.7504 6.85457 18.5629 6.85457 18.3337V3.33415C6.85457 3.1567 6.73928 2.99174 6.57477 2.93256L1.74434 1.26926C1.70964 1.25766 1.66443 1.25094 1.6129 1.25094Z" fill="white"/>
<path d="M12.2977 6.66749C11.9638 6.66749 11.6929 6.3875 11.6929 6.04251V2.29262C11.6929 1.71842 11.2406 1.25094 10.6849 1.25094H1.61263C1.27877 1.25094 1.00781 0.970946 1.00781 0.625957C1.00781 0.280968 1.27877 0.000976562 1.61263 0.000976562H10.6849C11.9083 0.000976562 12.9025 1.02848 12.9025 2.29262V6.04251C12.9025 6.3875 12.6315 6.66749 12.2977 6.66749ZM10.6849 17.5004H7.45912C7.12526 17.5004 6.8543 17.2204 6.8543 16.8755C6.8543 16.5305 7.12526 16.2505 7.45912 16.2505H10.6849C11.2406 16.2505 11.6929 15.7829 11.6929 15.2088V11.4589C11.6929 11.1139 11.9638 10.8339 12.2977 10.8339C12.6315 10.8339 12.9025 11.1139 12.9025 11.4589V15.2088C12.9025 16.4729 11.9083 17.5004 10.6849 17.5004Z" fill="white"/>
</g>
<defs>
<clipPath id="clip0_964_6356">
<rect width="20" height="20" fill="white"/>
</clipPath>
</defs>
</svg>
