<svg width="50" height="77" viewBox="0 0 50 77" fill="none" xmlns="http://www.w3.org/2000/svg">
<g clip-path="url(#clip0_7007_6088)">
<path d="M48.3781 19.1746V24.6697C48.3781 25.1725 48.2164 25.5855 47.8932 25.9088C47.57 26.232 47.1569 26.3936 46.6541 26.3936H37.6034C36.7774 31.5654 34.4608 35.7675 30.6538 38.9999C26.8468 42.2323 21.8904 44.2077 15.7848 44.926C21.7827 51.3189 30.0253 60.9442 40.5126 73.802C41.0154 74.3766 41.0872 74.9872 40.7281 75.6336C40.4408 76.2801 39.92 76.6034 39.1658 76.6034H28.6605C28.0859 76.6034 27.6369 76.3879 27.3137 75.9569C16.3236 62.7759 7.38062 52.5221 0.484858 45.1953C0.161619 44.8721 0 44.477 0 44.0101V37.1682C0 36.7013 0.170598 36.2973 0.511795 35.9561C0.852991 35.6149 1.25704 35.4443 1.72394 35.4443H7.75773C12.4986 35.4443 16.3146 34.6721 19.2058 33.1277C22.097 31.5834 23.9376 29.3387 24.7278 26.3936H1.72394C1.22112 26.3936 0.808097 26.232 0.484858 25.9088C0.161619 25.5855 0 25.1725 0 24.6697V19.1746C0 18.6718 0.161619 18.2588 0.484858 17.9355C0.808097 17.6123 1.22112 17.4507 1.72394 17.4507H23.9735C21.9264 13.3922 17.1137 11.363 9.53554 11.363H1.72394C1.25704 11.363 0.852991 11.1924 0.511795 10.8512C0.170598 10.51 0 10.106 0 9.63907V2.47394C0 1.97112 0.161619 1.5581 0.484858 1.23486C0.808097 0.911619 1.22112 0.75 1.72394 0.75H46.5464C47.0492 0.75 47.4622 0.911619 47.7855 1.23486C48.1087 1.5581 48.2703 1.97112 48.2703 2.47394V7.969C48.2703 8.47181 48.1087 8.88484 47.7855 9.20808C47.4622 9.53132 47.0492 9.69294 46.5464 9.69294H33.9939C35.682 11.8838 36.8313 14.4697 37.4418 17.4507H46.6541C47.1569 17.4507 47.57 17.6123 47.8932 17.9355C48.2164 18.2588 48.3781 18.6718 48.3781 19.1746Z" fill="#ED1F28"/>
</g>
<defs>
<clipPath id="clip0_7007_6088">
<rect width="50" height="75.8534" fill="white" transform="translate(0 0.757812)"/>
</clipPath>
</defs>
</svg>
