<svg width="125" height="125" viewBox="0 0 125 125" fill="none" xmlns="http://www.w3.org/2000/svg">
<g clip-path="url(#clip0_3875_887)">
<path d="M120.78 77.5824C120.249 73.2274 118.522 69.8143 114.631 67.4374C111.812 65.7113 109.53 65.4427 98.7344 62.755V62.1908H109.51C112.123 62.1908 114.252 60.0814 114.284 57.4759C115.645 34.412 115.85 31.7696 115.757 30.6795C115.757 29.6681 114.937 28.8485 113.926 28.8485C113.685 28.8485 113.447 28.8958 113.225 28.9878C113.003 29.0798 112.801 29.2147 112.631 29.3847C112.461 29.5548 112.326 29.7566 112.234 29.9788C112.142 30.201 112.095 30.4391 112.095 30.6795V32.4166C110.559 58.4647 110.623 57.3099 110.623 57.4154C110.623 58.0187 110.113 58.5284 109.51 58.5284H98.7344V58.0545C99.3249 57.6598 103.701 55.7303 106.879 50.5824C110.398 44.9034 109.908 40.1034 109.914 35.4552C109.914 33.5926 108.461 32.078 106.606 32.0069H106.606C93.0268 31.4879 86.0591 23.7909 84.2466 21.4439C83.9729 21.0886 83.624 20.7983 83.2249 20.5937C82.8259 20.3892 82.3864 20.2755 81.9382 20.2608C81.4894 20.2461 81.0429 20.3301 80.6301 20.507C80.2174 20.6839 79.8486 20.9493 79.5498 21.2845C76.7002 24.4923 73.477 25.5072 71.8093 25.8265C70.2983 26.1161 69.2014 27.4447 69.2014 28.9859C69.208 40.495 69.1872 39.8609 69.218 40.6705C69.2671 47.8182 74.0776 55.0023 80.3095 58.0187V58.5277H69.3791C68.7759 58.5277 68.2663 58.0179 68.2663 57.4146C68.2663 57.308 68.3276 58.4173 66.7912 32.3619C66.7891 32.3283 66.7861 32.2948 66.7824 32.2613C66.7607 32.0711 64.738 13.2079 75.3288 10.8805C75.5921 10.8226 75.8394 10.7073 76.053 10.5429C76.2666 10.3784 76.4412 10.1688 76.5644 9.92905C76.6086 9.8436 81.1257 1.40928 95.6972 4.24692C101.497 5.35288 110.176 12.2594 111.805 22.4239C111.965 23.4222 112.903 24.1002 113.903 23.942C114.141 23.9039 114.368 23.8195 114.573 23.6934C114.778 23.5674 114.956 23.4023 115.097 23.2074C115.238 23.0126 115.339 22.792 115.395 22.558C115.45 22.3241 115.459 22.0815 115.421 21.8441C114.716 17.0294 112.32 11.9469 108.696 8.08994L108.565 7.95078C104.929 4.09971 99.5176 1.25986 96.396 0.652196C91.4841 -0.303858 84.3904 -0.664698 78.4844 3.04648C75.9409 4.64414 74.458 6.48765 73.7717 7.49814C68.3686 9.03232 64.8291 13.8502 63.5127 21.4889C62.5718 26.9474 63.0722 32.0133 63.1386 32.6256C64.8537 59.1119 64.2656 58.1207 65.2585 59.8175C60.0552 58.9808 54.759 60.4681 50.7456 64.2621L49.145 63.8634L44.6916 61.732V58.0155C53.761 53.516 55.2121 44.5147 55.2998 44.3492C55.6251 42.8827 55.7901 41.3851 55.7917 39.8829V39.8651C59.0984 39.1446 61.5564 36.5211 61.5564 33.4027C61.5564 32.1109 61.1333 30.9049 60.404 29.8827C60.4341 25.067 60.5703 22.2342 59.539 18.4364C59.2751 17.7643 58.4109 13.5106 54.5781 8.93857L54.56 8.9166C47.4765 0.491795 35.2597 -2.72402 24.3015 2.61582C15.9868 6.76182 10.4651 15.3131 10.4651 24.9703C10.4653 26.5775 10.4646 29.6881 10.4658 29.8829C7.74363 33.6981 10.0678 38.7743 15.0793 39.8656C15.2466 48.1681 19.7124 54.7193 26.2671 58.0589V61.6903L21.6308 63.9095C16.5798 65.3236 12.6609 65.6932 9.66111 67.9176C6.02756 70.6917 4.75437 73.2052 4.21921 77.6007C-0.124536 116.891 -0.0232179 114.505 0.00656723 116.255C-0.0464113 120.921 3.21531 124.992 8.61228 124.992L24.6194 124.992C25.6308 124.992 26.4504 124.172 26.4504 123.161C26.4504 122.149 25.6308 121.33 24.6194 121.33H17.7392L19.5549 86.9867C19.5805 86.5017 19.4124 86.0265 19.0876 85.6655C18.7628 85.3044 18.3079 85.0872 17.823 85.0616C16.8169 85.0055 15.9511 85.7835 15.8979 86.7936L15.5161 94.0167L6.176 93.037L6.20652 92.765C8.09153 77.838 7.41404 75.5763 9.93333 72.5807L9.95432 72.5555C13.0219 68.9332 17.8857 68.8531 21.6516 67.6778L27.2805 74.8834C28.6264 76.607 31.1826 76.7613 32.7263 75.2064L33.6042 74.3216V83.1825C33.6042 84.1939 34.4238 85.0135 35.4353 85.0135C36.4468 85.0135 37.2663 84.1939 37.2663 83.1825V74.3219L38.144 75.2064C38.5076 75.5725 38.9449 75.8571 39.427 76.0413C39.909 76.2254 40.4247 76.3048 40.9398 76.2743C41.4549 76.2438 41.9576 76.104 42.4145 75.8642C42.8714 75.6244 43.272 75.2902 43.5898 74.8836L46.1628 71.5902C45.0959 75.027 45.4704 77.6087 45.3916 79.0685C41.8816 82.357 43.6716 87.7516 48.6289 88.8519C49.3347 92.983 51.842 96.6874 55.8056 98.8575V101.084C49.3462 102.824 44.2661 102.896 41.9673 108.373C41.8778 108.588 41.7994 108.807 41.7324 109.03C41.6425 109.319 41.5658 109.612 41.5027 109.908C41.2207 111.273 41.2097 112.136 40.134 121.33H33.1643C32.9238 121.33 32.6857 121.377 32.4635 121.469C32.2414 121.561 32.0395 121.696 31.8695 121.866C31.6994 122.036 31.5645 122.238 31.4725 122.46C31.3805 122.682 31.3332 122.92 31.3332 123.161C31.3332 124.172 32.1528 124.992 33.1643 124.992H41.7907L41.7949 124.992L41.8 124.992H83.2026L83.2077 124.992L83.2119 124.992H90.9616C91.9731 124.992 92.7927 124.172 92.7927 123.161C92.7927 122.149 91.9731 121.33 90.9616 121.33H84.8681C83.874 114.027 83.9685 110.89 83.1394 108.64C82.0373 105.634 79.3552 103.624 76.4497 102.89L69.1968 101.084V98.8253C73.0107 96.7342 75.6196 93.0248 76.3152 88.8514C76.3403 88.8373 80.5783 88.0631 81.2932 84.065C81.4968 82.9508 81.342 81.7738 80.781 80.6859C84.2671 79.9767 87.6755 77.4 89.5178 75.8031C98.8498 83.8978 107.231 82.8841 107.915 68.8141C109.258 69.2308 115.602 70.2022 116.87 76.3363C116.965 76.7962 117.075 77.4488 117.143 78.0069L118.824 93.0318L109.557 94.004L109.176 86.7928C109.123 85.7828 108.249 85.0025 107.251 85.0609C106.766 85.0865 106.311 85.3037 105.987 85.6647C105.662 86.0257 105.494 86.501 105.519 86.9859L107.335 121.329H99.5061C98.4946 121.329 97.675 122.149 97.675 123.16C97.675 124.171 98.4946 124.991 99.5061 124.991L116.388 124.991C118.855 124.991 120.972 124.166 122.512 122.606C124.095 121.001 125.022 118.626 124.994 116.249C125.018 114.706 125.144 116.879 120.78 77.5824ZM15.2102 97.6668L14.0215 121.33H8.61204C5.42747 121.33 3.7385 119.245 3.66819 116.22C3.64622 114.923 3.7158 115.362 5.76877 96.6761L15.2102 97.6668ZM55.7915 36.0431V30.7635C58.5879 31.9171 58.5884 34.8893 55.7915 36.0431ZM15.0788 36.0436C12.2807 34.8897 12.2805 31.9168 15.0788 30.763V36.0436ZM16.6616 26.7494C15.7983 26.7725 14.9437 26.9274 14.1272 27.2086C14.1504 25.2923 14.009 23.5562 14.5058 20.9564C14.718 20.3888 15.5249 14.159 21.2859 9.0394C22.0571 8.44223 23.3237 7.10996 26.5901 5.57944C33.6286 2.36509 42.2392 2.87119 49.5837 9.03965C54.5508 13.4522 55.6372 18.4571 56.0019 19.3846C57.0239 23.1534 56.6657 25.816 56.7426 27.2088C55.9265 26.9275 55.0722 26.7727 54.2092 26.7496C53.7448 26.4872 53.3152 26.1236 52.977 25.7513C50.4804 22.8749 52.5981 20.6473 49.9201 18.4125C48.032 16.8368 46.2239 17.4388 42.8823 17.8758C27.3196 19.5538 24.1968 15.7035 20.9504 18.4125C19.9929 19.2115 19.3901 20.367 19.3491 21.8004C19.2024 25.6883 16.8203 26.5704 16.6616 26.7494ZM18.7409 39.8834V29.7723C20.1269 28.7735 21.1462 27.964 22.0581 26.0292C22.5813 24.9234 22.9634 23.5292 23.0149 21.8001C23.0268 21.326 23.4726 20.9637 23.9582 21.0414C43.2937 23.6156 47.7964 19.4642 47.8554 21.7992C47.9717 25.8929 50.2219 28.1444 50.258 28.2049C50.9301 28.9471 51.3613 29.2188 52.1286 29.7721C52.1289 31.6764 52.1281 38.0436 52.1294 38.2457C52.0083 38.7745 53.4301 49.1678 43.0913 54.7218H43.0915C43.0657 54.7325 40.3982 56.265 36.5405 56.5365C35.5713 56.5999 34.6172 56.5582 34.6418 56.5587C25.5823 56.1361 18.7409 48.6224 18.7409 39.8834ZM30.1484 72.6058L25.218 66.2943L27.6982 65.1073L32.8117 69.922L30.1484 72.6058ZM35.4353 67.3622L29.9289 62.1778V59.4825C33.5801 60.5094 37.4189 60.4664 40.9856 59.4698V62.1361L35.4353 67.3622ZM40.7221 72.6058L38.0591 69.922L43.2019 65.0794L45.6765 66.264L40.7221 72.6058ZM48.4319 84.8968C46.761 83.9422 46.9038 82.2145 48.4319 81.3456V84.8968ZM77.3816 51.3038C71.5879 44.8663 72.8684 39.0592 72.863 29.3497C74.9624 28.8924 78.5486 27.6434 81.7995 24.2472C84.4016 27.3868 92.1618 35.0465 106.251 35.6585C106.244 40.5255 106.265 39.6568 106.235 40.6395L106.234 40.6339C106.07 41.2916 106.407 47.3392 100.25 52.7022L100.039 52.8746C94.3088 57.5038 86.3413 57.7047 80.5095 53.9127C80.1408 53.6739 77.7956 51.7003 77.3816 51.3038ZM70.8064 105.259L70.8845 105.279C74.5832 106.288 75.8276 106.29 77.4211 107.245C80.7573 109.244 79.8161 111.71 81.1626 121.33H76.2888L76.072 117.378C76.0166 116.368 75.1533 115.593 74.1435 115.65C73.9035 115.663 73.6683 115.723 73.4516 115.828C73.2348 115.932 73.0407 116.077 72.8802 116.256C72.7198 116.435 72.5962 116.644 72.5165 116.871C72.4368 117.098 72.4026 117.338 72.4157 117.578L72.6216 121.33H52.4309L52.6367 117.578C52.6499 117.338 52.6158 117.098 52.5361 116.871C52.4564 116.644 52.3328 116.435 52.1724 116.256C52.0119 116.077 51.8177 115.931 51.601 115.827C51.3842 115.723 51.149 115.663 50.9089 115.65C50.6687 115.636 50.4282 115.67 50.2012 115.75C49.9742 115.829 49.7651 115.953 49.5859 116.113C49.4068 116.274 49.2611 116.468 49.1572 116.685C49.0533 116.902 48.9932 117.138 48.9804 117.378L48.7636 121.33H43.8403C45.0534 110.922 44.54 109.067 47.5815 107.245C49.1013 106.333 50.0891 106.347 54.1958 105.259C56.2878 107.626 59.3078 109.007 62.5012 109.007C65.6946 109.007 68.7146 107.626 70.8064 105.259ZM59.4673 100.216C60.2357 100.384 61.0169 100.486 61.8025 100.523C61.8469 100.525 61.8906 100.526 61.9348 100.528L62.0654 100.532C63.3886 100.567 64.6738 100.419 65.5346 100.203C65.6252 100.907 65.133 102.953 66.664 104.063C65.4363 104.898 63.9857 105.345 62.5008 105.345C61.0159 105.345 59.5654 104.898 58.3376 104.063C59.8642 102.956 59.3801 100.889 59.4673 100.216ZM72.8305 87.0948C72.8234 87.2224 72.8143 87.3499 72.8032 87.4771C72.4546 91.2196 70.1133 94.3819 66.8769 95.8978C66.7944 95.9081 61.2734 98.8626 55.9582 94.5763C55.8994 94.4945 52.7531 92.2918 52.1806 87.848C52.0251 86.6546 52.1247 85.702 52.094 80.6136C60.1338 82.2767 65.7375 79.0477 68.1894 75.8458C69.8152 78.2396 71.666 79.2682 72.8493 79.7044C72.8459 87.5433 72.8606 86.5504 72.8305 87.0948ZM75.8899 77.3082C75.2746 76.5514 74.5493 76.4105 74.259 76.3182C73.4521 76.0602 71.9026 75.2506 70.5871 72.7264C69.5588 70.7538 66.7319 70.8277 65.7881 72.8131C64.717 75.0653 59.8298 78.9828 51.5583 76.7206C50.7575 76.5025 49.8928 76.6852 49.2353 77.2853C49.174 77.2936 49.1137 77.3043 49.0532 77.3141C49.0581 76.1117 49.0676 76.0655 49.0666 76.0902C49.5364 64.9154 62.8882 59.129 71.3606 66.62C71.3594 66.6295 71.3818 66.6283 71.3808 66.6378C73.5454 68.5624 75.0249 71.0506 75.6513 74.1446C75.959 75.7552 75.8764 77.0563 75.8899 77.3082ZM74.2099 64.2738C73.2883 63.4005 72.5534 62.8341 71.5276 62.1913H80.3095V62.7555L74.2099 64.2738ZM76.5117 84.8995V81.3458C77.164 81.7189 77.7173 82.3653 77.7173 83.1227C77.7173 84.0733 76.9961 84.5362 76.5117 84.8995ZM79.552 77.1917C79.5149 76.9142 79.7517 74.3624 78.6054 71.056C80.532 72.7064 82.7729 73.8971 85.1892 74.5445C83.4421 75.7992 81.3337 76.9969 79.552 77.1917ZM79.5229 66.725L81.8989 66.1336C82.0066 66.1068 82.1115 66.0702 82.2126 66.0245C83.281 65.5401 83.9712 64.3082 83.9712 62.8861L83.9714 59.4601C87.2844 60.4005 90.7842 60.5829 95.072 59.4803V62.8861C95.072 64.3084 95.7624 65.5406 96.831 66.0245C96.932 66.0703 97.0369 66.1068 97.1445 66.1336L99.5144 66.7237C94.1418 73.0101 84.907 73.0233 79.5229 66.725ZM101.177 76.9986C99.0552 77.8839 95.7104 75.8954 93.8237 74.5311C97.7114 73.4532 101.018 71.0946 103.393 67.6893L104.286 67.9117C104.134 73.0138 103.045 76.2198 101.177 76.9986ZM119.905 120.034C117.964 122.002 115.329 121.096 111.002 121.33L109.751 97.6664L119.231 96.6717L121.294 115.108C121.449 116.929 121.199 118.723 119.905 120.034Z" fill="black"/>
</g>
<defs>
<clipPath id="clip0_3875_887">
<rect width="125" height="125" fill="white"/>
</clipPath>
</defs>
</svg>
