<svg width="125" height="125" viewBox="0 0 125 125" fill="none" xmlns="http://www.w3.org/2000/svg">
<path d="M117.188 123.047C116.016 123.047 115.234 122.266 115.234 121.094C115.234 116.406 113.281 107.422 99.4141 99.8047C96.875 98.4375 93.75 97.2656 90.2344 95.8984C81.8359 92.7734 72.0703 89.0625 72.0703 81.25V73.4375C72.0703 72.2656 72.8516 71.4844 74.0234 71.4844C75.1953 71.4844 75.9766 72.2656 75.9766 73.4375V81.25C75.9766 86.3281 83.9844 89.4531 91.6016 92.3828C95.1172 93.75 98.4375 94.9219 101.172 96.4844C116.797 105.078 119.141 115.625 119.141 121.094C119.141 122.266 118.359 123.047 117.188 123.047ZM7.8125 123.047C6.64062 123.047 5.85938 122.266 5.85938 121.094C5.85938 115.625 8.20313 104.883 23.6328 96.4844C26.3672 94.9219 29.6875 93.75 33.2031 92.3828C40.8203 89.4531 48.8281 86.5234 48.8281 81.25V73.4375C48.8281 72.2656 49.6094 71.4844 50.7812 71.4844C51.9531 71.4844 52.7344 72.2656 52.7344 73.4375V81.25C52.7344 89.0625 43.1641 92.7734 34.5703 95.8984C31.25 97.2656 27.9297 98.4375 25.3906 99.8047C11.7188 107.422 9.76562 116.406 9.76562 121.094C9.76562 122.266 8.98438 123.047 7.8125 123.047Z" fill="black"/>
<path d="M62.5 111.328C50.7812 111.328 40.0391 104.492 35.3516 93.75C34.9609 92.7734 35.3516 91.6016 36.3281 91.2109C37.3047 90.8203 38.4766 91.2109 38.8672 92.1875C42.9687 101.367 52.3438 107.422 62.5 107.422C72.6562 107.422 82.0312 101.367 86.1328 92.1875C86.5234 91.2109 87.6953 90.8203 88.6719 91.2109C89.6484 91.6016 90.0391 92.7734 89.6484 93.75C84.9609 104.492 74.2188 111.328 62.5 111.328ZM62.5 80.0781C52.1484 80.0781 42.1875 70.3125 39.2578 57.8125C36.5234 56.8359 33.2031 53.9063 33.2031 46.875C33.2031 45.1172 33.3984 43.3594 33.9844 41.9922C34.5703 40.2344 36.1328 39.0625 38.0859 38.8672C43.3594 38.2813 44.9219 34.1797 46.6797 28.125C47.8516 23.8281 49.2188 19.3359 53.7109 19.3359C56.0547 19.3359 58.0078 20.1172 59.375 20.7031C60.3516 19.9219 62.1094 19.3359 65.0391 19.3359C69.5312 19.3359 72.6562 23.8281 76.1719 28.7109C79.4922 33.3984 83.0078 38.2813 87.3047 38.8672C89.0625 39.0625 90.4297 40.2344 91.2109 41.7969C91.6016 43.3594 91.7969 44.9219 91.7969 46.875C91.7969 53.9063 88.2813 56.8359 85.7422 57.8125C82.8125 70.3125 72.8516 80.0781 62.5 80.0781ZM38.4766 42.9688C38.0859 42.9688 37.8906 43.1641 37.6953 43.5547C37.3047 44.3359 37.1094 45.5078 37.1094 46.875C37.1094 53.7109 41.0156 54.2969 41.2109 54.2969C41.9922 54.2969 42.7734 55.0781 42.9688 55.8594C45.3125 68.3594 54.8828 76.1719 62.5 76.1719C70.1172 76.1719 79.6875 68.3594 82.0312 55.8594C82.2266 55.0781 82.8125 54.2969 83.7891 54.2969C84.1797 54.2969 87.8906 53.5156 87.8906 46.875C87.8906 45.1172 87.5 44.1406 87.3047 43.5547C87.1094 43.1641 86.9141 42.9688 86.5234 42.9688C80.4688 42.1875 76.3672 36.3281 72.6562 31.25C69.9219 27.5391 67.1875 23.6328 64.8438 23.6328C61.9141 23.6328 61.1328 24.6094 61.1328 24.6094C60.9375 25 60.5469 25.3906 59.9609 25.3906C59.375 25.5859 58.7891 25.3906 58.3984 25C58.3984 25 56.4453 23.4375 53.7109 23.4375C52.3438 23.4375 51.5625 25.7813 50.3906 29.4922C48.8281 34.7656 46.6797 42.1875 38.4766 42.9688Z" fill="black"/>
<path d="M93.9422 80.0781C86.911 80.0781 84.1766 78.7109 83.9813 78.7109C83.0048 78.3203 82.6141 77.1484 83.2001 76.1719C83.5907 75.1953 84.7626 74.8047 85.7391 75.3906C86.7157 75.9766 88.0829 76.3672 93.9422 76.3672C99.6063 76.3672 101.559 72.2656 101.559 68.5547C101.559 62.6953 98.6298 56.4453 97.2626 53.5156C96.0907 50.9766 96.286 47.8516 96.4813 44.7266C96.6766 41.7969 96.8719 38.8672 96.0907 35.9375C95.1141 32.0312 92.5751 29.1016 90.2313 26.5625C89.0594 25.3906 88.0829 24.2188 87.3016 23.0469C86.5204 21.875 85.7391 20.3125 84.9579 18.5547C82.4188 12.6953 79.2938 5.85938 70.3094 5.85938C62.8876 5.85938 60.1532 8.98438 60.1532 8.98438C59.5673 9.76562 58.2001 9.96094 57.4188 9.17969C56.6376 8.59375 56.4423 7.22656 57.0282 6.44531C57.2235 6.44531 60.7391 1.95312 70.3094 1.95312C81.8329 1.95312 85.9344 10.7422 88.6688 16.6016C89.4501 18.1641 90.036 19.5312 90.6219 20.3125C91.4032 21.2891 92.3798 22.4609 93.3563 23.4375C95.8954 26.3672 99.0204 29.6875 100.192 34.5703C100.974 38.0859 100.778 41.6016 100.583 44.5312C100.388 47.4609 100.192 49.8047 100.974 51.5625C102.536 54.8828 105.466 61.5234 105.466 68.1641C105.466 74.2188 101.95 80.0781 93.9422 80.0781Z" fill="black"/>
<path d="M31.0547 80.0781C23.0469 80.0781 19.5313 74.2188 19.5313 68.3594C19.5313 61.7188 22.6563 54.8828 24.0234 51.7578C24.8047 50.1953 24.6094 47.6562 24.4141 44.7266C24.2188 41.6016 24.0234 38.2812 24.8047 34.7656C25.9766 29.6875 28.9063 26.5625 31.6406 23.6328C32.6172 22.4609 33.5938 21.4844 34.375 20.5078C34.9609 19.5312 35.7422 18.1641 36.3281 16.7969C38.6719 11.5234 42.1875 3.90625 52.7344 3.90625C56.0547 3.90625 59.375 5.85938 59.5703 6.25C60.5469 6.83594 60.7422 8.00781 60.1562 8.98438C59.5703 9.96094 58.3984 10.1562 57.4219 9.57031C56.8359 8.98438 54.4922 7.8125 52.7344 7.8125C44.7266 7.8125 42.1875 13.2812 39.8438 18.3594C39.0625 19.9219 38.4766 21.4844 37.5 22.6562L34.5703 26.1719C32.2266 28.9062 29.6875 31.6406 28.7109 35.5469C28.125 38.4766 28.125 41.6016 28.3203 44.3359C28.5156 47.6562 28.7109 50.5859 27.5391 53.125C26.3672 56.25 23.4375 62.5 23.4375 68.3594C23.4375 72.0703 25.3906 76.1719 31.0547 76.1719C37.1094 76.1719 39.2578 75.1953 39.4531 75.1953C40.4297 74.8047 41.6016 75.1953 41.9922 76.1719C42.3828 77.1484 41.9922 78.3203 41.2109 78.7109C40.8203 78.7109 38.0859 80.0781 31.0547 80.0781Z" fill="black"/>
</svg>
