<svg width="38" height="32" viewBox="0 0 38 32" fill="none" xmlns="http://www.w3.org/2000/svg">
<path d="M28.4406 7.56363C27.9004 5.40408 26.6541 3.48693 24.8998 2.11659C23.1455 0.746255 20.9836 0.00129426 18.7575 1.68487e-06C16.5314 -0.00129089 14.3687 0.74116 12.6128 2.10946C10.8569 3.47775 9.60839 5.39346 9.06563 7.55238C6.50541 7.79265 4.13616 9.00994 2.44999 10.9514C0.763823 12.8929 -0.109643 15.4093 0.011026 17.9779C0.131695 20.5465 1.23722 22.9699 3.09797 24.7448C4.95872 26.5196 7.43166 27.5094 10.0031 27.5086H13.7531C14.0846 27.5086 14.4026 27.3769 14.637 27.1425C14.8714 26.9081 15.0031 26.5901 15.0031 26.2586C15.0031 25.9271 14.8714 25.6092 14.637 25.3747C14.4026 25.1403 14.0846 25.0086 13.7531 25.0086H10.0031C9.01821 25.0115 8.04238 24.8204 7.13133 24.4461C6.22029 24.0718 5.39189 23.5218 4.69342 22.8274C3.28279 21.425 2.48705 19.5196 2.48125 17.5305C2.47545 15.5414 3.26006 13.6314 4.66248 12.2208C6.0649 10.8102 7.97025 10.0144 9.95938 10.0086C10.2801 10.0328 10.5984 9.93692 10.8525 9.73967C11.1065 9.54243 11.2783 9.25784 11.3344 8.94113C11.5889 7.1562 12.4789 5.52303 13.8408 4.34154C15.2027 3.16006 16.9451 2.50958 18.7481 2.50958C20.5511 2.50958 22.2936 3.16006 23.6555 4.34154C25.0174 5.52303 25.9073 7.1562 26.1619 8.94113C26.2273 9.24684 26.3967 9.52039 26.6413 9.71507C26.8859 9.90976 27.1905 10.0135 27.5031 10.0086C29.4923 10.0086 31.3999 10.7988 32.8064 12.2053C34.213 13.6118 35.0031 15.5195 35.0031 17.5086C35.0031 19.4977 34.213 21.4054 32.8064 22.8119C31.3999 24.2185 29.4923 25.0086 27.5031 25.0086H23.7531C23.4216 25.0086 23.1037 25.1403 22.8692 25.3747C22.6348 25.6092 22.5031 25.9271 22.5031 26.2586C22.5031 26.5901 22.6348 26.9081 22.8692 27.1425C23.1037 27.3769 23.4216 27.5086 23.7531 27.5086H27.5031C30.0558 27.4819 32.5016 26.48 34.3393 24.7081C36.1771 22.9363 37.2676 20.5287 37.3874 17.9787C37.5073 15.4287 36.6474 12.9295 34.984 10.993C33.3205 9.05661 30.9795 7.82967 28.4406 7.56363Z" fill="#2B5CAB"/>
<path d="M24.1165 18.3913C24.3523 18.619 24.668 18.745 24.9958 18.7421C25.3235 18.7393 25.637 18.6078 25.8688 18.3761C26.1005 18.1443 26.232 17.8308 26.2349 17.503C26.2377 17.1753 26.1117 16.8595 25.884 16.6238L19.634 10.3738C19.3996 10.1395 19.0817 10.0078 18.7503 10.0078C18.4188 10.0078 18.1009 10.1395 17.8665 10.3738L11.6165 16.6238C11.3888 16.8595 11.2628 17.1753 11.2657 17.503C11.2685 17.8308 11.4 18.1443 11.6317 18.3761C11.8635 18.6078 12.177 18.7393 12.5048 18.7421C12.8325 18.745 13.1483 18.619 13.384 18.3913L17.5003 14.275V30.0075C17.5003 30.3391 17.632 30.657 17.8664 30.8914C18.1008 31.1259 18.4187 31.2575 18.7503 31.2575C19.0818 31.2575 19.3997 31.1259 19.6341 30.8914C19.8686 30.657 20.0003 30.3391 20.0003 30.0075V14.275L24.1165 18.3913Z" fill="#2B5CAB"/>
</svg>
