<svg width="125" height="125" viewBox="0 0 125 125" fill="none" xmlns="http://www.w3.org/2000/svg">
<path d="M117.188 93.75C116.67 93.75 116.173 93.9558 115.806 94.3221C115.44 94.6883 115.234 95.1851 115.234 95.7031V119.141C115.234 119.659 115.44 120.155 115.806 120.522C116.173 120.888 116.67 121.094 117.188 121.094C117.705 121.094 118.202 120.888 118.569 120.522C118.935 120.155 119.141 119.659 119.141 119.141V95.7031C119.141 95.1851 118.935 94.6883 118.569 94.3221C118.202 93.9558 117.705 93.75 117.188 93.75ZM52.7344 50.7812V50.5859C54.9386 50.1326 56.9192 48.9332 58.3424 47.1899C59.7654 45.4466 60.544 43.266 60.5469 41.0156C60.5454 40.0355 60.2977 39.0715 59.8264 38.2121C59.3551 37.3528 58.6753 36.6257 57.8496 36.0977C59.61 33.518 60.5501 30.4668 60.5469 27.3438V17.5781C60.5469 17.0601 60.3411 16.5633 59.9748 16.1971C59.6085 15.8308 59.1118 15.625 58.5938 15.625C58.0757 15.625 57.579 15.8308 57.2127 16.1971C56.8464 16.5633 56.6406 17.0601 56.6406 17.5781V27.3438C56.6423 30.2317 55.5687 33.0168 53.6289 35.1562H50.7812C48.6597 35.151 46.5682 34.6545 44.6706 33.7057C42.773 32.7569 41.1209 31.3816 39.8438 29.6875L38.6719 28.125C38.482 27.8943 38.2435 27.7085 37.9733 27.5809C37.7032 27.4534 37.4081 27.3872 37.1094 27.3872C36.8106 27.3872 36.5156 27.4534 36.2454 27.5809C35.9753 27.7085 35.7367 27.8943 35.5469 28.125L34.375 29.6875C33.0978 31.3816 31.4457 32.7569 29.5482 33.7057C27.6506 34.6545 25.5591 35.151 23.4375 35.1562H19.5312C18.8644 35.1627 18.2036 35.2843 17.5781 35.5156V35.1562C17.5828 31.0137 19.2305 27.0421 22.1597 24.1128C25.089 21.1836 29.0605 19.5359 33.2031 19.5312H50.7812C51.2993 19.5312 51.796 19.3255 52.1623 18.9592C52.5286 18.5929 52.7344 18.0961 52.7344 17.5781C52.7344 17.0601 52.5286 16.5633 52.1623 16.1971C51.796 15.8308 51.2993 15.625 50.7812 15.625H33.2031C28.0249 15.6307 23.0603 17.6903 19.3987 21.3519C15.7371 25.0134 13.6776 29.978 13.6719 35.1562V41.0156C13.6747 43.266 14.4533 45.4466 15.8764 47.1899C17.2995 48.9332 19.2801 50.1326 21.4844 50.5859V50.7812C21.4856 53.0012 21.9613 55.1951 22.8796 57.2162C23.7978 59.2373 25.1374 61.0388 26.8086 62.5H23.4375C23.3047 62.5 23.1641 62.5098 23.0312 62.5137C22.5983 61.3646 21.8262 60.3743 20.8174 59.6742C19.8086 58.9741 18.6107 58.5973 17.3828 58.5938H13.6719C11.0828 58.5969 8.6007 59.6267 6.76996 61.4575C4.93922 63.2882 3.90935 65.7703 3.90625 68.3594C3.91133 69.4405 4.21543 70.4991 4.78489 71.4181C5.35435 72.3371 6.16697 73.0806 7.13281 73.5664C6.2972 75.636 5.86496 77.8462 5.85938 80.0781V119.141C5.85938 119.659 6.06515 120.155 6.43143 120.522C6.79771 120.888 7.2945 121.094 7.8125 121.094C8.3305 121.094 8.82729 120.888 9.19357 120.522C9.55985 120.155 9.76562 119.659 9.76562 119.141V80.0781C9.77962 78.0476 10.2467 76.0458 11.1328 74.2188H13.6719C14.9188 74.2177 16.1329 73.8196 17.1383 73.0821C18.1437 72.3447 18.8882 71.3062 19.2637 70.1172C20.164 69.8679 20.989 69.4007 21.6658 68.7569C22.3427 68.1131 22.8506 67.3125 23.1445 66.4258C23.2422 66.4258 23.3398 66.4062 23.4375 66.4062H27.5391C28.021 68.7796 29.3676 70.8892 31.3174 72.3256C33.2673 73.7619 35.6813 74.4225 38.0908 74.1791C40.5003 73.9357 42.7335 72.8057 44.3567 71.0085C45.9799 69.2112 46.8774 66.8749 46.875 64.4531V62.959C48.7026 61.4987 50.1781 59.6458 51.1924 57.5378C52.2067 55.4298 52.7337 53.1206 52.7344 50.7812ZM17.5781 66.4062C17.0601 66.4062 16.5633 66.612 16.1971 66.9783C15.8308 67.3446 15.625 67.8414 15.625 68.3594C15.625 68.8774 15.4192 69.3742 15.0529 69.7404C14.6867 70.1067 14.1899 70.3125 13.6719 70.3125H9.76562C9.24762 70.3125 8.75084 70.1067 8.38456 69.7404C8.01828 69.3742 7.8125 68.8774 7.8125 68.3594C7.8125 66.8054 8.42983 65.315 9.52867 64.2162C10.6275 63.1173 12.1179 62.5 13.6719 62.5H17.3828C17.9526 62.5 18.4991 62.7264 18.902 63.1293C19.3049 63.5322 19.5312 64.0786 19.5312 64.6484C19.524 64.894 19.4671 65.1355 19.3639 65.3583C19.2607 65.5812 19.1133 65.7809 18.9307 65.9452C18.7482 66.1095 18.5342 66.2351 18.3017 66.3143C18.0692 66.3936 17.823 66.4248 17.5781 66.4062ZM52.7344 46.541V39.0625H54.6875C55.2055 39.0625 55.7023 39.2683 56.0686 39.6346C56.4349 40.0008 56.6406 40.4976 56.6406 41.0156C56.6391 42.2271 56.2629 43.4085 55.5636 44.3977C54.8642 45.3869 53.876 46.1356 52.7344 46.541ZM17.5781 41.0156C17.5781 40.4976 17.7839 40.0008 18.1502 39.6346C18.5165 39.2683 19.0132 39.0625 19.5312 39.0625H21.4844V46.541C20.3428 46.1356 19.3545 45.3869 18.6552 44.3977C17.9558 43.4085 17.5796 42.2271 17.5781 41.0156ZM25.3906 50.7812V38.9512C29.9865 38.4272 34.1938 36.1223 37.1094 32.5312C40.025 36.1223 44.2323 38.4272 48.8281 38.9512V50.7812C48.8281 53.8893 47.5935 56.87 45.3958 59.0677C43.1981 61.2654 40.2174 62.5 37.1094 62.5C34.0014 62.5 31.0207 61.2654 28.823 59.0677C26.6253 56.87 25.3906 53.8893 25.3906 50.7812ZM37.1094 70.3125C35.7041 70.3067 34.3476 69.7959 33.2875 68.8734C32.2273 67.9509 31.534 66.6781 31.334 65.2871C35.0397 66.7794 39.1791 66.7794 42.8848 65.2871C42.6848 66.6781 41.9915 67.9509 40.9313 68.8734C39.8711 69.7959 38.5147 70.3067 37.1094 70.3125Z" fill="black"/>
<path d="M121.096 68.3599C121.093 65.7708 120.063 63.2887 118.232 61.458C116.401 59.6272 113.919 58.5974 111.33 58.5943H107.619C106.394 58.5971 105.199 58.9722 104.192 59.6698C103.185 60.3674 102.414 61.3546 101.98 62.5005H100.15C101.821 61.039 103.16 59.2373 104.077 57.2162C104.995 55.1952 105.47 53.0014 105.471 50.7818V50.5865C107.675 50.1331 109.656 48.9338 111.079 47.1905C112.502 45.4472 113.28 43.2665 113.283 41.0161C113.281 40.1932 113.104 39.3801 112.765 38.6304C112.425 37.8807 111.931 37.2114 111.314 36.6665C111.24 32.6063 110.007 28.6518 107.762 25.2681C107.475 24.8366 107.029 24.5367 106.521 24.4343C106.013 24.3319 105.485 24.4355 105.054 24.7222C104.622 25.0089 104.322 25.4553 104.22 25.9631C104.118 26.471 104.221 26.9987 104.508 27.4302C106.036 29.7471 106.987 32.3966 107.281 35.1568H98.1309C95.7594 35.1634 93.4103 34.6995 91.2193 33.7919C89.0284 32.8844 87.0393 31.5512 85.3672 29.8697C85.0348 29.5372 84.5936 29.3359 84.1247 29.3025C83.6558 29.2691 83.1906 29.406 82.8145 29.688L75.5234 35.1568H72.3828C72.8672 30.8625 74.9149 26.8966 78.1354 24.015C81.3559 21.1334 85.5242 19.5376 89.8457 19.5318C93.2896 19.5257 96.658 20.5404 99.5254 22.4478C99.9569 22.7345 100.485 22.8381 100.992 22.7357C101.5 22.6333 101.947 22.3334 102.233 21.9019C102.52 21.4704 102.624 20.9427 102.521 20.4348C102.419 19.927 102.119 19.4806 101.688 19.1939C98.4839 17.0717 94.7691 15.8488 90.9313 15.6529C87.0935 15.457 83.2736 16.2954 79.8705 18.0805C76.4675 19.8655 73.6063 22.5317 71.5859 25.8004C69.5654 29.0692 68.4599 32.8206 68.3848 36.6626C67.7656 37.2068 67.2692 37.8763 66.9285 38.6269C66.5877 39.3774 66.4104 40.1919 66.4082 41.0161C66.411 43.2665 67.1896 45.4472 68.6127 47.1905C70.0358 48.9338 72.0164 50.1331 74.2207 50.5865V50.7818C74.223 54.2593 75.3922 57.6355 77.541 60.3697L76.5977 60.1743C71.2504 59.0965 65.7152 59.4222 60.5312 61.1197C57.752 62.0285 54.846 62.49 51.9219 62.4868C51.4039 62.4868 50.9071 62.6926 50.5408 63.0589C50.1745 63.4252 49.9688 63.922 49.9688 64.44C49.9688 64.958 50.1745 65.4548 50.5408 65.821C50.9071 66.1873 51.4039 66.3931 51.9219 66.3931C55.2593 66.396 58.5761 65.8686 61.748 64.8306C65.5532 63.5907 69.582 63.1909 73.5566 63.6587C70.9689 64.8502 68.8658 66.8899 67.5957 69.44C66.8821 70.8807 65.7786 72.0924 64.4107 72.9372C63.0427 73.7821 61.4652 74.2263 59.8574 74.2193H58.5957C58.0777 74.2193 57.5809 74.425 57.2146 74.7913C56.8484 75.1576 56.6426 75.6544 56.6426 76.1724V119.141C56.6426 119.659 56.8484 120.156 57.2146 120.522C57.5809 120.888 58.0777 121.094 58.5957 121.094C59.1137 121.094 59.6105 120.888 59.9768 120.522C60.3431 120.156 60.5488 119.659 60.5488 119.141V90.6255C62.2929 91.4458 63.769 92.7434 64.806 94.3681C65.843 95.9927 66.3985 97.8778 66.4082 99.8052V119.141C66.4082 119.659 66.614 120.156 66.9803 120.522C67.3465 120.888 67.8433 121.094 68.3613 121.094C68.8793 121.094 69.3761 120.888 69.7424 120.522C70.1087 120.156 70.3145 119.659 70.3145 119.141V99.8052C70.3075 96.8251 69.3596 93.9233 67.6059 91.5138C65.8522 89.1043 63.3824 87.3101 60.5488 86.3872V78.1079C62.7632 77.9949 64.9074 77.294 66.7611 76.0774C68.6147 74.8609 70.1109 73.1726 71.0957 71.1861C71.8082 69.7477 72.9092 68.5376 74.2741 67.6929C75.639 66.8482 77.2132 66.4027 78.8184 66.4068H80.2754C80.7237 68.6144 81.9213 70.5991 83.6655 72.0247C85.4097 73.4503 87.5931 74.2291 89.8457 74.2291C92.0984 74.2291 94.2817 73.4503 96.0259 72.0247C97.7701 70.5991 98.9677 68.6144 99.416 66.4068H101.854C102.15 67.2892 102.659 68.0855 103.335 68.726C104.011 69.3664 104.833 69.8315 105.73 70.0806C106.1 71.2776 106.843 72.325 107.851 73.0696C108.858 73.8143 110.077 74.2171 111.33 74.2193H115.016C115.156 74.861 115.23 75.5155 115.236 76.1724V87.8911C115.236 88.4091 115.442 88.9059 115.808 89.2722C116.175 89.6385 116.671 89.8443 117.189 89.8443C117.707 89.8443 118.204 89.6385 118.571 89.2722C118.937 88.9059 119.143 88.4091 119.143 87.8911V76.1724C119.138 75.1085 119.007 74.0489 118.752 73.0161C119.477 72.475 120.066 71.7726 120.473 70.9644C120.88 70.1563 121.093 69.2646 121.096 68.3599ZM105.471 46.5415V39.063H107.424C107.942 39.063 108.439 39.2688 108.805 39.6351C109.171 40.0014 109.377 40.4981 109.377 41.0161C109.375 42.2276 108.999 43.409 108.3 44.3982C107.601 45.3874 106.612 46.1361 105.471 46.5415ZM83.8555 33.7896C87.8256 37.2057 92.8933 39.0777 98.1309 39.063H101.564V50.7818C101.564 53.8898 100.33 56.8705 98.1321 59.0682C95.9344 61.2659 92.9537 62.5005 89.8457 62.5005C86.7377 62.5005 83.757 61.2659 81.5593 59.0682C79.3616 56.8705 78.127 53.8898 78.127 50.7818V38.0865L83.8555 33.7896ZM70.3145 41.0161C70.3145 40.4981 70.5202 40.0014 70.8865 39.6351C71.2528 39.2688 71.7496 39.063 72.2676 39.063H74.2207V46.5415C73.0791 46.1361 72.0908 45.3874 71.3915 44.3982C70.6921 43.409 70.3159 42.2276 70.3145 41.0161ZM89.8457 70.313C88.4404 70.3072 87.084 69.7964 86.0238 68.874C84.9636 67.9515 84.2703 66.6786 84.0703 65.2876C87.776 66.7799 91.9154 66.7799 95.6211 65.2876C95.4211 66.6786 94.7278 67.9515 93.6676 68.874C92.6074 69.7964 91.251 70.3072 89.8457 70.313ZM109.377 68.3599C109.333 67.8225 109.087 67.3218 108.688 66.9592C108.289 66.5965 107.768 66.3991 107.229 66.4068C106.762 66.4068 106.315 66.2216 105.986 65.8919C105.656 65.5623 105.471 65.1152 105.471 64.6489C105.471 64.0791 105.697 63.5327 106.1 63.1298C106.503 62.7269 107.049 62.5005 107.619 62.5005H111.33C112.884 62.5005 114.374 63.1178 115.473 64.2167C116.572 65.3155 117.189 66.8059 117.189 68.3599C117.189 68.8779 116.984 69.3747 116.617 69.741C116.251 70.1072 115.754 70.313 115.236 70.313H111.33C110.812 70.313 110.315 70.1072 109.949 69.741C109.583 69.3747 109.377 68.8779 109.377 68.3599Z" fill="black"/>
<path d="M105.469 85.9375C104.951 85.9375 104.454 86.1433 104.088 86.5096C103.721 86.8758 103.516 87.3726 103.516 87.8906V119.141C103.516 119.659 103.721 120.155 104.088 120.522C104.454 120.888 104.951 121.094 105.469 121.094C105.987 121.094 106.484 120.888 106.85 120.522C107.216 120.155 107.422 119.659 107.422 119.141V87.8906C107.422 87.3726 107.216 86.8758 106.85 86.5096C106.484 86.1433 105.987 85.9375 105.469 85.9375ZM19.5312 83.9844C19.0132 83.9844 18.5165 84.1901 18.1502 84.5564C17.7839 84.9227 17.5781 85.4195 17.5781 85.9375V119.141C17.5781 119.659 17.7839 120.155 18.1502 120.522C18.5165 120.888 19.0132 121.094 19.5312 121.094C20.0493 121.094 20.546 120.888 20.9123 120.522C21.2786 120.155 21.4844 119.659 21.4844 119.141V85.9375C21.4844 85.4195 21.2786 84.9227 20.9123 84.5564C20.546 84.1901 20.0493 83.9844 19.5312 83.9844Z" fill="black"/>
</svg>
