<svg width="30" height="30" viewBox="0 0 30 30" fill="none" xmlns="http://www.w3.org/2000/svg">
<path d="M12.5 22.5003V18.7503C12.5 18.0873 12.7634 17.4514 13.2322 16.9826C13.7011 16.5137 14.337 16.2503 15 16.2503C15.663 16.2503 16.2989 16.5137 16.7678 16.9826C17.2366 17.4514 17.5 18.0873 17.5 18.7503V22.5003M2.5 10.0003L14.665 3.91784C14.769 3.8659 14.8837 3.83887 15 3.83887C15.1163 3.83887 15.231 3.8659 15.335 3.91784L27.5 10.0003" stroke="white" stroke-width="1.5" stroke-linecap="round" stroke-linejoin="round"/>
<path d="M25 13.75V23.75C25 24.413 24.7366 25.0489 24.2678 25.5178C23.7989 25.9866 23.163 26.25 22.5 26.25H7.5C6.83696 26.25 6.20107 25.9866 5.73223 25.5178C5.26339 25.0489 5 24.413 5 23.75V13.75" stroke="white" stroke-width="1.5" stroke-linecap="round" stroke-linejoin="round"/>
</svg>
