<svg xmlns="http://www.w3.org/2000/svg" width="12" height="12" viewBox="0 0 12 12" fill="none">
    <g clip-path="url(#clip0_5704_6054)">
        <path d="M10.2301 1.76992C7.90367 -0.576076 4.11591 -0.59192 1.76992 1.73449C-0.576076 4.06091 -0.59192 7.84868 1.73449 10.1947C1.74625 10.2065 1.75805 10.2183 1.76992 10.2301C4.09636 12.5761 7.88411 12.5919 10.2301 10.2655C12.5761 7.93907 12.5919 4.15132 10.2655 1.80535C10.2538 1.79348 10.242 1.78168 10.2301 1.76992ZM5.99999 11.1564C3.15678 11.1564 0.843644 8.84324 0.843644 6.00003C0.843644 3.15683 3.15678 0.843691 5.99999 0.843691C8.84319 0.843691 11.1563 3.15683 11.1563 6.00003C11.1563 8.84324 8.84319 11.1564 5.99999 11.1564Z" fill="#1D1D1D"/>
        <path d="M6.933 8.40913H6.41214V4.87775C6.41214 4.64968 6.22725 4.46476 5.99916 4.46476H5.06533C4.83726 4.46476 4.65234 4.64965 4.65234 4.87775C4.65234 5.10583 4.83723 5.29074 5.06533 5.29074H5.58619V8.40913H5.06533C4.83726 8.40913 4.65234 8.59402 4.65234 8.82212C4.65234 9.05019 4.83723 9.23511 5.06533 9.23511H6.93298C7.16105 9.23511 7.34597 9.05022 7.34597 8.82212C7.34599 8.59402 7.16108 8.40913 6.933 8.40913ZM5.99918 4.04334C6.22725 4.04334 6.41217 3.85845 6.41217 3.63035V3.17861C6.41217 2.95054 6.22728 2.76562 5.99918 2.76562C5.7711 2.76562 5.58619 2.95052 5.58619 3.17861V3.63035C5.58619 3.85845 5.7711 4.04334 5.99918 4.04334Z" fill="#1D1D1D"/>
    </g>
    <defs>
        <clipPath id="clip0_5704_6054">
            <rect width="12" height="12" fill="white"/>
        </clipPath>
    </defs>
</svg>