<svg id="SvgjsSvg1001" width="360" height="360" xmlns="http://www.w3.org/2000/svg" version="1.1" xmlns:xlink="http://www.w3.org/1999/xlink" xmlns:svgjs="http://svgjs.com/svgjs"><defs id="SvgjsDefs1002"></defs><g id="SvgjsG1008"><svg xmlns="http://www.w3.org/2000/svg" enable-background="new 0 0 2700 2025" viewBox="0 0 2700 2025" width="360" height="360"><path fill="#c4def0" d="M2436.2,1466c-10.4,14.9-21.7,29.2-33.9,42.9c-3.5,4-7.2,8-10.9,11.9c-54.8,58-115.7,111.7-181.7,160.4
	c-34.5,25.4-70.3,49.5-107.4,72c-14,8.5-28.1,16.8-42.5,24.9c-40.3,22.7-84.4,45.1-131.3,56.9c0,0-0.1,0-0.1,0
	c-8.4,2.1-16.8,3.9-25.3,5.2c-11.6,1.9-23.3,3-35.2,3.2c-2.9,0.1-5.8,0.1-8.7,0.1c-28.9-0.1-57.8-4-86.7-9.3c-1.5-0.3-3-0.6-4.5-0.8
	c-1.5-0.3-3-0.6-4.5-0.9c-2.7-0.5-5.5-1.1-8.2-1.6c-3.9-0.8-7.8-1.6-11.7-2.4c-24.6-5.1-49.2-10.8-73.5-15.5
	c-0.3-0.1-0.5-0.1-0.8-0.2c-1.2-0.2-2.5-0.5-3.7-0.7c-0.2,0-0.5-0.1-0.7-0.1c-2.3-0.4-4.6-0.8-6.9-1.3c-1.2-0.2-2.3-0.4-3.5-0.6
	c-0.3,0-0.6-0.1-0.8-0.1c-5.6-1-11.3-1.9-16.9-2.7c-0.4-0.1-0.8-0.1-1.2-0.2c-1.1-0.2-2.1-0.3-3.2-0.5c-4.3-0.6-8.6-1.2-12.8-1.7
	c-0.4-0.1-0.9-0.1-1.3-0.2c-0.6-0.1-1.2-0.1-1.7-0.2c-3.9-0.5-7.9-0.9-11.8-1.3c-0.5-0.1-1.1-0.1-1.6-0.2c-4-0.4-8.1-0.8-12.1-1.2
	c-3.7-0.3-7.4-0.7-11.2-1c-0.1,0-0.1,0-0.1,0c-2.4-0.2-4.8-0.4-7.2-0.5c-10.1-0.7-20.2-1.3-30.2-1.7c-1.4-0.1-2.8-0.1-4.1-0.1
	c-2.7-0.1-5.4-0.2-8.1-0.3c-8.8-0.3-17.6-0.4-26.4-0.4c-4.6,0-9.1,0-13.6,0c-13.3,0.1-26.6,0.4-39.9,1
	c-86.6,3.5-173.1,15.5-258.8,28.5c-7.6,1.1-15.1,2.3-22.7,3.5c-0.2,0-0.4,0.1-0.6,0.1c-8.5,1.3-16.9,2.6-25.4,3.9
	c-2.5,0.4-4.9,0.8-7.4,1.1c-1.1,0.2-2.2,0.3-3.2,0.5c-6.1,0.9-12.2,1.9-18.3,2.8c-0.7,0.1-1.3,0.2-2,0.3h0c-0.5,0.1-1,0.1-1.4,0.2
	c0,0-0.1,0-0.1,0c-0.7,0.1-1.4,0.2-2.1,0.3c-0.2,0-0.3,0-0.5,0.1c-5.9,0.9-11.8,1.8-17.8,2.7c-2.5,0.4-5,0.8-7.6,1.1
	c-1.2,0.2-2.3,0.3-3.5,0.5c-0.6,0.1-1.1,0.2-1.7,0.3c-2.8,0.4-5.6,0.8-8.4,1.2c-1,0.1-2,0.3-3,0.4c-4,0.6-8,1.1-12.1,1.6
	c-1.5,0.2-3,0.4-4.5,0.6c-11.7,1.5-23.4,2.8-35.2,3.9c-36.3,3.4-72.9,4.7-109,2.2c-12.3-0.8-24.5-2.1-36.7-4
	c-0.9-0.1-1.8-0.3-2.6-0.4c-8.8-1.4-17.7-3-26.4-5c-4.5-1-9-2-13.5-3h0c-15.2-3.4-30.2-6.9-45-10.4c-5.1-1.2-10.2-2.5-15.3-3.7
	c-39.9-9.9-77.7-20.5-112.3-33c-84-30.2-149-70.9-177.9-136.5c-7.1-16.1-12-33.7-14.5-53c-3.4-26.2-13.1-67.6-26.9-106
	c-11.9-32.9-26.8-63.8-43.5-81c-47.7-49.6-90.5-100.2-125-154.3c-4.5-7.1-8.9-14.3-13.2-21.6c-52.1-89-81.5-187.8-74.2-306.6
	c0.4-7.2,1-14.4,1.7-21.7c14.9-154.1,146.5-325.9,347.5-307c106.1,10,188.7-9.4,267.8-70.8c90.7-70.3,160.6-158,279.6-196.5
	c31-10,63.1-16,95.8-19c55.6-5.2,112.8-1.8,168.6,5.4c4.5,0.6,9,1.2,13.5,1.8c59.8,8.3,119.1,21.4,178.9,30.2
	c12.4,1.9,24.9,3.5,37.5,5c5.5,0.6,11,1.2,16.6,1.7c35.1,3.3,68.2,2.4,100.8,1.5c59.3-1.7,116.5-3.8,179.7,17.6
	c1.3,0.4,2.5,0.9,3.8,1.3c32.2,11.4,62.8,26.2,90.8,44c46.3,29.4,85.5,67.1,112.5,111.1c55.2,89.8,35.6,159.7,84.1,248
	c2.3,4.2,4.7,8.4,7.4,12.6c42.6,69.3,135.6,96.3,207.6,144.3c8.2,5.5,16.1,11.2,23.7,17.3c9,7.3,17.5,15.1,25.3,23.6
	c2.5,2.8,5,5.6,7.4,8.5C2551.6,1146.6,2532.3,1328.8,2436.2,1466z" class="colorC4DEF0 svgShape"></path><polygon fill="#ffffff" points="491.1 655.7 847.1 652.2 853.1 1269.5 407.8 1273.8 402.5 733.4" class="colorFFF svgShape"></polygon><path fill="#3660a1" d="M859.2,1275.4l-457.3,4.5l-5.4-549.3l92.3-80.9l364.2-3.6L859.2,1275.4z M413.8,1267.8l433.3-4.2
		l-5.9-605.2l-347.7,3.4l-84.8,74.4L413.8,1267.8z" class="color3660A1 svgShape"></path><polygon fill="#3660a1" points="491.1 655.7 491.9 738.6 402.5 733.4" class="color3660A1 svgShape"></polygon><rect width="192.8" height="21.5" x="475.9" y="781.8" fill="#c4def0" transform="matrix(1 -.00978 .00978 1 -7.725 5.636)" class="colorC4DEF0 svgShape"></rect><rect width="192.8" height="21.5" x="475.9" y="821.8" fill="#c4def0" transform="matrix(1 -.00978 .00978 1 -8.116 5.638)" class="colorC4DEF0 svgShape"></rect><rect width="192.8" height="21.5" x="475.9" y="905.5" fill="#c4def0" transform="matrix(1 -.00978 .00978 1 -8.935 5.642)" class="colorC4DEF0 svgShape"></rect><rect width="192.8" height="21.5" x="475.9" y="945.5" fill="#c4def0" transform="matrix(1 -.00978 .00978 1 -9.326 5.643)" class="colorC4DEF0 svgShape"></rect><rect width="192.8" height="21.5" x="475.9" y="1029.2" fill="#c4def0" transform="matrix(1 -.00978 .00978 1 -10.145 5.647)" class="colorC4DEF0 svgShape"></rect><rect width="192.8" height="21.5" x="475.9" y="1069.2" fill="#c4def0" transform="matrix(1 -.00978 .00978 1 -10.537 5.65)" class="colorC4DEF0 svgShape"></rect><rect width="192.8" height="21.5" x="475.9" y="1153" fill="#c4def0" transform="matrix(1 -.00978 .00978 1 -11.355 5.654)" class="colorC4DEF0 svgShape"></rect><rect width="192.8" height="21.5" x="475.9" y="1193" fill="#c4def0" transform="matrix(1 -.00978 .00978 1 -11.747 5.655)" class="colorC4DEF0 svgShape"></rect><path fill="#f35450" d="M781.2,846.6h-84.5v-84.5h84.5V846.6z M701.7,841.7h74.6v-74.6h-74.6V841.7z" class="colorF35450 svgShape"></path><polygon fill="#f35450" points="736.2 811.6 711.7 789.1 715 785.5 736.1 804.7 788.4 752.4 791.9 755.9" class="colorF35450 svgShape"></polygon><path fill="#f35450" d="M781.2,970.3h-84.5v-84.5h84.5V970.3z M701.7,965.4h74.6v-74.6h-74.6V965.4z" class="colorF35450 svgShape"></path><polygon fill="#f35450" points="736.2 935.3 711.7 912.9 715 909.2 736.1 928.4 788.4 876.1 791.9 879.6" class="colorF35450 svgShape"></polygon><path fill="#f35450" d="M781.2,1094.1h-84.5v-84.5h84.5V1094.1z M701.7,1089.1h74.6v-74.6h-74.6V1089.1z" class="colorF35450 svgShape"></path><polygon fill="#f35450" points="736.2 1059 711.7 1036.6 715 1032.9 736.1 1052.2 788.4 999.9 791.9 1003.4" class="colorF35450 svgShape"></polygon><path fill="#f35450" d="M781.2,1217.8h-84.5v-84.5h84.5V1217.8z M701.7,1212.8h74.6v-74.6h-74.6V1212.8z" class="colorF35450 svgShape"></path><polygon fill="#f35450" points="736.2 1182.8 711.7 1160.3 715 1156.7 736.1 1175.9 788.4 1123.6 791.9 1127.1" class="colorF35450 svgShape"></polygon><path fill="#3660a1" d="M2111.5,1239v310.7c0,20.1-16.3,36.4-36.4,36.4h-527.5c-20.1,0-36.4-16.3-36.4-36.4V1239
		c0-20.1,16.3-36.4,36.4-36.4h527.5C2095.2,1202.5,2111.5,1218.8,2111.5,1239z" class="color3660A1 svgShape"></path><rect width="600.3" height="61.7" x="1511.2" y="1429.9" fill="#7c94d1" class="color7C94D1 svgShape"></rect><path fill="#7c94d1" d="M1647.2,1391.2h-68.8c-11.2,0-20.2-9-20.2-20.2V1334c0-11.2,9-20.2,20.2-20.2h68.8
			c11.2,0,20.2,9,20.2,20.2v37.1C1667.4,1382.2,1658.4,1391.2,1647.2,1391.2z" class="color7C94D1 svgShape"></path><path fill="#ffffff" d="M1622.3,1365.2h-18.8c-4.6,0-8.4-3.8-8.4-8.4v-8.4c0-4.6,3.8-8.4,8.4-8.4h18.8c4.6,0,8.4,3.8,8.4,8.4v8.4
				C1630.7,1361.4,1626.9,1365.2,1622.3,1365.2z M1603.4,1341.8c-3.6,0-6.5,2.9-6.5,6.5v8.4c0,3.6,2.9,6.5,6.5,6.5h18.8
				c3.6,0,6.5-2.9,6.5-6.5v-8.4c0-3.6-2.9-6.5-6.5-6.5H1603.4z" class="colorFFF svgShape"></path><rect width="1.9" height="27" x="1611.9" y="1313.8" fill="#ffffff" class="colorFFF svgShape"></rect><rect width="1.9" height="27" x="1611.9" y="1364.2" fill="#ffffff" class="colorFFF svgShape"></rect><rect width="37.7" height="1.9" x="1629.8" y="1351.5" fill="#ffffff" class="colorFFF svgShape"></rect><rect width="37.7" height="1.9" x="1558.3" y="1351.5" fill="#ffffff" class="colorFFF svgShape"></rect><polygon fill="#e6e6e6" points="2111.5 1320.5 2111.5 1377.7 1882.4 1202.5 1957.3 1202.5" class="colorE6E6E6 svgShape"></polygon><polygon fill="#e6e6e6" points="2111.5 1302.5 2111.5 1312.3 1968 1202.5 1980.8 1202.5" class="colorE6E6E6 svgShape"></polygon><polygon fill="#e6e6e6" points="2111.5 1389.2 2111.5 1399 1854.6 1202.5 1867.5 1202.5" class="colorE6E6E6 svgShape"></polygon><polygon fill="#7c94d1" points="2023.9 1535.6 2071.6 1563.1 2071.6 1508" class="color7C94D1 svgShape"></polygon><g><path fill="#3660a1" d="M2107.7,803.6v306.7c0,19.9-16.1,36-36,36H1551c-19.9,0-36-16.1-36-36V803.6c0-19.9,16.1-36,36-36h520.7
		C2091.6,767.6,2107.7,783.7,2107.7,803.6z" class="color3660A1 svgShape"></path><path fill="#7c94d1" d="M2019.1,893.5h-49c-11.2,0-20.2-9-20.2-20.2v-23c0-11.2,9-20.2,20.2-20.2h49c11.2,0,20.2,9,20.2,20.2v23
			C2039.3,884.5,2030.2,893.5,2019.1,893.5z" class="color7C94D1 svgShape"></path><path fill="#ffffff" d="M2002.3,872.2h-15.4c-3.8,0-6.9-3.1-6.9-6.9v-6.9c0-3.8,3.1-6.9,6.9-6.9h15.4c3.8,0,6.9,3.1,6.9,6.9v6.9
				C2009.2,869.1,2006.1,872.2,2002.3,872.2z M1986.9,853.1c-2.9,0-5.3,2.4-5.3,5.3v6.9c0,2.9,2.4,5.3,5.3,5.3h15.4
				c2.9,0,5.3-2.4,5.3-5.3v-6.9c0-2.9-2.4-5.3-5.3-5.3H1986.9z" class="colorFFF svgShape"></path><rect width="1.6" height="22.1" x="1993.8" y="830.2" fill="#ffffff" class="colorFFF svgShape"></rect><rect width="1.6" height="22.1" x="1993.8" y="871.4" fill="#ffffff" class="colorFFF svgShape"></rect><rect width="30.8" height="1.6" x="2008.4" y="861.1" fill="#ffffff" class="colorFFF svgShape"></rect><rect width="30.8" height="1.6" x="1949.9" y="861.1" fill="#ffffff" class="colorFFF svgShape"></rect><rect width="217.6" height="252.1" x="1565.8" y="830.9" fill="#7c94d1" transform="matrix(-1 -.00978 .00978 -1 3339.77 1930.222)" class="color7C94D1 svgShape"></rect><path fill="#3660a1" d="M1598.9,1063.7l0-4c0.4-41.8,34.6-75.3,76.4-74.9l0,0c41.8,0.4,75.3,34.6,74.9,76.4l0,4L1598.9,1063.7z" class="color3660A1 svgShape"></path><path fill="#ebecf2" d="M1625.6,919.4c1.5,26.3,24.6,55.2,50.9,53.6c26.3-1.5,45.9-32.8,44.4-59.2
					c-1.5-26.3-24.1-46.4-50.4-44.9C1644.2,870.5,1624.1,893.1,1625.6,919.4z" class="colorEBECF2 svgShape"></path><path fill="#ebecf2" d="M1673 1015L1673 1015c11.7.1 21.3-9.3 21.4-21l.3-30.6-42.4-.4-.3 30.6C1652 1005.3 1661.3 1014.9 1673 1015zM1718.6 922.6c0 0 3.4-8.3 7.8-1.6 4.4 6.7-2.7 28-10.6 19.7L1718.6 922.6zM1628.7 922.6c0 0-3.4-8.3-7.8-1.6-4.4 6.7 2.7 28 10.6 19.7L1628.7 922.6z" class="colorEBECF2 svgShape"></path><path fill="#3660a1" d="M1703.3 890.2c0 0-42.9 26.2-69.2 10.5l-2.7 17.6 2 17.5c0 0-4.8-16.2-7.9-16.4-3.1-.3-6.2 1.2-6 5.4 0 0-17.1-84.3 79-65.6L1703.3 890.2zM1698.5 859.2c0 0 37.1 16.4 27.9 61.8 0 0-1.1-3.4-5.5-1.8l-4 14.6c0 0 2.4-40.5-13.6-43.6L1698.5 859.2z" class="color3660A1 svgShape"></path><rect width="111" height="15.8" x="1811.3" y="835.4" fill="#7c94d1" class="color7C94D1 svgShape"></rect><rect width="111" height="15.8" x="1811.3" y="872.8" fill="#7c94d1" class="color7C94D1 svgShape"></rect><rect width="253.3" height="15.8" x="1811.3" y="910.2" fill="#7c94d1" class="color7C94D1 svgShape"></rect><rect width="253.3" height="15.8" x="1811.3" y="942.6" fill="#7c94d1" class="color7C94D1 svgShape"></rect><rect width="253.3" height="15.8" x="1811.3" y="975" fill="#7c94d1" class="color7C94D1 svgShape"></rect><rect width="116.2" height="15.8" x="1811.3" y="1007.4" fill="#7c94d1" class="color7C94D1 svgShape"></rect><rect width="253.3" height="15.8" x="1811.3" y="1039.8" fill="#7c94d1" class="color7C94D1 svgShape"></rect><rect width="253.3" height="15.8" x="1811.3" y="1072.3" fill="#7c94d1" class="color7C94D1 svgShape"></rect></g><g><path fill="#3660a1" d="M1050.5,1605c-135.8,5.5-271.8,5.5-407.6,0c-19.2-0.8-34.7-17.1-34.7-36.2c0-179.8,0-359.6,0-539.5
		c0-19.2,15.5-35.5,34.7-36.2c135.8-5.5,271.8-5.5,407.6,0c19.2,0.8,34.7,17.1,34.7,36.2c0,179.8,0,359.6,0,539.5
		C1085.2,1588,1069.7,1604.3,1050.5,1605z" class="color3660A1 svgShape"></path><path fill="#ffffff" d="M674.6 1064c3.5-.6 8-1.1 13.8-1.1 7.1 0 12.3 1.7 15.6 4.6 3.1 2.6 4.9 6.7 4.9 11.7 0 5-1.5 9-4.3 11.9-3.8 4.1-10 6.1-17 6.1-2.2 0-4.1-.1-5.8-.5v22.3h-7.2V1064zM681.8 1090.9c1.6.4 3.6.6 6 .6 8.7 0 14-4.2 14-11.9 0-7.4-5.2-10.9-13.2-10.9-3.1 0-5.5.2-6.8.6V1090.9zM720.7 1101.6l-5.8 17.5h-7.4l18.9-55.8h8.7l19 55.8h-7.7l-6-17.5H720.7zM739 1096l-5.5-16.1c-1.2-3.6-2.1-7-2.9-10.2h-.2c-.8 3.3-1.7 6.7-2.8 10.1l-5.5 16.1H739zM761.3 1110.4c3.2 2 7.9 3.6 12.9 3.6 7.4 0 11.7-3.9 11.7-9.5 0-5.2-3-8.2-10.5-11.1-9.1-3.2-14.7-7.9-14.7-15.8 0-8.7 7.2-15.1 18-15.1 5.7 0 9.8 1.3 12.3 2.7l-2 5.9c-1.8-1-5.5-2.6-10.6-2.6-7.6 0-10.5 4.6-10.5 8.4 0 5.2 3.4 7.8 11.1 10.8 9.4 3.6 14.2 8.2 14.2 16.4 0 8.6-6.4 16.1-19.5 16.1-5.4 0-11.3-1.6-14.2-3.6L761.3 1110.4zM802.1 1110.4c3.2 2 7.9 3.6 12.9 3.6 7.4 0 11.7-3.9 11.7-9.5 0-5.2-3-8.2-10.5-11.1-9.1-3.2-14.7-7.9-14.7-15.8 0-8.7 7.2-15.1 18-15.1 5.7 0 9.8 1.3 12.3 2.7l-2 5.9c-1.8-1-5.5-2.6-10.6-2.6-7.6 0-10.5 4.6-10.5 8.4 0 5.2 3.4 7.8 11.1 10.8 9.4 3.6 14.2 8.2 14.2 16.4 0 8.6-6.4 16.1-19.5 16.1-5.4 0-11.3-1.6-14.2-3.6L802.1 1110.4zM843.9 1064c3.5-.6 8-1.1 13.8-1.1 7.1 0 12.3 1.7 15.6 4.6 3.1 2.6 4.9 6.7 4.9 11.7 0 5-1.5 9-4.3 11.9-3.8 4.1-10 6.1-17 6.1-2.2 0-4.1-.1-5.8-.5v22.3h-7.2V1064zM851.1 1090.9c1.6.4 3.6.6 6 .6 8.7 0 14-4.2 14-11.9 0-7.4-5.2-10.9-13.2-10.9-3.1 0-5.5.2-6.8.6V1090.9zM935.6 1090.7c0 19.2-11.7 29.4-25.9 29.4-14.7 0-25.1-11.4-25.1-28.3 0-17.7 11-29.3 25.9-29.3C925.8 1062.5 935.6 1074.1 935.6 1090.7zM892.3 1091.6c0 11.9 6.5 22.6 17.8 22.6 11.4 0 17.9-10.5 17.9-23.2 0-11.1-5.8-22.7-17.8-22.7C898.3 1068.3 892.3 1079.3 892.3 1091.6zM945 1064.1c3.6-.7 8.9-1.2 13.8-1.2 7.7 0 12.7 1.4 16.1 4.6 2.8 2.5 4.4 6.3 4.4 10.6 0 7.4-4.6 12.2-10.5 14.2v.2c4.3 1.5 6.9 5.5 8.2 11.3 1.8 7.8 3.1 13.2 4.3 15.3h-7.4c-.9-1.6-2.2-6.4-3.7-13.3-1.7-7.7-4.6-10.6-11.2-10.8h-6.8v24.2H945V1064.1zM952.2 1089.5h7.4c7.7 0 12.6-4.2 12.6-10.6 0-7.2-5.2-10.3-12.8-10.4-3.5 0-6 .3-7.1.7V1089.5zM1000.8 1069.5h-17v-6.1h41.3v6.1h-17v49.6h-7.3V1069.5zM846.7 1205.1c-55.5 0-100.6 45.1-100.6 100.6 0 55.5 45.1 100.6 100.6 100.6 55.5 0 100.6-45.1 100.6-100.6C947.4 1250.2 902.2 1205.1 846.7 1205.1zM923.7 1350.9c-9.3.1-18.7.1-28 0-.2 0-.5-.1-1-.3 3.9-13.9 5.8-28.1 5.9-42.6 11.9 0 23.4 0 35.4 0C935.6 1323.7 931.2 1338.3 923.7 1350.9zM873.7 1390.9c8.4-9 14-19.7 18.1-31.3.7-2 1.6-2.7 3.7-2.6 8.1.1 16.2.1 24.3.1C908.7 1372.8 892.5 1384.9 873.7 1390.9zM849.2 1310.9c0-2.3.9-3 2.8-2.9 8.4.1 16.9.2 25.3.2 5 0 9.9-.1 14.9-.2.8 0 1.6.1 2.8.1-.2 3.9 0 7.7-.6 11.4-1.4 9.5-3.2 18.9-4.8 28.4-.4 2.3-1.3 3.3-4 3.2-11.2-.2-22.4-.1-33.6-.1-.9 0-1.7 0-3 0 0-1.3 0-2.3 0-3.2C849.2 1335.5 849.3 1323.2 849.2 1310.9zM849.3 1301c0-13.6 0-27.1 0-41.1 2.3 0 4.5 0 6.7 0 10 0 20.1 0 30.1 0 1.3 0 2.3 0 2.8 1.6 3.7 12.8 5.6 25.9 6 39.5C879.7 1301 864.6 1301 849.3 1301zM936 1301.2c-.1 0-.2 0-.3 0-11.6-.1-23.2 0-35 0-.3-14-2.3-27.6-6.1-41.1 1-.1 1.8-.2 2.5-.2 8.8 0 17.6 0 26.3 0C930.7 1272.1 935.2 1286.2 936 1301.2zM894 1254.1c-.8 0-1.8-1.4-2.2-2.3-3.8-10.2-8.5-19.7-15.5-28.1-.9-1.1-1.9-2.1-2.8-3.2 18.8 5.9 35 17.9 46.1 33.7C911 1254.2 902.5 1254.2 894 1254.1zM858.6 1217.1c5.3 2.6 9.7 6.5 13.5 11 6.4 7.6 10.7 16.2 14.3 25.7-.7.1-1.2.3-1.6.3-11.1 0-22.2 0-33.3 0-1.6 0-2.3-.4-2.3-2.2.1-11.9 0-23.8 0-35.6C852.4 1216.5 855.5 1216.7 858.6 1217.1zM844.3 1252c0 1.8-.7 2.2-2.3 2.2-11.1-.1-22.2 0-33.3 0-.5 0-.9-.2-1.6-.3 3.6-9.4 7.9-18.1 14.3-25.7 3.8-4.5 8.2-8.4 13.5-11 3.1-.4 6.2-.7 9.4-.8C844.3 1228.3 844.3 1240.1 844.3 1252zM832.9 1394c-11.9-7-21.9-22.8-25.9-36.7 12.4 0 24.7 0 37.1 0 0 12.7 0 25.2 0 37.8C840.4 1394.9 836.6 1394.5 832.9 1394zM773.6 1357c8.1 0 16.2.1 24.3-.1 2.1 0 3 .6 3.7 2.6 4.1 11.6 9.7 22.3 18.1 31.3C801 1384.9 784.8 1372.8 773.6 1357zM819.9 1220.4c-1 1-1.9 2.1-2.8 3.2-7 8.4-11.7 18-15.5 28.1-.3.9-1.4 2.3-2.2 2.3-8.5.1-16.9.1-25.6.1C785 1238.4 801.1 1226.4 819.9 1220.4zM844.3 1347.8c0 .9 0 1.9 0 3.2-1.3 0-2.2 0-3 0-11.2 0-22.4-.1-33.6.1-2.6 0-3.6-1-4-3.2-1.6-9.5-3.4-18.9-4.8-28.4-.6-3.7-.4-7.6-.6-11.4 1.2-.1 2-.1 2.8-.1 5 0 9.9.2 14.9.2 8.4 0 16.9-.1 25.3-.2 2 0 2.9.7 2.8 2.9C844.1 1323.2 844.3 1335.5 844.3 1347.8zM844.1 1301c-15.3 0-30.4 0-45.6 0 .4-13.6 2.4-26.7 6-39.5.5-1.6 1.5-1.6 2.8-1.6 10 0 20.1 0 30.1 0 2.2 0 4.3 0 6.7 0C844.1 1273.9 844.1 1287.4 844.1 1301zM796.4 1259.9c.8 0 1.5.1 2.5.2-3.8 13.5-5.7 27.1-6.1 41.1-11.9 0-23.4 0-35 0-.1 0-.2 0-.3 0 .7-15.1 5.2-29.1 12.5-41.3C778.8 1260 787.6 1259.9 796.4 1259.9zM757.4 1308.1c12 0 23.6 0 35.4 0 .2 14.5 2 28.7 5.9 42.6-.5.2-.8.3-1 .3-9.3 0-18.7.1-28 0C762.3 1338.3 757.8 1323.7 757.4 1308.1zM849.3 1357.2c12.4 0 24.8 0 37.1 0-4 13.9-14 29.7-25.9 36.7-3.7.6-7.4.9-11.2 1C849.3 1382.4 849.3 1369.9 849.3 1357.2zM881.5 1523.5H812c-6.5 0-11.8-5.3-11.8-11.8v-43.1c0-6.5 5.3-11.8 11.8-11.8h69.6c6.5 0 11.8 5.3 11.8 11.8v43.1C893.3 1518.2 888 1523.5 881.5 1523.5zM812 1458.9c-5.3 0-9.6 4.3-9.6 9.6v43.1c0 5.3 4.3 9.6 9.6 9.6h69.6c5.3 0 9.6-4.3 9.6-9.6v-43.1c0-5.3-4.3-9.6-9.6-9.6H812z" class="colorFFF svgShape"></path><path fill="#ffffff" d="M854.6,1500.7h-15.7c-3.9,0-7-3.2-7-7v-7c0-3.9,3.2-7,7-7h15.7c3.9,0,7,3.2,7,7v7
				C861.6,1497.5,858.5,1500.7,854.6,1500.7z M838.9,1481.2c-3,0-5.4,2.4-5.4,5.4v7c0,3,2.4,5.4,5.4,5.4h15.7c3,0,5.4-2.4,5.4-5.4
				v-7c0-3-2.4-5.4-5.4-5.4H838.9z" class="colorFFF svgShape"></path><rect width="1.6" height="22.5" x="845.9" y="1457.9" fill="#ffffff" class="colorFFF svgShape"></rect><rect width="1.6" height="22.5" x="845.9" y="1499.9" fill="#ffffff" class="colorFFF svgShape"></rect><rect width="31.4" height="1.6" x="860.8" y="1489.3" fill="#ffffff" class="colorFFF svgShape"></rect><rect width="31.4" height="1.6" x="801.2" y="1489.3" fill="#ffffff" class="colorFFF svgShape"></rect></g><path fill="#ffffff" d="M1416.8,862.4v6.4h96.7v104h6.4V862.4H1416.8z M1089.8,972.8h6.4v-104h90.1v-6.4h-96.5V972.8z
	 M1513.5,1203.2v104h-96.7v6.4h103.1v-110.4H1513.5z M1096.2,1203.2h-6.4v110.4h96.5v-6.4h-90.1V1203.2z" class="colorFFF svgShape"></path><g><path fill="#f35450" d="M1083.3,404.7h32.7v61.6l57.6-61.6h42.7l-66,68.9l71.6,79.4h-45.6l-60.3-70.4v70.4h-32.7V404.7z" class="colorF35450 svgShape"></path><path fill="#f35450" d="M1269.6 489.7l-55.7-85h40.6l31.4 55.5 33.3-55.5h38.7l-55.7 85v63.2h-32.7V489.7zM1465.8 443.2c-6.5-7.7-15.9-12.1-28.1-12.1-24.7 0-42.9 20.1-42.9 47.7 0 27.6 18.2 47.7 41.9 47.7 13.2 0 23.9-5.9 30.6-15.9l27.2 20.3c-12.4 17.6-33.3 25.8-53.6 25.8-46.3 0-80-30.4-80-77.9s33.7-77.9 80-77.9c16.5 0 37.5 5.7 50 21.8L1465.8 443.2z" class="colorF35450 svgShape"></path></g><g><path fill="#ffffff" d="M1218.4 764.2c3.7 0 6.4-2.2 6.4-5.4 0-4.8-8.1-6.6-14.2-10.1-4.4-2.4-8.5-7.2-8.5-13.9 0-9.1 7.4-15.9 16.4-15.9 9.1 0 16.5 7.4 16.5 16.5h-9.6c-.2-3.8-3.2-6.9-7-6.9-3.8 0-6.3 1.9-6.3 5.6 0 4.1 6.9 6.3 12.6 9.3 5 2.7 10.2 7.2 10.2 14.7 0 9-7.4 15.7-16.5 15.7-9 0-16.4-7.4-16.4-16.4h9.6C1211.8 761.1 1214.7 764.2 1218.4 764.2zM1264.5 735.1c-.1-3.8-3.2-7-6.9-7-3.7.1-6.8 3.3-6.8 7v22.6c.1 4.4 3.2 6.8 6.8 6.8 3.8-.1 6.9-3.2 6.9-6.8v-5.6h9.6v5.6c0 9-7.4 16.4-16.5 16.4-9 0-16.4-7.4-16.4-16.4v-22.6c0-9.2 7.4-16.6 16.4-16.6 9.1 0 16.5 7.4 16.5 16.6v5.4h-9.6V735.1zM1290.4 760.1l-3.3 13.7h-9.6l13.4-54.9h13l13.4 54.9h-9.6l-3.3-13.7H1290.4zM1297.4 731.6l-4.7 19.6h9.6L1297.4 731.6zM1355.8 773.8h-9.6l-13.7-32.4v32.4h-9.6v-54.9h9.6l13.7 32.4v-32.4h9.6V773.8z" class="colorFFF svgShape"></path></g><path fill="#ffffff" d="M1331,1612.3h-104.2c-13.7,0-24.7-11.1-24.7-24.7v-2.9c0-13.7,11.1-24.7,24.7-24.7H1331
	c13.7,0,24.7,11.1,24.7,24.7v2.9C1355.8,1601.2,1344.7,1612.3,1331,1612.3z" class="colorFFF svgShape"></path><g><path fill="#3660a1" d="M1519.5,1664h-481.1c-30.8,0-55.9-25.1-55.9-55.9V678c0-30.8,25.1-55.9,55.9-55.9h481.1
			c30.8,0,55.9,25.1,55.9,55.9v930.1C1575.4,1638.9,1550.3,1664,1519.5,1664z M1038.4,631.7c-25.5,0-46.3,20.8-46.3,46.3v930.1
			c0,25.5,20.8,46.3,46.3,46.3h481.1c25.5,0,46.3-20.8,46.3-46.3V678c0-25.5-20.8-46.3-46.3-46.3H1038.4z" class="color3660A1 svgShape"></path><linearGradient id="a" x1="992.063" x2="1565.773" y1="1143.055" y2="1143.055" gradientUnits="userSpaceOnUse"><stop offset="0" stop-color="#ffffff" class="stopColorfff svgShape"></stop><stop offset=".184" stop-color="#ffffff" stop-opacity="0" class="stopColorfff svgShape"></stop><stop offset=".827" stop-color="#ffffff" stop-opacity="0" class="stopColorfff svgShape"></stop><stop offset="1" stop-color="#ffffff" class="stopColorfff svgShape"></stop></linearGradient><path fill="url(#a)" d="M1491.2,1654.4h-424.5c-41.2,0-74.6-33.4-74.6-74.6V706.3
		c0-41.2,33.4-74.6,74.6-74.6h424.5c41.2,0,74.6,33.4,74.6,74.6v873.5C1565.8,1621,1532.4,1654.4,1491.2,1654.4z" opacity=".31"></path><rect width="444.8" height="104.9" x="1056.5" y="703.6" fill="#f2f2f2" opacity=".3" class="colorF2F2F2 svgShape"></rect></g><g><path fill="#f35450" d="M1801.5,731.5h-196.1V535.3h196.1V731.5z M1616.8,720H1790V546.8h-173.2V720z" class="colorF35450 svgShape"></path><polygon fill="#f35450" points="1697.1 650.1 1640.1 598 1647.9 589.6 1696.7 634.2 1818.2 512.7 1826.3 520.8" class="colorF35450 svgShape"></polygon></g><g><path fill="#0c3879" d="M477.6,1130.3c0,0,19,21.6,21.9,51.6l0.2,6.1l-18.1,0.7l-27.7-16.7L477.6,1130.3z" class="color0C3879 svgShape"></path><polygon fill="#e0a990" points="467.1 1211.6 467.2 1175.7 480.8 1186.6 479.6 1211.3" class="colorE0A990 svgShape"></polygon><path fill="#ffae9e" d="M482.2,1131.4l6.5,17.6l14.6,8.7l-6.8,2.9c0,0,8.4,20.2-5.2,21.7l-4.1,13.8l2.5,26.8l-9.9,5.6l-2.7-20.3
			l-10.5-22.3C466.6,1185.8,427.9,1127.9,482.2,1131.4z" class="colorFFAE9E svgShape"></path><path fill="#eaa091" d="M491.4,1182.4l-11.8-0.4l-13.6-9.6c0,0-14.3-5.1-0.9,7.7l2.5,9.4l-6.7,21.5l28.9,11.9l-2.5-26.8
			L491.4,1182.4z" class="colorEAA091 svgShape"></path><path fill="#e0a990" d="M483.8,1776l14.2,24.2C490.9,1798,483.7,1792.7,483.8,1776z" class="colorE0A990 svgShape"></path><path fill="#ffae9e" d="M514.8,1245.6c6.8-11.6,39-59.7,40.7-72.6c0,0,9.9-8.5,9.9-8.5l13.5-3c0,0.1,0,0.2,0,0.3
		c-0.1,1.5,0,3,0.1,4.5c-2.4,0.8-5.4,1.5-9.4,2l3.3,10.1l-11.2,5.6c-4.7,7.1-29.6,83.7-33.7,93c-5,13-24.6-1.9-32.3-3.6
		L514.8,1245.6z" class="colorFFAE9E svgShape"></path><path fill="#f09674" d="M450.8,1537.8l9,38c0,0-28.6,22.2,4.4,201.1l10.1,13.7c3.6-39.5,17-211.4,24.1-246.9L450.8,1537.8z" class="colorF09674 svgShape"></path><path fill="#ffa494" d="M524.4,1531.5l-39.9,253.2l-7.7,5.6c0,0-39-151.8,3.2-210.7l-6.2-24.4L524.4,1531.5z" class="colorFFA494 svgShape"></path><path fill="#ef4136" d="M466.9,1204.1c14.1-1.2,7.3-0.6,20.9-1.8c0,0,13.3,17,29.7,26c16.4,9.1-13.2,36.9-2.7,61.5
		c10.5,24.6,46.1,78.4,14.1,262.3l-76.2,6.5c0,0-10.2-77.8-16.1-110.9c-7.2-40.3,12.5-75.1,23.9-109c11.5-33.9-45.4-92.6,3.8-138.1
		L466.9,1204.1z" class="colorEF4136 svgShape"></path><path fill="#df3d32" d="M463.3,1771.4c4.8,4.5,16.2,23.2,19.9,28.9c4,1.7,15.7,2.1,15.6,8.2l0,0l-19,1.6l-9.8-19.2
		c0,3,0.4,17.4,0.1,20.1l-3.6,0.3c-1-8-3.9-25.1-6.6-32.6L463.3,1771.4z" class="colorDF3D32 svgShape"></path><path fill="#ef4136" d="M475.1,1770.4c4.8,4.5,16.2,23.2,19.9,28.9c4,1.7,15.7,2.1,15.6,8.2l0,0l-19,1.6l-9.8-19.2
		c0,3,0.4,17.4,0.1,20.1l-3.6,0.3c-1-8-3.9-25.1-6.6-32.6L475.1,1770.4z" class="colorEF4136 svgShape"></path><path fill="#002868" d="M463.2,1170.7" class="color002868 svgShape"></path><path fill="#e6e7e8" d="M466.6,1246.3l24.8,98.6l45.7,12l-0.8-9.8l-32-5.8c-7.4-23-20-69.6-27.5-92L466.6,1246.3z" class="colorE6E7E8 svgShape"></path><path fill="#ffae9e" d="M568.9,1332.6l-57.5-6.8c0,0-6.3-62.9-15.3-103.5c-9.9,2.9-19.7,6-29.7,8c6.5,35.7,17.6,83.2,22.5,104
		c1.5,6.3,6.7,10.8,12.9,11c14.7,0.6,45.4,0.4,70.6,1.7L568.9,1332.6z" class="colorFFAE9E svgShape"></path><path fill="#f05045" d="M464,1255.1l41.7-3.6c0,0,0.7-35.2-14.5-33.9C476,1218.9,459.2,1221.9,464,1255.1z" class="colorF05045 svgShape"></path><path fill="#df3d32" d="M473.9,1556.8l-14.1-105.1c0,0-8-20.6,5.5-49.3c0,0-19,21.2-18.2,37.4c0.7,16.2,11.9,117.6,11.9,117.6
		L473.9,1556.8z" class="colorDF3D32 svgShape"></path><path fill="#39b54a" d="M519,1086.5c3.6,23.3,52.3,72.5,52.3,72.5s31.3-62.7,27.6-86c-3.6-23.3-24.5-39.1-46.6-35.4
		C530.3,1041.4,515.4,1063.2,519,1086.5z" class="color39B54A svgShape"></path><path fill="#ffffff" d="M525.6,1084.8c3,19.4,20.4,32.6,38.8,29.5c18.4-3.1,30.9-21.3,27.9-40.7c-3-19.4-20.4-32.6-38.8-29.5
		C535,1047.1,522.5,1065.4,525.6,1084.8z" class="colorFFF svgShape"></path><polygon fill="#39b54a" points="572.8 1210.3 585.7 1208.1 573.2 1127.8 560.3 1130" class="color39B54A svgShape"></polygon><path fill="#0c3879" d="M469.6,1118.4c0,0-38.8-10.5-34.8,48.5l1,25.5l40.2-1.6c0,0-10.6-40.5-6.9-49.8c3.7-9.3,8.5-10.8,8.5-10.8
		L469.6,1118.4z" class="color0C3879 svgShape"></path><path fill="#1e4f98" d="M486.8,1136.8l-20.3,4.9c0,0-4.5-22.5,4.3-23.3C490.7,1116.6,486.8,1136.8,486.8,1136.8z" class="color1E4F98 svgShape"></path><path fill="#ffae9e" d="M567,1173.2l7.4-1.7c0,0,4.2,5-7.2,8C567.3,1179.5,563.2,1174.1,567,1173.2z" class="colorFFAE9E svgShape"></path><polygon fill="#ffae9e" points="577.2 1166.2 579.9 1171 581.3 1164 577.7 1156.8" class="colorFFAE9E svgShape"></polygon><polygon fill="#e6e7e8" points="521.1 1552.8 476.2 1564.7 456.7 1562.8 455.9 1558.5 473.7 1555.2" class="colorE6E7E8 svgShape"></polygon><polygon fill="#39b54a" points="570 1055.8 549.4 1092.7 544.5 1079.5 536.6 1086.6 549.8 1102.4 579.8 1068" class="color39B54A svgShape"></polygon><path fill="#ed1c24" d="M615.3,1254c-12.5,19.9-8.1,89.1-8.1,89.1s64.8-26.8,77.3-46.8c12.5-19.9,7.2-45.6-11.9-57.3
			C653.5,1227.4,627.8,1234.1,615.3,1254z" class="colorED1C24 svgShape"></path><ellipse cx="650.2" cy="1274.7" fill="#ffffff" rx="35.6" ry="33.8" transform="rotate(-51.259 650.18 1274.606)" class="colorFFF svgShape"></ellipse><polygon fill="#ed1c24" points="574.7 1382.8 585.9 1389.6 629.1 1320.8 617.9 1314" class="colorED1C24 svgShape"></polygon><path fill="#ffae9e" d="M589.7,1335.1l-24-2.8l0.6,14.4c18,1.2,31.2,2.6,30.8,4.1c11.1,17.5,14.1-0.1,14.1-0.1
			C601.9,1334.8,606,1343.5,589.7,1335.1z" class="colorFFAE9E svgShape"></path><path fill="#ffae9e" d="M592.7,1337.3l23.4,8.4C617.2,1353.1,595.3,1339.2,592.7,1337.3z" class="colorFFAE9E svgShape"></path><g><rect width="12.2" height="49.3" x="644.1" y="1250.1" fill="#ed1c24" transform="rotate(-34.435 650.22 1274.631)" class="colorED1C24 svgShape"></rect><rect width="12.2" height="49.3" x="644.1" y="1250.1" fill="#ed1c24" transform="rotate(55.565 650.216 1274.615)" class="colorED1C24 svgShape"></rect></g></g><g><path fill="#2156a4" d="M1303.7,892.9c0,0-48.2,44.3-153.4,30.1v176.8c0,13.2,2,26.3,6.1,38.9c9.9,30.5,33.6,82.7,84,103.5
		c0,0,52.6,27.6,63.3,41c10.7-13.4,63.3-41,63.3-41c50.4-20.9,74.1-73.1,84-103.5c4.1-12.6,6.1-25.7,6.1-38.9V922.9
		C1351.9,937.2,1303.7,892.9,1303.7,892.9z" class="color2156A4 svgShape"></path><path fill="#6387bd" d="M1303.7,1252.8c-5.9-4.1-13.6-9.1-23.8-15.2c-14.8-8.8-28.1-15.8-28.7-16.1l-0.9-0.5l-1-0.4
		c-42-17.4-62.3-63.4-70.7-89.2c-3.3-10.2-5-20.8-5-31.7V948.6c5.8,0.3,11.6,0.5,17.2,0.5c35.3,0,67.2-6.2,94.8-18.4
		c7.2-3.2,13.2-6.4,18.1-9.3c4.9,2.9,10.9,6.2,18.1,9.3c27.6,12.2,59.5,18.4,94.8,18.4c5.6,0,11.4-0.2,17.2-0.5v151.2
		c0,10.9-1.7,21.6-5,31.7c-8.4,25.8-28.7,71.8-70.7,89.2l-1,0.4l-0.9,0.5c-0.6,0.3-13.8,7.3-28.7,16.1
		C1317.3,1243.7,1309.6,1248.7,1303.7,1252.8z" class="color6387BD svgShape"></path><rect width="151.6" height="96.9" x="1227.9" y="1065.3" fill="#ffffff" class="colorFFF svgShape"></rect><path fill="#ffffff" d="M1359.5,1121.9H1248V1016c0-30.7,25-55.7,55.7-55.7c30.7,0,55.7,25,55.7,55.7V1121.9z M1264.3,1105.6
					h78.8V1016c0-21.7-17.7-39.4-39.4-39.4s-39.4,17.7-39.4,39.4V1105.6z" class="colorFFF svgShape"></path><circle cx="1303.7" cy="1105.8" r="14.9" fill="#6387bd" transform="rotate(-22.5 1303.678 1105.73)" class="color6387BD svgShape"></circle><path fill="#6387bd" d="M1305,1140.8h-2.4c-3.8,0-6.8-3.1-6.8-6.8v-24.7h16.1v24.7C1311.8,1137.8,1308.7,1140.8,1305,1140.8z" class="color6387BD svgShape"></path></g><g opacity=".43"><rect width="436.3" height="52.9" x="1082.4" y="912" fill="#ffffff" opacity=".34" class="colorFFF svgShape"></rect><rect width="436.3" height="52.9" x="1082.4" y="1058.6" fill="#ffffff" opacity=".34" class="colorFFF svgShape"></rect><rect width="436.3" height="52.9" x="1082.4" y="1205.1" fill="#ffffff" opacity=".34" class="colorFFF svgShape"></rect></g><g><circle cx="1947.2" cy="1111.9" r="169.5" fill="#ffffff" opacity=".24" transform="rotate(-45.001 1947.23 1111.89)" class="colorFFF svgShape"></circle><path fill="#2a4179" d="M2129,1138.6c-3.5,23.5-11.4,45.8-23.5,66.4c-12.1,20.6-27.8,38.3-46.6,52.8
				c-19.5,15-41.6,25.7-65.6,31.9c-24,6.2-48.5,7.6-72.8,4c-23.5-3.5-45.8-11.4-66.4-23.5c-20.6-12.1-38.3-27.8-52.8-46.6
				c-15-19.5-25.7-41.6-31.9-65.6c-6.2-24-7.6-48.5-4-72.8c3.5-23.5,11.4-45.8,23.5-66.4c12.1-20.6,27.8-38.3,46.6-52.8
				c19.5-15,41.6-25.7,65.6-31.9c24-6.2,48.5-7.6,72.8-4c23.5,3.5,45.8,11.4,66.4,23.5c20.6,12.1,38.3,27.8,52.8,46.6
				c15,19.5,25.7,41.6,31.9,65.6C2131.3,1089.8,2132.6,1114.3,2129,1138.6z M1988,1269.3c86.8-22.5,139.1-111.4,116.6-198.2
				c-22.5-86.8-111.4-139.1-198.2-116.6c-86.8,22.5-139.1,111.4-116.6,198.2C1812.3,1239.5,1901.2,1291.8,1988,1269.3z" class="color2A4179 svgShape"></path><path fill="#2a4179" d="M2365.5,1416.3c-0.6-2.5-2.1-4.7-4.2-6.4l-265.5-207.3c-5.2-4.1-12.7-3.1-16.7,2.1
				c-4.1,5.2-3.1,12.7,2.1,16.7l265.5,207.3c5.2,4.1,12.7,3.1,16.7-2.1C2365.7,1423.6,2366.4,1419.8,2365.5,1416.3z" class="color2A4179 svgShape"></path><polygon fill="#ef4136" points="2339.1 1262.4 2280.3 1236.1 2275.8 1228.7 2240 1228.7 2232.1 1242.1 2178.1 1257.8 2196.9 1409.4 2175.6 1485.9 2183.2 1484.7 2189.2 1482.4 2323.4 1498.2 2308.6 1387.4" class="colorEF4136 svgShape"></polygon><path fill="#0e408b" d="M2323.4,1498.2l-12,96.3c-1.6,0.1-3.2,0.2-4.8,0.2c-1.2,0-2.5,0-3.7,0c-12.9-0.1-25.9-1.9-38.8-4.3
			c-0.2,0-0.5-0.1-0.7-0.1l-8.8-63.5v0l-3.5-24.9l-1.7-12.4c0,0,3.8-2.2,9.8-4.6c0.1,0,0.1-0.1,0.2-0.1c15.1,3.3,32.5,3.3,58,5.9
			C2320.3,1491,2321.5,1495.3,2323.4,1498.2z" class="color0E408B svgShape"></path><path fill="#0e408b" d="M2259.3,1490.7L2259.3,1490.7c0,3.4-0.1,6.7-0.4,9.9c-1.1,14.7-4.5,26.3-4.5,26.3v0l-6.4,67.7
			c-7.9-1.7-11.7,11.2-19.5,9.6c-2.2-0.4-9.6,4.6-11.8,4.2c-2.5-0.4-7.4-10.4-9.9-10.7c-5.4-0.8-1.3-2.3-6.8-2.8l-18.6-99l-1.6-12.3
			l-0.1-1.1h23.4l24.8,2.2c12.6,0,12.6,0,26.5,2.2c7.3,1.1,4.1-9.4,4.6-2C2259.2,1486.8,2259.3,1488.7,2259.3,1490.7z" class="color0E408B svgShape"></path><polygon fill="#e6e6e6" points="2259.3 1490.7 2259.3 1437.5 2249.3 1489.5" class="colorE6E6E6 svgShape"></polygon><path fill="#f2b694" d="M2273.4,1209.5l-1.1,20.9l-31-1.1l-2.6-16.1l3.2-3.7C2241.9,1209.5,2264.3,1193.2,2273.4,1209.5z" class="colorF2B694 svgShape"></path><polygon fill="#e6e6e6" points="2317.3 1490.7 2259.3 1490.7 2249.3 1489.5 2179.8 1482.4 2180.6 1488.4 2249.3 1493.8" class="colorE6E6E6 svgShape"></polygon><polygon fill="#e6e6e6" points="2176.9 1483.3 2190.3 1434.7 2196.2 1412.1 2193.3 1484.7" class="colorE6E6E6 svgShape"></polygon><polygon fill="#ffffff" points="2284.1 1237.8 2257.3 1240 2232.1 1242.1 2240 1228.7 2276.8 1228.1" class="colorFFF svgShape"></polygon><polygon fill="#e6e6e6" points="2320.5 1338.7 2328 1296.2 2296.1 1384.8 2315.3 1437.5 2308.6 1387.4" class="colorE6E6E6 svgShape"></polygon><path fill="#ef4136" d="M2178.1,1257.8c0,0-41.7,95.1-30.2,103.3c11.5,8.2,46.2,22.8,46.2,22.8L2178.1,1257.8z" class="colorEF4136 svgShape"></path><path fill="#e6e6e6" d="M2189.8,1333.3c0-0.8-8,8.9-10.5,17.6c-1.2,4.1,13.7,7.4,13.7,7.4L2189.8,1333.3z" class="colorE6E6E6 svgShape"></path><path fill="#f2b694" d="M2231.3,1179.7c0,0-1,7.3-0.9,9.6c0.1,2.3-1.8,14.4-1.8,14.4l2.7,0.6c0,0,2.9,14.4,4.6,14.9
			c1.7,0.5,6.3-0.6,6.3-0.6l14-19.1l-17.4-16.9L2231.3,1179.7z" class="colorF2B694 svgShape"></path><path fill="#2f4a89" d="M2271.1,1225.6l6-20.6c0,0,19.5-32.1-6.5-35.5c0,0-26.3-26.3-42.6,11.2l6.5,3.5c0,0,16.4,3,12.8,12.6
			l3.2,26.6L2271.1,1225.6z" class="color2F4A89 svgShape"></path><path fill="#dca587" d="M2239.7,1219.4c0,0,3.3-1,3.7-1c0.4,0,2.9-5.5,2.9-5.5l-1,6.5l-4.6,6.2L2239.7,1219.4z" class="colorDCA587 svgShape"></path><path fill="#f2b694" d="M2245.2,1193.1c0,0,3.3-5.7,5.7-2.7c2.4,3,1.7,15.6-2,13.2C2245.2,1201.1,2245.2,1193.1,2245.2,1193.1z" class="colorF2B694 svgShape"></path><path fill="#ef4136" d="M2339.1,1262.4c0,0,30.2,84.8,23.7,104.4c-6.6,19.7-54.1,20.6-54.1,20.6L2339.1,1262.4z" class="colorEF4136 svgShape"></path><path fill="#e6e6e6" d="M2320.2 1333.3c0 0 17.3 20.9 10.7 23.9-6.6 3-14.7-1-14.7-1L2320.2 1333.3zM2195.4 1438.9l2.5-30.6-11.4-116.8 16.6 107.6C2203.2 1399 2202.8 1418.3 2195.4 1438.9z" class="colorE6E6E6 svgShape"></path><path fill="#0e408b" d="M2311.4 1594.5c0 0 28.2 50.2-15.3 208.9h-17.3l-15.5-213.1L2311.4 1594.5zM2248.1 1594.5c0 0 28.2 50.2-15.3 208.9h-17.3l-15.5-213.1L2248.1 1594.5z" class="color0E408B svgShape"></path><polygon fill="#0d3b81" points="2296.6 1801.5 2301.9 1808.6 2299.3 1824.1 2289.6 1824.1 2289.6 1815 2282.8 1822.1 2257.1 1815.7 2254.2 1808.6 2278.7 1801.5" class="color0D3B81 svgShape"></polygon><polygon fill="#0d3b81" points="2232.9 1800.3 2238.2 1807.4 2235.6 1822.9 2225.9 1822.9 2225.9 1813.8 2219.1 1820.9 2193.4 1814.6 2190.5 1807.4 2215 1800.3" class="color0D3B81 svgShape"></polygon><path fill="#e6e6e6" d="M2254.5,1526.8c0,0,12.8-19.8,8.8-33.7c0,0,6.7,12.8-4,37.1l1.6,43.1L2254.5,1526.8z" class="colorE6E6E6 svgShape"></path><polygon fill="#ffffff" points="2268.5 1486.4 2259.9 1431.2 2254.5 1486.9" class="colorFFF svgShape"></polygon><rect width="20.8" height="242.8" x="1949.3" y="1002.6" fill="#ffffff" opacity=".29" transform="rotate(-134.999 1959.74 1123.951)" class="colorFFF svgShape"></rect><rect width="20.8" height="242.8" x="1921.1" y="966.6" fill="#ffffff" opacity=".29" transform="rotate(-134.999 1931.528 1087.94)" class="colorFFF svgShape"></rect></g><rect width="2052.9" height="31.6" x="319.1" y="1811.3" fill="#3660a1" class="color3660A1 svgShape"></rect></svg></g></svg>