<svg width="53" height="53" viewBox="0 0 53 53" fill="none" xmlns="http://www.w3.org/2000/svg">
<circle cx="26.5" cy="26.5" r="26.5" fill="#2B5CAB"/>
<g clip-path="url(#clip0_167_9)">
<path d="M32.6082 37.282H20.3895C18.5926 37.282 17.1551 35.8445 17.1551 34.0477V25.782H16.077C15.6457 25.782 15.2145 25.4945 15.0707 25.0633C14.927 24.632 15.0707 24.1289 15.4301 23.8414L24.9176 16.007C25.852 15.2164 27.2176 15.2164 28.152 16.007L37.6395 23.8414C37.9988 24.1289 38.1426 24.632 37.9988 25.0633C37.8551 25.4945 37.4238 25.782 36.9926 25.782H35.8426V34.0477C35.8426 35.8445 34.4051 37.282 32.6082 37.282ZM18.8082 23.8414C19.0957 23.9852 19.3113 24.3445 19.3113 24.7039V34.0477C19.3113 34.6227 19.8145 35.1258 20.3895 35.1258H32.6082C33.1832 35.1258 33.6863 34.6227 33.6863 34.0477V24.7039C33.6863 24.3445 33.902 23.9852 34.1895 23.8414L26.7145 17.6602C26.5707 17.5164 26.3551 17.5164 26.2832 17.6602L18.8082 23.8414Z" fill="white"/>
<path d="M29.7344 37.2812H23.9844C23.4094 37.2812 22.9062 36.7781 22.9062 36.2031V30.4531C22.9062 28.6562 24.3438 27.2188 26.1406 27.2188H27.5781C29.375 27.2188 30.8125 28.6562 30.8125 30.4531V36.2031C30.8125 36.7781 30.3094 37.2812 29.7344 37.2812ZM25.0625 35.125H28.6562V30.4531C28.6562 29.8781 28.1531 29.375 27.5781 29.375H26.1406C25.5656 29.375 25.0625 29.8781 25.0625 30.4531V35.125Z" fill="white"/>
</g>
<defs>
<clipPath id="clip0_167_9">
<rect width="23" height="23" fill="white" transform="translate(15 15)"/>
</clipPath>
</defs>
</svg>
