<svg width="53" height="53" viewBox="0 0 53 53" fill="none" xmlns="http://www.w3.org/2000/svg">
<circle cx="26.5" cy="26.5" r="25.5" fill="white" stroke="#DBDBDB" stroke-width="2"/>
<path fill-rule="evenodd" clip-rule="evenodd" d="M15 21C15 19.3431 16.3431 18 18 18H36C37.6569 18 39 19.3431 39 21V33C39 34.6569 37.6569 36 36 36H18C16.3431 36 15 34.6569 15 33V21ZM17 21C17 20.4477 17.4477 20 18 20H36C36.5523 20 37 20.4477 37 21V24H17V21ZM37 26V33C37 33.5523 36.5523 34 36 34H18C17.4477 34 17 33.5523 17 33V26H37Z" fill="#DBDBDB"/>
</svg>
