<svg width="53" height="53" viewBox="0 0 53 53" fill="none" xmlns="http://www.w3.org/2000/svg">
<circle cx="26.5" cy="26.5" r="26.5" fill="#2B5CAB"/>
<path fill-rule="evenodd" clip-rule="evenodd" d="M27.1875 16.5C24.2902 16.5 21.9375 18.8528 21.9375 21.75C21.9375 24.6472 24.2902 27 27.1875 27C30.0848 27 32.4375 24.6472 32.4375 21.75C32.4375 18.8528 30.0848 16.5 27.1875 16.5ZM27.1875 18C29.2575 18 30.9375 19.68 30.9375 21.75C30.9375 23.82 29.2575 25.5 27.1875 25.5C25.1175 25.5 23.4375 23.82 23.4375 21.75C23.4375 19.68 25.1175 18 27.1875 18ZM18.1875 36H27.1875C27.3864 36 27.5772 36.079 27.7178 36.2197C27.8585 36.3603 27.9375 36.5511 27.9375 36.75C27.9375 36.9489 27.8585 37.1397 27.7178 37.2803C27.5772 37.421 27.3864 37.5 27.1875 37.5H17.4375C17.2386 37.5 17.0478 37.421 16.9072 37.2803C16.7665 37.1397 16.6875 36.9489 16.6875 36.75V35.25C16.6875 33.4598 17.3987 31.7429 18.6645 30.477C19.9304 29.2112 21.6473 28.5 23.4375 28.5H26.9963C27.1952 28.5 27.3859 28.579 27.5266 28.7197C27.6672 28.8603 27.7463 29.0511 27.7463 29.25C27.7463 29.4489 27.6672 29.6397 27.5266 29.7803C27.3859 29.921 27.1952 30 26.9963 30H23.4375C22.0451 30 20.7098 30.5531 19.7252 31.5377C18.7406 32.5223 18.1875 33.8576 18.1875 35.25V36ZM33.7463 28.719C31.263 28.719 29.2463 30.735 29.2463 33.219C29.2463 35.7022 31.263 37.719 33.7463 37.719C36.2295 37.719 38.2463 35.7022 38.2463 33.219C38.2463 30.735 36.2295 28.719 33.7463 28.719ZM33.7463 30.219C35.4023 30.219 36.7463 31.563 36.7463 33.219C36.7463 34.8742 35.4023 36.219 33.7463 36.219C32.0903 36.219 30.7463 34.8742 30.7463 33.219C30.7463 31.563 32.0903 30.219 33.7463 30.219Z" fill="white"/>
<path fill-rule="evenodd" clip-rule="evenodd" d="M34.5 34.8792V33.3477C34.5 33.1487 34.421 32.958 34.2803 32.8173C34.1397 32.6767 33.9489 32.5977 33.75 32.5977C33.5511 32.5977 33.3603 32.6767 33.2197 32.8173C33.079 32.958 33 33.1487 33 33.3477V34.8792C33 35.0781 33.079 35.2688 33.2197 35.4095C33.3603 35.5501 33.5511 35.6292 33.75 35.6292C33.9489 35.6292 34.1397 35.5501 34.2803 35.4095C34.421 35.2688 34.5 35.0781 34.5 34.8792Z" fill="white"/>
<path d="M33.75 32.4062C34.1642 32.4062 34.5 32.0705 34.5 31.6562C34.5 31.242 34.1642 30.9062 33.75 30.9062C33.3358 30.9062 33 31.242 33 31.6562C33 32.0705 33.3358 32.4062 33.75 32.4062Z" fill="white"/>
</svg>
