<svg width="28" height="21" viewBox="0 0 28 21" fill="none" xmlns="http://www.w3.org/2000/svg">
<path d="M26.4997 9.74973H4.51723L11.1335 3.13349C11.2529 3.01818 11.3481 2.88025 11.4136 2.72774C11.4791 2.57524 11.5136 2.41121 11.515 2.24524C11.5165 2.07926 11.4849 1.91466 11.422 1.76104C11.3592 1.60742 11.2663 1.46786 11.149 1.35049C11.0316 1.23313 10.892 1.14031 10.7384 1.07746C10.5848 1.01461 10.4202 0.98298 10.2542 0.984422C10.0883 0.985864 9.92423 1.02035 9.77173 1.08586C9.61922 1.15137 9.48129 1.2466 9.36598 1.36599L0.615983 10.116C0.381644 10.3504 0.25 10.6683 0.25 10.9997C0.25 11.3312 0.381644 11.6491 0.615983 11.8835L9.36598 20.6335C9.60174 20.8612 9.91749 20.9872 10.2452 20.9843C10.573 20.9815 10.8865 20.85 11.1183 20.6183C11.35 20.3865 11.4815 20.073 11.4843 19.7452C11.4872 19.4175 11.3612 19.1017 11.1335 18.866L4.51723 12.2497H26.4997C26.8313 12.2497 27.1492 12.118 27.3836 11.8836C27.618 11.6492 27.7497 11.3313 27.7497 10.9997C27.7497 10.6682 27.618 10.3503 27.3836 10.1159C27.1492 9.88143 26.8313 9.74973 26.4997 9.74973Z" fill="black"/>
</svg>
