<svg width="125" height="125" viewBox="0 0 125 125" fill="none" xmlns="http://www.w3.org/2000/svg">
<path d="M62.5 80.0796C55.8594 80.0796 53.5156 78.5171 51.3672 76.9546C50.7812 76.564 50.3906 76.1733 49.8047 75.978C43.9453 72.4624 39.6484 66.4077 37.6953 57.814C34.9609 56.8374 31.25 53.9077 31.25 46.8765C31.25 41.4077 33.7891 39.6499 33.9844 39.4546C34.9609 38.8687 36.1328 39.064 36.7187 40.0405C37.3047 41.0171 37.1094 42.189 36.1328 42.7749C35.1562 43.3608 34.9609 43.7515 34.9609 47.0718C34.9609 53.7124 39.0625 54.4937 39.4531 54.4937C40.2344 54.689 41.0156 55.2749 41.2109 56.0562C42.3828 61.5249 44.9219 68.9468 51.5625 72.853C52.3438 73.2437 52.9297 73.6343 53.5156 74.0249C55.4688 75.3921 57.0312 76.3686 62.3047 76.3686C67.7734 76.3686 69.1406 75.3921 71.0938 74.0249C71.6797 73.6343 72.2656 73.2437 73.0469 72.853C79.6875 68.9468 82.4219 61.7202 83.3984 56.0562C83.5938 55.2749 84.375 54.4937 85.1562 54.4937C85.5469 54.4937 89.6484 53.7124 89.6484 47.0718C89.6484 43.7515 88.4766 42.7749 88.4766 42.7749C87.5 42.189 87.3047 41.0171 88.0859 40.0405C88.6719 39.064 90.0391 38.8686 90.8203 39.6499C91.0156 39.8452 93.5547 41.7983 93.5547 47.0718C93.5547 54.103 89.8437 57.0327 87.1094 58.0093C85.1562 66.4077 81.0547 72.6577 75 76.1733C74.4141 76.564 73.8281 76.9546 73.4375 77.1499C71.4844 78.5171 69.1406 80.0796 62.5 80.0796Z" fill="black"/>
<path d="M35.1562 42.9678C34.375 42.9678 33.7891 42.5771 33.3984 41.7959C33.0078 40.8193 33.3984 39.6475 34.375 39.2568C39.4531 36.9131 43.3594 31.835 47.0703 22.6553C47.2656 22.0693 47.8516 21.6787 48.4375 21.4834C49.0234 21.2881 49.8047 21.4834 50.1953 22.0693C55.8594 27.3428 63.8672 26.1709 69.1406 25.3896C70.7031 25.1943 72.0703 24.999 73.0469 24.999C80.8594 24.999 83.9844 30.6631 86.1328 34.7646C87.5 37.499 88.4766 39.2568 89.8438 39.2568C91.0156 39.2568 91.7969 40.0381 91.7969 41.21C91.7969 42.3818 91.0156 43.1631 89.8438 43.1631C86.1328 43.1631 84.375 39.8428 82.6172 36.7178C80.4688 32.8115 78.5156 29.1006 73.0469 29.1006C72.2656 29.1006 71.0938 29.2959 69.7266 29.4912C64.6484 30.2725 56.25 31.4443 49.6094 26.9521C45.7031 35.5459 41.4062 40.624 35.9375 43.1631C35.7422 42.9678 35.3516 42.9678 35.1562 42.9678ZM121.094 123.046C119.922 123.046 119.141 122.265 119.141 121.093C119.141 110.351 119.141 101.757 103.906 98.0459C91.2109 95.1162 76.1719 89.2568 76.1719 79.2959V71.2881C76.1719 70.1162 76.9531 69.335 78.125 69.335C79.2969 69.335 80.0781 70.1162 80.0781 71.2881V79.2959C80.0781 84.96 89.0625 90.4287 104.688 94.335C123.047 98.6318 123.047 110.546 123.047 120.897C123.047 122.069 122.266 123.046 121.094 123.046ZM3.90625 121.093H1.95312C1.95312 110.546 1.95312 98.6318 20.3125 94.335C35.9375 90.624 44.9219 85.1553 44.9219 79.2959V71.2881C44.9219 70.1162 45.7031 69.335 46.875 69.335C48.0469 69.335 48.8281 70.1162 48.8281 71.2881V79.2959C48.8281 89.2568 33.7891 95.1162 21.0938 98.0459C5.85938 101.757 5.85938 110.351 5.85938 120.897L3.90625 121.093Z" fill="black"/>
<path d="M62.5 107.422C51.3672 107.422 40.625 102.344 33.2031 93.5547C32.4219 92.7734 32.6172 91.6016 33.3984 90.8203C34.1797 90.0391 35.3516 90.2344 36.1328 91.0156C42.9688 99.0234 52.5391 103.516 62.5 103.516C72.4609 103.516 82.0312 99.0234 88.8672 91.0156C89.6484 90.2344 90.8203 90.0391 91.6016 90.8203C92.3828 91.6016 92.5781 92.7734 91.7969 93.5547C84.375 102.344 73.6328 107.422 62.5 107.422ZM34.5703 43.5547C33.7891 43.5547 33.0078 43.1641 32.8125 42.3828C31.25 38.2812 31.25 36.9141 31.25 27.3438C31.25 19.1406 36.3281 12.5 41.6016 10.1562C45.7031 4.49219 52.1484 1.95312 62.5 1.95312C67.5781 1.95312 72.4609 2.92969 76.5625 4.6875C83.3984 6.64062 89.4531 5.85938 89.4531 5.85938C90.4297 5.66406 91.4063 6.44531 91.6016 7.42188C91.6016 7.61719 92.5781 11.9141 90.0391 15.625C92.5781 19.7266 93.5547 25.5859 93.5547 29.6875C93.5547 33.3984 93.5547 38.2812 91.9922 42.3828C91.6016 43.3594 90.4297 43.9453 89.4531 43.5547C88.4766 43.1641 87.8906 41.9922 88.2812 41.0156C89.6484 37.6953 89.6484 33.3984 89.6484 29.6875C89.6484 25.7812 88.4766 19.9219 86.1328 16.7969C85.5469 16.0156 85.5469 15.0391 86.1328 14.2578C87.3047 12.6953 87.6953 11.1328 87.6953 9.76562C85.1563 9.76562 80.4687 9.76563 75.3906 8.39844C75.1953 8.39844 75.1953 8.39844 75 8.20312C71.4844 6.64062 67.1875 5.85938 62.5 5.85938C50.9766 5.85938 47.0703 9.17969 44.5312 12.8906C44.3359 13.2812 43.9453 13.4766 43.5547 13.6719C39.4531 15.2344 35.1562 20.5078 35.1562 27.3438C35.1562 36.7188 35.1563 37.5 36.5234 40.8203C36.9141 41.7969 36.3281 42.9688 35.3516 43.3594C35.1563 43.5547 34.7656 43.5547 34.5703 43.5547Z" fill="black"/>
</svg>
