<svg width="125" height="125" viewBox="0 0 125 125" fill="none" xmlns="http://www.w3.org/2000/svg">
<g clip-path="url(#clip0_3875_2740)">
<path d="M124.915 114.722L121.777 86.6891C120.696 77.1528 120.823 74.5715 118.655 71.3102C114.714 65.3776 108.347 65.4462 98.716 62.7609V62.1967H109.695C112.307 62.1967 114.437 60.0878 114.469 57.4826L115.916 32.966C115.944 32.4812 115.779 32.005 115.457 31.642C115.134 31.279 114.68 31.0591 114.196 31.0304C113.183 30.9687 112.32 31.7406 112.26 32.7502C110.751 58.3486 110.808 57.3141 110.808 57.422C110.808 58.0253 110.298 58.5348 109.695 58.5348H98.716V58.061C104.15 55.1249 108.268 50.1767 109.526 43.7409C110.003 41.4364 109.881 39.715 109.894 35.7834C109.895 34.81 109.52 33.8737 108.848 33.1698C108.176 32.4658 107.258 32.0485 106.285 32.0048C93.7668 31.4198 86.8937 24.6667 84.5197 21.7902C84.2015 21.4048 83.8049 21.0916 83.3562 20.8713C82.9076 20.651 82.4172 20.5287 81.9177 20.5126C81.4182 20.4955 80.9208 20.5855 80.459 20.7766C79.9972 20.9676 79.5816 21.2553 79.2402 21.6203C76.8471 24.1674 74.2402 25.1471 72.4745 25.5207C70.5702 25.9233 69.1882 27.6215 69.1882 29.559C69.195 40.3757 69.1733 39.8554 69.205 40.6908C69.3261 43.7507 70.1721 46.8471 71.362 49.048C73.8452 53.9743 77.1301 56.0973 80.2944 58.0258V58.5363C80.1193 58.5336 74.57 58.5356 69.5715 58.5348C68.9682 58.5348 68.4589 58.0253 68.4589 57.422C68.4589 57.3146 68.5202 58.4245 66.9841 32.3735C66.9819 32.3399 66.9789 32.3063 66.9753 32.2729C66.9535 32.0827 64.9313 13.2228 75.5202 10.8954C76.0532 10.7782 76.4997 10.4416 76.749 9.95622C76.935 9.60759 81.466 1.455 95.8837 4.26237C95.9362 4.27263 96.0473 4.30876 96.1452 4.34074C106.01 7.56145 111.601 15.5112 112.222 24.4421C112.239 24.682 112.302 24.9164 112.409 25.1317C112.517 25.3471 112.665 25.5391 112.847 25.697C113.028 25.8548 113.239 25.9753 113.467 26.0515C113.695 26.1277 113.936 26.1581 114.176 26.141C114.66 26.1072 115.111 25.8824 115.43 25.5161C115.749 25.1497 115.909 24.6718 115.875 24.1874C115.151 13.7797 108.315 4.51384 97.7812 1.02116C97.2558 0.8488 96.8954 0.729415 96.5834 0.668624C85.2336 -1.54134 77.5226 2.27092 73.9631 7.51335C68.561 9.04753 65.0219 13.8644 63.7057 21.5019C62.7651 26.9594 63.2653 32.0243 63.3317 32.6366L64.798 57.4826C64.8303 60.0873 66.9592 62.1967 69.5717 62.1967C71.9621 62.1965 80.1293 62.1979 80.2946 62.1952V62.7609C68.5895 65.6747 65.8698 65.9013 62.4855 68.8788C58.7887 65.6325 55.5051 65.6066 49.1354 63.8696L44.6833 61.7384V58.0224C51.4448 54.5226 55.7812 47.6303 55.7812 39.8932V39.8752C60.7885 38.7841 63.1157 33.7109 60.3932 29.8949C60.4423 22.0004 60.3312 22.0055 59.4972 18.3356C55.2866 3.05314 40.7228 0.589767 40.6982 0.576339C25.4416 -2.70442 11.1176 8.62785 10.4867 23.903C10.4858 23.9369 10.4618 24.4489 10.4618 24.9821C10.4621 26.0483 10.4614 29.7944 10.4626 29.8942C9.73333 30.9159 9.31024 32.122 9.31024 33.4135C9.31024 36.5317 11.7685 39.1547 15.0751 39.8747C15.1186 40.0434 14.3598 51.7079 26.1262 57.9985L26.2609 57.725V57.7819L26.1523 58.0114L26.2609 58.0649L26.2607 61.6955L21.6252 63.9142C14.299 65.7382 11.5336 66.0275 8.21136 69.0961C5.57855 71.5346 4.62933 74.2116 4.21673 77.6027C-0.104315 116.685 -0.0213066 114.436 0.00530469 116.246C-0.0501152 120.92 3.21282 124.987 8.6098 124.987H23.3935C24.4047 124.987 25.2243 124.167 25.2243 123.156C25.2243 122.144 24.405 121.325 23.3935 121.325H17.7353L19.5505 86.9877C19.5761 86.5028 19.408 86.0276 19.0833 85.6667C18.7585 85.3057 18.3037 85.0885 17.8188 85.0629C16.8127 85.0029 15.9472 85.7846 15.894 86.7946L15.5121 94.0168L6.17376 93.037L6.27435 92.1376C8.15106 75.7016 7.48236 74.2634 11.707 70.964C13.9238 69.2294 17.5104 68.8283 21.6467 67.6825L27.2748 74.8874C28.6218 76.6105 31.1779 76.7629 32.7194 75.2096L33.5971 74.3251V83.1845C33.5971 84.1957 34.4164 85.0153 35.4279 85.0153C36.4394 85.0153 37.2587 84.196 37.2587 83.1845V74.3251C37.7521 74.6979 38.7485 76.4086 40.9308 76.2778C41.4459 76.2473 41.9486 76.1075 42.4055 75.8678C42.8624 75.628 43.263 75.2937 43.5807 74.8871L49.2162 67.6735C54.1139 69.0292 57.2343 69.1196 60.1056 71.6921C57.8764 75.3398 58.4103 77.944 56.4262 93.9035L55.506 94.0002L55.1249 86.7949C55.0715 85.7851 54.2087 85.0029 53.2001 85.0632C52.7152 85.0888 52.2604 85.306 51.9356 85.6669C51.6109 86.0279 51.4428 86.5031 51.4684 86.988L53.238 121.325H31.9367C30.9255 121.325 30.1059 122.145 30.1059 123.156C30.1059 124.168 30.9252 124.987 31.9367 124.987H77.6874C78.6987 124.987 79.5182 124.168 79.5182 123.156C79.5182 122.145 78.6989 121.325 77.6874 121.325H71.7665L73.582 86.988C73.6076 86.5031 73.4395 86.0279 73.1148 85.6669C72.79 85.306 72.3352 85.0888 71.8503 85.0632C70.8464 85.0031 69.9787 85.7848 69.9255 86.7949L69.5439 94.0124L60.2077 93.0329C61.9982 77.0925 61.7866 75.2485 63.8827 72.6813C66.6139 69.4252 70.591 69.0302 71.1078 68.8215C71.3945 74.7116 73.111 80.8788 79.0124 80.8788C83.0651 80.8788 87.3483 77.6752 89.5014 75.808C99.112 84.1442 107.23 82.5002 107.895 68.8197C108.409 68.9877 110.453 69.2516 112.627 70.5539C115.271 72.142 116.519 74.2175 117.001 77.1637C117.18 78.3071 117.031 77.3044 118.803 93.0334L109.538 94.0055L109.157 86.7956C109.103 85.7856 108.23 85.0043 107.232 85.0639C106.747 85.0895 106.292 85.3067 105.967 85.6676C105.643 86.0286 105.475 86.5038 105.5 86.9887L107.315 121.326H86.2306C85.2194 121.326 84.3998 122.145 84.3998 123.157C84.3998 124.168 85.2192 124.988 86.2306 124.988H116.367C122.164 124.987 125.594 120.329 124.915 114.722ZM15.2065 97.6662L14.018 121.325C9.6867 121.091 7.03411 121.997 5.09319 120.03C3.81365 118.733 3.55145 116.927 3.70428 115.104L5.76678 96.6757L15.2065 97.6662ZM55.7809 36.0527V30.7741C58.5773 31.9277 58.5773 34.8988 55.7809 36.0527ZM15.0751 36.0529C12.2778 34.8996 12.277 31.9272 15.0751 30.7736V36.0529ZM16.8088 26.6698L16.6569 26.7609C15.7938 26.784 14.9393 26.9388 14.123 27.2201C14.3254 25.9772 12.9152 18.2455 19.5136 10.8197C21.9399 8.16569 24.7389 6.17473 28.2668 4.91203C28.3251 4.90984 41.4745 -0.384842 51.7546 11.2968C57.8998 18.6205 56.5495 26.3932 56.7321 27.2204C55.916 26.9391 55.0618 26.7842 54.1989 26.7612C52.4296 25.7467 51.5844 23.87 51.5117 21.8107C51.4963 21.7467 51.5944 19.8305 49.9106 18.4255C47.8576 16.7121 46.0685 17.5739 42.3383 17.9438C32.5012 18.8967 25.5912 17.5182 24.5158 17.4355C21.9626 17.0383 19.4282 18.8805 19.3442 21.8127C19.2106 25.4628 16.7963 26.6784 16.8088 26.6698ZM18.7365 38.2406V29.7831C19.9814 28.798 21.3642 27.9872 22.3964 25.2116C22.7907 24.1335 22.9755 22.9648 23.0097 21.8122C23.0217 21.3371 23.467 20.9775 23.9528 21.0536C28.7736 21.6842 31.9428 22.0021 36.2531 21.9513L36.5261 21.9467C51.2804 21.7228 46.2372 18.7121 48.4069 25.0658C49.2441 27.5383 50.9333 28.9023 50.7929 28.769C51.4824 29.4106 52.0756 29.7519 52.1183 29.7826L52.1191 39.8925C52.1191 48.5632 45.467 55.9115 36.5446 56.5419C31.5641 56.8715 28.1054 54.8749 27.7949 54.7392L27.5951 55.142L27.5712 55.1486L27.7726 54.7282C27.5265 54.5868 27.1652 54.4279 26.381 53.9189C17.6074 48.2526 18.8356 38.7228 18.7365 38.2406ZM30.1418 72.6091L25.2126 66.2992L27.6923 65.1125L32.8049 69.9262L30.1418 72.6091ZM35.4279 67.3664L29.9225 62.1833V59.488C33.5036 60.4906 37.3137 60.507 40.9772 59.4755V62.1418L35.4279 67.3664ZM40.714 72.6091L38.0512 69.9257L43.1933 65.0842L45.6672 66.2685L40.714 72.6091ZM69.2841 97.6662L68.0956 121.325C62.2888 121.319 62.121 121.375 61.2375 121.17C58.9892 120.651 57.7477 118.677 57.7009 116.37C57.6926 114.597 57.6327 116.548 59.801 96.6711L69.2841 97.6662ZM75.5436 48.9889C73.9833 46.3923 72.8498 43.797 72.8498 39.8925V29.559C72.8498 29.3381 73.007 29.1503 73.2321 29.1027C75.4831 28.6266 78.7844 27.3967 81.7983 24.2441C84.5737 27.5619 92.3068 35.017 106.114 35.6623C106.146 35.6634 106.176 35.6767 106.198 35.6993C106.22 35.7219 106.232 35.7521 106.232 35.7836C106.228 39.4501 106.435 41.7018 105.524 44.7223C103.261 52.2304 96.6511 54.996 97.1735 54.7399L97.0136 54.8188C96.2065 55.2255 96.5033 55.0339 96.1469 55.1911C92.8996 56.6396 89.6186 56.5715 89.5136 56.5824C89.425 56.5573 80.7565 56.9975 75.5436 48.9889ZM97.1523 66.1445L97.1474 66.1432C97.149 66.1435 97.1507 66.1439 97.1523 66.1445ZM77.8466 77.0021C75.9784 76.225 74.8888 73.0199 74.7363 67.9176L75.5651 67.7113C77.9575 71.1349 81.3473 73.5234 85.1767 74.5485C82.7438 76.2834 79.7475 77.7926 77.8466 77.0021ZM79.5082 66.7294C81.9394 66.1144 81.933 66.1486 82.197 66.029C83.2653 65.5453 83.956 64.3134 83.956 62.891V59.465C87.3437 60.4435 91.1125 60.5507 95.0546 59.4853V62.8908C95.0546 64.6269 96.0629 65.8713 97.1269 66.1379L97.1628 66.1469L99.4965 66.728C94.1186 73.0129 84.8823 73.0168 79.5082 66.7294ZM101.159 77.0011C99.0302 77.8898 95.6808 75.8874 93.8066 74.5343C97.7919 73.454 101.115 70.9364 103.374 67.6938L104.267 67.9159C104.115 73.0168 103.026 76.2223 101.159 77.0011ZM119.884 120.03C117.943 121.997 115.305 121.091 110.982 121.325L109.731 97.6657L119.21 96.6713C121.441 116.983 121.273 114.309 121.311 116.291C121.323 117.389 120.955 118.944 119.884 120.03Z" fill="black"/>
</g>
<defs>
<clipPath id="clip0_3875_2740">
<rect width="125" height="125" fill="white"/>
</clipPath>
</defs>
</svg>
