<svg width="15" height="15" viewBox="0 0 15 15" fill="none" xmlns="http://www.w3.org/2000/svg">
<g clip-path="url(#clip0_964_8846)">
<path d="M5.6375 13.125H1.5625C1.14825 13.1245 0.751112 12.9597 0.458194 12.6668C0.165276 12.3739 0.000496206 11.9767 0 11.5625L0 1.5625C0 0.700625 0.70125 0 1.5625 0H9.0625C9.92375 0 10.625 0.700625 10.625 1.5625V5.35C10.625 5.43288 10.5921 5.51237 10.5335 5.57097C10.4749 5.62958 10.3954 5.6625 10.3125 5.6625C10.2296 5.6625 10.1501 5.62958 10.0915 5.57097C10.0329 5.51237 10 5.43288 10 5.35V1.5625C10 1.04562 9.57938 0.625 9.0625 0.625H1.5625C1.04563 0.625 0.625 1.04562 0.625 1.5625V11.5625C0.625 12.0794 1.04563 12.5 1.5625 12.5H5.6375C5.72038 12.5 5.79987 12.5329 5.85847 12.5915C5.91708 12.6501 5.95 12.7296 5.95 12.8125C5.95 12.8954 5.91708 12.9749 5.85847 13.0335C5.79987 13.0921 5.72038 13.125 5.6375 13.125Z" fill="black"/>
<path d="M8.4375 5.625H2.1875C2.10462 5.625 2.02513 5.59208 1.96653 5.53347C1.90792 5.47487 1.875 5.39538 1.875 5.3125C1.875 5.22962 1.90792 5.15013 1.96653 5.09153C2.02513 5.03292 2.10462 5 2.1875 5H8.4375C8.52038 5 8.59987 5.03292 8.65847 5.09153C8.71708 5.15013 8.75 5.22962 8.75 5.3125C8.75 5.39538 8.71708 5.47487 8.65847 5.53347C8.59987 5.59208 8.52038 5.625 8.4375 5.625ZM5.9375 8.125H2.1875C2.10462 8.125 2.02513 8.09208 1.96653 8.03347C1.90792 7.97487 1.875 7.89538 1.875 7.8125C1.875 7.72962 1.90792 7.65013 1.96653 7.59153C2.02513 7.53292 2.10462 7.5 2.1875 7.5H5.9375C6.02038 7.5 6.09987 7.53292 6.15847 7.59153C6.21708 7.65013 6.25 7.72962 6.25 7.8125C6.25 7.89538 6.21708 7.97487 6.15847 8.03347C6.09987 8.09208 6.02038 8.125 5.9375 8.125ZM5.3125 3.125H2.1875C2.10462 3.125 2.02513 3.09208 1.96653 3.03347C1.90792 2.97487 1.875 2.89538 1.875 2.8125C1.875 2.72962 1.90792 2.65013 1.96653 2.59153C2.02513 2.53292 2.10462 2.5 2.1875 2.5H5.3125C5.39538 2.5 5.47487 2.53292 5.53347 2.59153C5.59208 2.65013 5.625 2.72962 5.625 2.8125C5.625 2.89538 5.59208 2.97487 5.53347 3.03347C5.47487 3.09208 5.39538 3.125 5.3125 3.125ZM10.9375 15C8.6975 15 6.875 13.1775 6.875 10.9375C6.875 8.6975 8.6975 6.875 10.9375 6.875C13.1775 6.875 15 8.6975 15 10.9375C15 13.1775 13.1775 15 10.9375 15ZM10.9375 7.5C9.04187 7.5 7.5 9.0425 7.5 10.9375C7.5 12.8325 9.04187 14.375 10.9375 14.375C12.8331 14.375 14.375 12.8325 14.375 10.9375C14.375 9.0425 12.8331 7.5 10.9375 7.5Z" fill="black"/>
<path d="M10.9375 13.125C10.8546 13.125 10.7751 13.0921 10.7165 13.0335C10.6579 12.9749 10.625 12.8954 10.625 12.8125V9.0625C10.625 8.97962 10.6579 8.90013 10.7165 8.84153C10.7751 8.78292 10.8546 8.75 10.9375 8.75C11.0204 8.75 11.0999 8.78292 11.1585 8.84153C11.2171 8.90013 11.25 8.97962 11.25 9.0625V12.8125C11.25 12.8954 11.2171 12.9749 11.1585 13.0335C11.0999 13.0921 11.0204 13.125 10.9375 13.125Z" fill="black"/>
<path d="M12.8125 11.25H9.0625C8.97962 11.25 8.90013 11.2171 8.84153 11.1585C8.78292 11.0999 8.75 11.0204 8.75 10.9375C8.75 10.8546 8.78292 10.7751 8.84153 10.7165C8.90013 10.6579 8.97962 10.625 9.0625 10.625H12.8125C12.8954 10.625 12.9749 10.6579 13.0335 10.7165C13.0921 10.7751 13.125 10.8546 13.125 10.9375C13.125 11.0204 13.0921 11.0999 13.0335 11.1585C12.9749 11.2171 12.8954 11.25 12.8125 11.25Z" fill="black"/>
</g>
<defs>
<clipPath id="clip0_964_8846">
<rect width="15" height="15" fill="white"/>
</clipPath>
</defs>
</svg>
