<svg id="a8bbfe42-81c0-4245-bcbf-a619793b30ce" data-name="Layer 1" xmlns="http://www.w3.org/2000/svg" viewBox="0 0 60 60">
  <path d="M43.59,40.76l-1.48-1.68A4.83,4.83,0,0,1,41,35.8l.26-8.24a11.58,11.58,0,0,0-3.18-8,10.87,10.87,0,0,0-4.46-2.85,3.59,3.59,0,1,0-7.18.08v.13l-.53.2a11.1,11.1,0,0,0-6.45,10.24v8.32a4.79,4.79,0,0,1-1.23,3.2l-1.75,1.9a1.71,1.71,0,0,0-.29,1.81,1.58,1.58,0,0,0,1.47,1h7.12a5.73,5.73,0,0,0,10.54,0h7.12a1.58,1.58,0,0,0,1.46-1A1.67,1.67,0,0,0,43.59,40.76ZM30,45.11a3.92,3.92,0,0,1-3.11-1.59h6.22A3.92,3.92,0,0,1,30,45.11ZM18.15,41.63l1.4-1.52a6.6,6.6,0,0,0,1.72-4.48V27.31a9.19,9.19,0,0,1,5.31-8.49c.34-.14.67-.26,1-.37l.66-.2V16.74a1.73,1.73,0,1,1,3.45,0v1.37l.71.18a8.88,8.88,0,0,1,4.28,2.53,9.69,9.69,0,0,1,2.66,6.71l-.26,8.21a6.53,6.53,0,0,0,1.63,4.59l1.14,1.3Z" fill="#231f20"></path>
</svg>
