<svg width="100" height="100" viewBox="0 0 100 100" fill="none" xmlns="http://www.w3.org/2000/svg">
<g clip-path="url(#clip0_1075_19773)">
<path d="M87.7102 75.7811C88.0987 75.7811 88.4713 75.6267 88.746 75.352C89.0207 75.0773 89.175 74.7047 89.175 74.3162V39.16C89.175 37.4115 88.4936 35.623 87.2563 34.124L76.3924 20.9611C75.8394 20.2885 75.1872 19.7039 74.4584 19.2273C74.502 18.7797 74.5268 18.3275 74.5268 17.8711V1.46484C74.5268 1.07634 74.3725 0.703754 74.0978 0.429043C73.823 0.154331 73.4505 0 73.062 0C72.6735 0 72.3009 0.154331 72.0261 0.429043C71.7514 0.703754 71.5971 1.07634 71.5971 1.46484C71.5971 1.46484 71.5942 18.0107 71.593 18.0807C71.1753 18.0064 70.7518 17.969 70.3276 17.9688H51.3823C50.0485 17.9688 48.7411 18.343 47.5705 19.0307C47.5194 19.0487 47.4694 19.0696 47.4205 19.0932L33.1411 26.0486C31.5547 26.8468 30.2953 28.1717 29.5786 29.7965C29.5707 29.8143 29.5633 29.832 29.5563 29.85L23.6524 44.825C23.5163 45.1851 23.5275 45.5842 23.6834 45.9362C23.8393 46.2881 24.1274 46.5646 24.4855 46.7058C24.8436 46.8469 25.2429 46.8415 25.597 46.6907C25.9511 46.5398 26.2317 46.2557 26.378 45.8996L32.2703 30.9535C32.7135 29.9635 33.4883 29.1523 34.4393 28.675L41.9838 25.0002L34.4534 34.1242C33.3258 35.4902 32.7299 37.2318 32.7299 39.1604V89.7463C32.7299 90.3354 32.7817 90.9121 32.8756 91.4742L17.7815 84.7859C14.3717 83.2752 12.8264 79.2621 14.3373 75.8402L14.3563 75.7955L23.9037 52.0682C24.0488 51.7077 24.0447 51.3045 23.8924 50.947C23.7401 50.5896 23.4521 50.3073 23.0916 50.1623C22.7312 50.0173 22.3279 50.0213 21.9705 50.1736C21.6131 50.3259 21.3308 50.614 21.1858 50.9744L11.6467 74.6797C9.5018 79.5723 11.7174 85.3031 16.5946 87.4641L34.2946 95.307C34.3162 95.3166 34.3383 95.3236 34.3602 95.332C36.1567 98.1391 39.2625 99.9998 42.7885 99.9998H78.9213C84.4795 99.9998 89.1752 95.3041 89.1752 89.7459V81.1521C89.1752 80.7636 89.0209 80.3911 88.7462 80.1163C88.4715 79.8416 88.0989 79.6873 87.7104 79.6873C87.3219 79.6873 86.9493 79.8416 86.6746 80.1163C86.3999 80.3911 86.2455 80.7636 86.2455 81.1521V89.7459C86.2455 93.716 82.8914 97.0701 78.9213 97.0701H42.7885C38.8577 97.0701 35.6596 93.7846 35.6596 89.7459V39.16C35.6596 37.9025 36.0139 36.8355 36.7129 35.9889L47.5768 22.826C48.5879 21.601 49.975 20.8982 51.3823 20.8982H70.3276C70.6035 20.8982 70.8786 20.9262 71.1502 20.9789C70.2332 24.1061 67.9618 26.7154 64.8944 28.023C64.0922 26.6814 62.6258 25.7811 60.9524 25.7811C58.4215 25.7811 56.3625 27.84 56.3625 30.3709C56.3625 32.9018 58.4215 34.9607 60.9524 34.9607C63.2928 34.9607 65.2284 33.1994 65.5067 30.9328C69.4518 29.4406 72.435 26.2789 73.7641 22.4197C73.8933 22.5494 74.0164 22.6849 74.133 22.826L84.9969 35.9891C85.802 36.9645 86.2455 38.0906 86.2455 39.1602V74.3164C86.2455 74.5088 86.2834 74.6992 86.357 74.8769C86.4306 75.0546 86.5385 75.2161 86.6745 75.3521C86.8105 75.4881 86.972 75.596 87.1497 75.6696C87.3274 75.7432 87.5178 75.7811 87.7102 75.7811ZM60.9524 32.0311C60.0369 32.0311 59.2922 31.2863 59.2922 30.3709C59.2922 29.4555 60.0369 28.7107 60.9524 28.7107C61.8678 28.7107 62.6125 29.4555 62.6125 30.3709C62.6125 31.2863 61.8678 32.0311 60.9524 32.0311Z" fill="#2B5CAB"/>
<path d="M48.2617 77.9297C48.4541 77.9299 48.6447 77.8922 48.8224 77.8185C49.0002 77.7449 49.1616 77.6368 49.2975 77.5006L74.2975 52.5006C74.5721 52.2259 74.7264 51.8533 74.7264 51.4648C74.7264 51.0764 74.5721 50.7038 74.2975 50.4291C74.0228 50.1544 73.6502 50.0001 73.2617 50.0001C72.8732 50.0001 72.5007 50.1544 72.226 50.4291L47.226 75.4291C46.292 76.2996 47.0086 77.974 48.2617 77.9297ZM51.3867 62.5C54.8867 62.5 57.7344 59.6523 57.7344 56.1523C57.7344 52.6523 54.8867 49.8047 51.3867 49.8047H51.1914C47.6914 49.8047 44.8438 52.6523 44.8438 56.1523C44.8438 59.6523 47.6914 62.5 51.1914 62.5H51.3867ZM47.7734 56.1523C47.7734 54.2678 49.3068 52.7344 51.1914 52.7344H51.3867C53.2713 52.7344 54.8047 54.2678 54.8047 56.1523C54.8047 58.0369 53.2713 59.5703 51.3867 59.5703H51.1914C49.3068 59.5703 47.7734 58.0369 47.7734 56.1523ZM70.332 77.9297H70.5273C74.0273 77.9297 76.875 75.082 76.875 71.582C76.875 68.082 74.0273 65.2344 70.5273 65.2344H70.332C66.832 65.2344 63.9844 68.082 63.9844 71.582C63.9844 75.082 66.832 77.9297 70.332 77.9297ZM70.332 68.1641H70.5273C72.4119 68.1641 73.9453 69.6975 73.9453 71.582C73.9453 73.4666 72.4119 75 70.5273 75H70.332C68.4475 75 66.9141 73.4666 66.9141 71.582C66.9141 69.6975 68.4475 68.1641 70.332 68.1641Z" fill="#2B5CAB"/>
</g>
<defs>
<clipPath id="clip0_1075_19773">
<rect width="100" height="100" fill="white"/>
</clipPath>
</defs>
</svg>
