<svg width="125" height="125" viewBox="0 0 125 125" fill="none" xmlns="http://www.w3.org/2000/svg">
<g clip-path="url(#clip0_3875_689)">
<path d="M7.5014 100.945C7.29969 100.945 7.09747 100.945 6.99712 100.844C6.49283 100.743 5.98854 100.339 5.78683 99.835L0.239677 89.5475C-0.264609 88.539 0.0374583 87.3294 1.04603 86.8251L4.37533 85.0087L2.55889 81.1764C2.15622 80.2694 2.45854 79.1592 3.26514 78.655L6.89676 76.3355L4.97997 72.3012C4.57604 71.393 4.87962 70.284 5.68597 69.7798L9.41819 67.2583L7.5014 63.0223C7.29969 62.6194 7.29969 62.1151 7.40105 61.7112L11.2334 47.0869C5.18194 41.5397 2.76086 32.7651 5.08032 24.394C6.6948 18.6451 10.4268 13.804 15.6703 10.8786C20.9152 7.95449 26.8663 7.24824 32.7157 8.86145C44.6169 12.1908 51.576 24.5959 48.1469 36.4969C45.8272 44.9694 38.8675 51.7258 31.0011 53.34L19.5039 93.4812C19.4023 93.9855 18.9996 94.3894 18.5957 94.6915L8.50997 100.541C8.2074 100.844 7.80397 100.945 7.5014 100.945ZM4.6774 89.4469L8.30826 96.103L15.8726 91.666L27.4711 51.1212C27.6729 50.3143 28.3789 49.81 29.0854 49.7087C35.9434 48.8017 42.0952 42.9522 44.214 35.4883C46.9361 25.7051 41.2886 15.6194 31.5052 12.8957C26.7649 11.5849 21.8234 12.1908 17.5871 14.5102C13.3511 16.93 10.2245 20.864 8.91391 25.5029C6.89676 32.6645 9.21623 40.2288 14.7634 44.7674C15.368 45.2717 15.6703 46.0783 15.4694 46.8849L11.5357 62.0135L13.8554 67.158C14.2588 68.0649 13.9568 69.0735 13.1489 69.6794L9.41819 72.0992L11.3337 76.0332C11.7377 76.9401 11.4353 78.0503 10.6277 78.5546L6.99712 80.8741L8.91391 84.808C9.41819 85.8166 9.01426 86.9255 8.10604 87.4298L4.6774 89.4469Z" fill="black"/>
<path d="M28.5824 30.3423C27.9765 30.3423 27.2703 30.2407 26.6656 30.0388C24.8502 29.5345 23.3374 28.3252 22.3288 26.7107C21.4211 25.0975 21.2188 23.1807 21.7231 21.3655C22.8333 17.6338 26.766 15.4144 30.498 16.423C32.3134 16.9273 33.8263 18.1378 34.8348 19.7523C35.7428 21.3655 35.9448 23.2823 35.4405 25.0975C34.5323 28.3249 31.7085 30.3421 28.5822 30.3421L28.5824 30.3423ZM28.5824 20.2566C27.2703 20.2566 25.9594 21.1636 25.6571 22.4745C25.4554 23.2823 25.5567 24.0889 25.9596 24.7952C26.3631 25.5002 27.0696 26.0045 27.7746 26.2064C29.389 26.7107 31.1039 25.7021 31.6082 24.0889C31.8089 23.2821 31.7085 22.4745 31.3046 21.7692C30.9019 21.0632 30.1956 20.5589 29.4894 20.357C29.0867 20.2566 28.8848 20.2566 28.5824 20.2566ZM45.9289 38.8136C41.5923 38.8136 37.558 37.4023 34.1296 34.7793C33.2214 34.0733 33.121 32.8638 33.7257 31.9555C34.4317 31.0473 35.6424 30.947 36.5497 31.5516C39.2728 33.6704 42.5002 34.6789 45.9289 34.6789C48.6523 34.6789 51.3757 33.9727 53.6951 32.5602C54.7037 31.9555 55.9143 32.3595 56.4185 33.2664C57.0232 34.275 56.6203 35.4855 55.7125 35.9898C52.7882 37.9066 49.3585 38.8136 45.9289 38.8136Z" fill="black"/>
<path d="M28.6812 20.2586H28.5809C27.4707 20.157 26.6641 19.25 26.6641 18.1398C27.3701 8.05412 35.8416 0.1875 45.9273 0.1875C54.9041 0.1875 62.8723 6.54151 64.7879 15.4164C64.9898 16.5266 64.3852 17.5352 63.275 17.8375C62.1661 18.0392 61.1575 17.4336 60.8552 16.3247C59.3423 9.1643 53.0889 4.12144 45.9273 4.12144C37.9603 4.12144 31.2026 10.3736 30.6984 18.3418C30.598 19.3504 29.6898 20.2586 28.6812 20.2586Z" fill="black"/>
<path d="M93.3339 86.0192C92.8296 86.0192 92.3253 85.8185 91.9226 85.4146L57.6312 51.1231C56.8243 50.3162 55.0081 48.1977 55.0081 45.6763L52.8906 23.3873V23.1856C52.8906 20.462 53.6975 18.4448 55.5124 16.529C57.3288 14.7141 59.346 13.9062 61.6655 13.9062H62.3715L84.6607 15.9234C87.2825 15.9234 89.2996 17.8402 90.1075 18.5464L124.399 52.8379C125.206 53.6445 125.206 54.8551 124.399 55.6617L94.7464 85.4146C94.4438 85.8185 93.9395 86.0192 93.3339 86.0192ZM56.9249 23.085L59.0424 45.374V45.5759C59.0424 46.3828 59.6483 47.3914 60.5553 48.2991L93.4355 81.1786L120.163 54.3505L87.2825 21.4708C86.3755 20.5638 85.2653 19.9579 84.5603 19.9579H84.3583L61.6655 17.8404C60.4549 17.8404 59.4463 18.3447 58.4378 19.3533C57.3288 20.4622 56.9249 21.4708 56.9249 23.085Z" fill="black"/>
<path d="M78.1034 50.6146C77.5991 50.6146 77.0948 50.4129 76.6909 50.0099C75.8843 49.2021 75.8843 47.9928 76.6909 47.1849L86.4743 37.4028C87.2812 36.5949 88.4914 36.5949 89.2983 37.4028C90.1059 38.2094 90.1059 39.4199 89.2983 40.2265L79.5159 50.0097C79.112 50.4126 78.6077 50.6146 78.1034 50.6146ZM89.5003 62.0112C88.996 62.0112 88.4917 61.8095 88.0888 61.4066C87.2809 60.5997 87.2809 59.3894 88.0888 58.5826L97.8709 48.7994C98.6788 47.9925 99.8881 47.9925 100.696 48.7994C101.503 49.606 101.503 50.8165 100.696 51.6231L90.9125 61.4063C90.5086 61.8092 90.0043 62.0114 89.5 62.0114L89.5003 62.0112Z" fill="black"/>
</g>
<defs>
<clipPath id="clip0_3875_689">
<rect width="125" height="125" fill="white"/>
</clipPath>
</defs>
</svg>
