<svg width="30" height="30" viewBox="0 0 30 30" fill="none" xmlns="http://www.w3.org/2000/svg">
<mask id="path-1-inside-1_964_6410" fill="white">
<path d="M23.3164 11.7472C23.3164 11.5998 23.2579 11.4584 23.1538 11.3542C23.0496 11.25 22.9084 11.1914 22.7611 11.1914H18.5408C18.3936 11.1914 18.2523 11.25 18.1482 11.3542C18.0441 11.4584 17.9856 11.5998 17.9856 11.7472C17.9856 11.8946 18.0441 12.0359 18.1482 12.1402C18.2523 12.2444 18.3936 12.303 18.5408 12.303H19.7485C19.9822 12.3016 20.2115 12.3661 20.4103 12.4889C20.6091 12.6117 20.7694 12.788 20.8729 12.9977H18.5408C18.3936 12.9977 18.2523 13.0562 18.1482 13.1605C18.0441 13.2647 17.9856 13.406 17.9856 13.5534C17.9856 13.7008 18.0441 13.8422 18.1482 13.9464C18.2523 14.0507 18.3936 14.1092 18.5408 14.1092H20.8729C20.6675 14.526 20.2413 14.8734 19.7485 14.8734H18.5408C18.4309 14.8697 18.3224 14.8998 18.2301 14.9597C18.1377 15.0195 18.0659 15.1063 18.0243 15.2083C17.9827 15.3102 17.9733 15.4225 17.9974 15.5299C18.0215 15.6374 18.078 15.7349 18.1591 15.8093L21.1778 18.6605C21.2855 18.7602 21.4283 18.8134 21.575 18.8083C21.7217 18.8032 21.8604 18.7403 21.961 18.6333C22.0616 18.5263 22.1159 18.3838 22.112 18.2369C22.1081 18.0901 22.0465 17.9507 21.9404 17.8491L19.929 15.9309C20.4322 15.8994 20.9114 15.7045 21.2938 15.3757C21.6763 15.047 21.9413 14.6023 22.0484 14.1092H22.7611C22.9084 14.1092 23.0496 14.0507 23.1538 13.9464C23.2579 13.8422 23.3164 13.7008 23.3164 13.5534C23.3164 13.406 23.2579 13.2647 23.1538 13.1605C23.0496 13.0562 22.9084 12.9977 22.7611 12.9977H22.048C21.9809 12.7539 21.8815 12.5202 21.7523 12.303H22.7611C22.9084 12.303 23.0496 12.2444 23.1538 12.1402C23.2579 12.0359 23.3164 11.8946 23.3164 11.7472Z"/>
</mask>
<path d="M23.3164 11.7472C23.3164 11.5998 23.2579 11.4584 23.1538 11.3542C23.0496 11.25 22.9084 11.1914 22.7611 11.1914H18.5408C18.3936 11.1914 18.2523 11.25 18.1482 11.3542C18.0441 11.4584 17.9856 11.5998 17.9856 11.7472C17.9856 11.8946 18.0441 12.0359 18.1482 12.1402C18.2523 12.2444 18.3936 12.303 18.5408 12.303H19.7485C19.9822 12.3016 20.2115 12.3661 20.4103 12.4889C20.6091 12.6117 20.7694 12.788 20.8729 12.9977H18.5408C18.3936 12.9977 18.2523 13.0562 18.1482 13.1605C18.0441 13.2647 17.9856 13.406 17.9856 13.5534C17.9856 13.7008 18.0441 13.8422 18.1482 13.9464C18.2523 14.0507 18.3936 14.1092 18.5408 14.1092H20.8729C20.6675 14.526 20.2413 14.8734 19.7485 14.8734H18.5408C18.4309 14.8697 18.3224 14.8998 18.2301 14.9597C18.1377 15.0195 18.0659 15.1063 18.0243 15.2083C17.9827 15.3102 17.9733 15.4225 17.9974 15.5299C18.0215 15.6374 18.078 15.7349 18.1591 15.8093L21.1778 18.6605C21.2855 18.7602 21.4283 18.8134 21.575 18.8083C21.7217 18.8032 21.8604 18.7403 21.961 18.6333C22.0616 18.5263 22.1159 18.3838 22.112 18.2369C22.1081 18.0901 22.0465 17.9507 21.9404 17.8491L19.929 15.9309C20.4322 15.8994 20.9114 15.7045 21.2938 15.3757C21.6763 15.047 21.9413 14.6023 22.0484 14.1092H22.7611C22.9084 14.1092 23.0496 14.0507 23.1538 13.9464C23.2579 13.8422 23.3164 13.7008 23.3164 13.5534C23.3164 13.406 23.2579 13.2647 23.1538 13.1605C23.0496 13.0562 22.9084 12.9977 22.7611 12.9977H22.048C21.9809 12.7539 21.8815 12.5202 21.7523 12.303H22.7611C22.9084 12.303 23.0496 12.2444 23.1538 12.1402C23.2579 12.0359 23.3164 11.8946 23.3164 11.7472Z" fill="#2B5CAB"/>
<path d="M19.7485 12.303V14.303L19.7598 14.3029L19.7485 12.303ZM20.8729 12.9977V14.9977H24.0912L22.6662 12.1121L20.8729 12.9977ZM20.8729 14.1092L22.6669 14.9934L24.0884 12.1092H20.8729V14.1092ZM18.5408 14.8734L18.4734 16.8723L18.5071 16.8734H18.5408V14.8734ZM18.1591 15.8093L19.5324 14.3553L19.5216 14.3451L19.5107 14.3351L18.1591 15.8093ZM21.1778 18.6605L19.8045 20.1144L19.8116 20.1212L19.8189 20.1279L21.1778 18.6605ZM21.9404 17.8491L23.3237 16.4046L23.3207 16.4017L21.9404 17.8491ZM19.929 15.9309L19.804 13.9348L15.2376 14.2206L18.5487 17.3783L19.929 15.9309ZM22.0484 14.1092V12.1092H20.4363L20.094 13.6845L22.0484 14.1092ZM22.048 12.9977L20.1196 13.5282L20.524 14.9977H22.048V12.9977ZM21.7523 12.303V10.303H18.2369L20.0331 13.3249L21.7523 12.303ZM25.3164 11.7472C25.3164 11.07 25.0476 10.4201 24.5686 9.94063L21.7389 12.7677C21.4682 12.4968 21.3164 12.1296 21.3164 11.7472H25.3164ZM24.5686 9.94063C24.0896 9.46112 23.4394 9.19141 22.7611 9.19141V13.1914C22.3774 13.1914 22.0097 13.0388 21.7389 12.7677L24.5686 9.94063ZM22.7611 9.19141H18.5408V13.1914H22.7611V9.19141ZM18.5408 9.19141C17.8625 9.19141 17.2124 9.46112 16.7333 9.94063L19.5631 12.7677C19.2923 13.0388 18.9246 13.1914 18.5408 13.1914V9.19141ZM16.7333 9.94063C16.2543 10.4201 15.9856 11.0699 15.9856 11.7472H19.9856C19.9856 12.1296 19.8338 12.4968 19.5631 12.7677L16.7333 9.94063ZM15.9856 11.7472C15.9856 12.4244 16.2543 13.0743 16.7333 13.5537L19.5631 10.7266C19.8338 10.9976 19.9856 11.3647 19.9856 11.7472H15.9856ZM16.7333 13.5537C17.2124 14.0332 17.8625 14.303 18.5408 14.303V10.303C18.9246 10.303 19.2923 10.4556 19.5631 10.7266L16.7333 13.5537ZM18.5408 14.303H19.7485V10.303H18.5408V14.303ZM19.7598 14.3029C19.6182 14.3037 19.4793 14.2647 19.359 14.1903L21.4615 10.7875C20.9436 10.4675 20.3461 10.2995 19.7372 10.303L19.7598 14.3029ZM19.359 14.1903C19.2388 14.116 19.142 14.0096 19.0797 13.8833L22.6662 12.1121C22.3967 11.5665 21.9794 11.1074 21.4615 10.7875L19.359 14.1903ZM20.8729 10.9977H18.5408V14.9977H20.8729V10.9977ZM18.5408 10.9977C17.8625 10.9977 17.2124 11.2674 16.7333 11.7469L19.5631 14.574C19.2923 14.8451 18.9246 14.9977 18.5408 14.9977V10.9977ZM16.7333 11.7469C16.2543 12.2263 15.9856 12.8762 15.9856 13.5534H19.9856C19.9856 13.9359 19.8338 14.303 19.5631 14.574L16.7333 11.7469ZM15.9856 13.5534C15.9856 14.2307 16.2543 14.8806 16.7333 15.36L19.5631 12.5329C19.8338 12.8039 19.9856 13.171 19.9856 13.5534H15.9856ZM16.7333 15.36C17.2124 15.8395 17.8625 16.1092 18.5408 16.1092V12.1092C18.9246 12.1092 19.2923 12.2618 19.5631 12.5329L16.7333 15.36ZM18.5408 16.1092H20.8729V12.1092H18.5408V16.1092ZM19.079 13.225C19.1155 13.151 19.1686 13.0828 19.2532 13.0221C19.3438 12.9572 19.5136 12.8734 19.7485 12.8734V16.8734C21.1978 16.8734 22.2204 15.8993 22.6669 14.9934L19.079 13.225ZM19.7485 12.8734H18.5408V16.8734H19.7485V12.8734ZM18.6083 12.8745C18.0893 12.857 17.5776 12.9991 17.1421 13.2815L19.318 16.6379C19.0672 16.8005 18.7724 16.8824 18.4734 16.8723L18.6083 12.8745ZM17.1421 13.2815C16.7066 13.5638 16.3683 13.9727 16.1725 14.4529L19.8762 15.9636C19.7635 16.2399 19.5688 16.4753 19.318 16.6379L17.1421 13.2815ZM16.1725 14.4529C15.9766 14.933 15.9325 15.4616 16.0459 15.9676L19.949 15.0923C20.0142 15.3833 19.9889 15.6874 19.8762 15.9636L16.1725 14.4529ZM16.0459 15.9676C16.1594 16.4735 16.4251 16.9328 16.8075 17.2835L19.5107 14.3351C19.7308 14.5369 19.8837 14.8012 19.949 15.0923L16.0459 15.9676ZM16.7858 17.2632L19.8045 20.1144L22.5511 17.2065L19.5324 14.3553L16.7858 17.2632ZM19.8189 20.1279C20.3138 20.5862 20.9699 20.8305 21.6444 20.8071L21.5056 16.8095C21.8867 16.7962 22.2573 16.9343 22.5366 17.193L19.8189 20.1279ZM21.6444 20.8071C22.3189 20.7836 22.9564 20.4944 23.4183 20.003L20.5037 17.2635C20.7644 16.9861 21.1245 16.8227 21.5056 16.8095L21.6444 20.8071ZM23.4183 20.003C23.8801 19.5117 24.129 18.8581 24.1113 18.1844L20.1127 18.2894C20.1027 17.9095 20.2431 17.5408 20.5037 17.2635L23.4183 20.003ZM24.1113 18.1844C24.0936 17.5108 23.8108 16.8711 23.3237 16.4046L20.5571 19.2935C20.2822 19.0303 20.1227 18.6693 20.1127 18.2894L24.1113 18.1844ZM23.3207 16.4017L21.3093 14.4835L18.5487 17.3783L20.5601 19.2965L23.3207 16.4017ZM20.0539 17.927C20.9919 17.8683 21.8849 17.505 22.5975 16.8925L19.9902 13.859C19.9378 13.904 19.8724 13.9305 19.804 13.9348L20.0539 17.927ZM22.5975 16.8925C23.3101 16.28 23.8033 15.4519 24.0028 14.5339L20.094 13.6845C20.0792 13.7528 20.0426 13.814 19.9902 13.859L22.5975 16.8925ZM22.0484 16.1092H22.7611V12.1092H22.0484V16.1092ZM22.7611 16.1092C23.4394 16.1092 24.0896 15.8395 24.5686 15.36L21.7389 12.5329C22.0097 12.2618 22.3774 12.1092 22.7611 12.1092V16.1092ZM24.5686 15.36C25.0476 14.8805 25.3164 14.2307 25.3164 13.5534H21.3164C21.3164 13.171 21.4682 12.8039 21.7389 12.5329L24.5686 15.36ZM25.3164 13.5534C25.3164 12.8762 25.0476 12.2263 24.5686 11.7469L21.7389 14.574C21.4682 14.303 21.3164 13.9359 21.3164 13.5534H25.3164ZM24.5686 11.7469C24.0896 11.2674 23.4394 10.9977 22.7611 10.9977V14.9977C22.3774 14.9977 22.0097 14.8451 21.7389 14.574L24.5686 11.7469ZM22.7611 10.9977H22.048V14.9977H22.7611V10.9977ZM23.9763 12.4671C23.8618 12.051 23.6921 11.6521 23.4715 11.2811L20.0331 13.3249C20.0709 13.3884 20.1 13.4568 20.1196 13.5282L23.9763 12.4671ZM21.7523 14.303H22.7611V10.303H21.7523V14.303ZM22.7611 14.303C23.4394 14.303 24.0896 14.0332 24.5686 13.5537L21.7389 10.7266C22.0097 10.4556 22.3774 10.303 22.7611 10.303V14.303ZM24.5686 13.5537C25.0476 13.0743 25.3164 12.4244 25.3164 11.7472H21.3164C21.3164 11.3648 21.4682 10.9976 21.7389 10.7266L24.5686 13.5537Z" fill="#2B5CAB" mask="url(#path-1-inside-1_964_6410)"/>
<path d="M9.60938 22.5234C9.9977 22.5234 10.3125 22.2086 10.3125 21.8203C10.3125 21.432 9.9977 21.1172 9.60938 21.1172C9.22105 21.1172 8.90625 21.432 8.90625 21.8203C8.90625 22.2086 9.22105 22.5234 9.60938 22.5234Z" fill="#1D1D1D"/>
<path d="M11.9531 22.5234C12.3415 22.5234 12.6562 22.2086 12.6562 21.8203C12.6562 21.432 12.3415 21.1172 11.9531 21.1172C11.5648 21.1172 11.25 21.432 11.25 21.8203C11.25 22.2086 11.5648 22.5234 11.9531 22.5234Z" fill="#1D1D1D"/>
<path d="M13.3584 4.91211H9.14062C8.7523 4.91211 8.4375 5.22691 8.4375 5.61523C8.4375 6.00356 8.7523 6.31836 9.14062 6.31836H13.3584C13.7468 6.31836 14.0616 6.00356 14.0616 5.61523C14.0616 5.22691 13.7468 4.91211 13.3584 4.91211Z" fill="#1D1D1D"/>
<path d="M11.4825 7.32422H9.14062C8.7523 7.32422 8.4375 7.63902 8.4375 8.02734C8.4375 8.41567 8.7523 8.73047 9.14062 8.73047H11.4825C11.8708 8.73047 12.1856 8.41567 12.1856 8.02734C12.1856 7.63902 11.8708 7.32422 11.4825 7.32422Z" fill="#1D1D1D"/>
<path d="M20.625 23.2031C16.1016 23.2031 12.4219 19.5234 12.4219 15C12.4219 10.4766 16.1016 6.79688 20.625 6.79688C25.1484 6.79688 28.8281 10.4766 28.8281 15C28.8281 19.5234 25.1484 23.2031 20.625 23.2031ZM20.625 8.20312C16.8769 8.20312 13.8281 11.2519 13.8281 15C13.8281 18.7481 16.8769 21.7969 20.625 21.7969C24.3731 21.7969 27.4219 18.7481 27.4219 15C27.4219 11.2519 24.3731 8.20312 20.625 8.20312Z" fill="#1D1D1D"/>
<path d="M21.4978 28.6828C21.2475 28.6828 20.9962 28.6256 20.7656 28.5103L17.9869 27.1209C17.9498 27.1024 17.9085 27.0941 17.8672 27.0967C17.8259 27.0993 17.786 27.1129 17.7516 27.1359L15.9103 28.3641C15.6408 28.5438 15.324 28.6398 15 28.6398C14.676 28.6398 14.3592 28.5438 14.0897 28.3641L12.2484 27.1359C12.2142 27.1132 12.1747 27.0999 12.1337 27.0972C12.0928 27.0946 12.0518 27.1028 12.015 27.1209L9.23625 28.5103C8.9771 28.6397 8.68835 28.6984 8.39925 28.6802C8.11015 28.6621 7.83097 28.5679 7.59 28.4072L5.65219 27.1125C5.42775 26.9625 5.24377 26.7594 5.11654 26.5213C4.98932 26.2833 4.92278 26.0175 4.92281 25.7475V7.65938H6.32906V25.7475L6.43312 25.9425L8.37187 27.2372C8.40627 27.2603 8.44617 27.2738 8.48751 27.2764C8.52884 27.2791 8.57014 27.2707 8.60719 27.2522L11.3859 25.8628C11.6446 25.7335 11.9328 25.6749 12.2214 25.6928C12.51 25.7107 12.7887 25.8046 13.0294 25.965L14.8697 27.1922C14.9083 27.2179 14.9536 27.2316 15 27.2316C15.0464 27.2316 15.0917 27.2179 15.1303 27.1922L16.9706 25.965C17.2114 25.8045 17.4903 25.7105 17.7791 25.6925C18.0678 25.6746 18.3562 25.7333 18.615 25.8628L21.3928 27.2513C21.4299 27.2698 21.4712 27.2781 21.5125 27.2755C21.5538 27.2729 21.5937 27.2593 21.6281 27.2363L23.5669 25.9416L23.6709 25.7466V24.5353C23.6709 24.3488 23.745 24.17 23.8769 24.0381C24.0087 23.9063 24.1876 23.8322 24.3741 23.8322C24.5605 23.8322 24.7394 23.9063 24.8712 24.0381C25.0031 24.17 25.0772 24.3488 25.0772 24.5353V25.7466C25.0772 26.295 24.8034 26.8069 24.3478 27.1116L22.41 28.4063C22.1394 28.5861 21.8218 28.682 21.4969 28.6819L21.4978 28.6828ZM24.375 6.31875C24.1885 6.31875 24.0097 6.24467 23.8778 6.11281C23.746 5.98095 23.6719 5.80211 23.6719 5.61563V4.6875C23.6719 4.12806 23.4496 3.59153 23.0541 3.19595C22.6585 2.80036 22.1219 2.57813 21.5625 2.57813H3.75V1.17188H21.5625C22.4949 1.17188 23.3891 1.54227 24.0484 2.20158C24.7077 2.86089 25.0781 3.7551 25.0781 4.6875V5.61563C25.0781 5.80211 25.004 5.98095 24.8722 6.11281C24.7403 6.24467 24.5615 6.31875 24.375 6.31875Z" fill="#1D1D1D"/>
<path d="M6.32812 15.7031H3.75C3.06639 15.7026 2.41092 15.4308 1.92754 14.9475C1.44415 14.4641 1.17237 13.8086 1.17188 13.125V3.75C1.17188 2.32781 2.32781 1.17188 3.75 1.17188C5.17219 1.17188 6.32812 2.32781 6.32812 3.75V15.7031ZM3.75 2.57812C3.10406 2.57812 2.57813 3.10406 2.57813 3.75V13.125C2.57813 13.7709 3.10406 14.2969 3.75 14.2969H4.92188V3.75C4.92188 3.10406 4.39594 2.57812 3.75 2.57812Z" fill="#1D1D1D"/>
</svg>
