<svg xmlns="http://www.w3.org/2000/svg" width="23" height="18" viewBox="0 0 23 18" fill="none">
<path fill-rule="evenodd" clip-rule="evenodd" d="M0 3C0 1.34315 1.28718 0 2.875 0H20.125C21.7128 0 23 1.34315 23 3V15C23 16.6569 21.7128 18 20.125 18H2.875C1.28718 18 0 16.6569 0 15V3ZM1.91667 3C1.91667 2.44772 2.34573 2 2.875 2H20.125C20.6543 2 21.0833 2.44772 21.0833 3V6H1.91667V3ZM21.0833 8V15C21.0833 15.5523 20.6543 16 20.125 16H2.875C2.34573 16 1.91667 15.5523 1.91667 15V8H21.0833Z" fill="#DBDBDB"/>
</svg>