<svg xmlns="http://www.w3.org/2000/svg" width="11" height="11" viewBox="0 0 11 11" fill="none">
<path d="M8.28692 0.149362C8.52498 0.0507533 8.78014 0 9.03782 0C9.29549 0 9.55065 0.0507533 9.78871 0.149362C10.0268 0.247971 10.2431 0.392505 10.4253 0.57471C10.6075 0.756915 10.752 0.973225 10.8506 1.21129C10.9492 1.44935 11 1.70451 11 1.96218C11 2.21986 10.9492 2.47501 10.8506 2.71308C10.752 2.95114 10.6075 3.16745 10.4253 3.34966L10.1403 3.63464L7.36536 0.859695L7.65034 0.57471C7.83255 0.392505 8.04886 0.247971 8.28692 0.149362Z" fill="#858585"/>
<path d="M6.58754 1.63751L0.910028 7.31503C0.842347 7.38271 0.793501 7.46688 0.768317 7.55922L0.0193926 10.3053C-0.0325391 10.4957 0.0215414 10.6993 0.161104 10.8389C0.300666 10.9785 0.50431 11.0325 0.694726 10.9806L3.44078 10.2317C3.53312 10.2065 3.61729 10.1577 3.68497 10.09L9.36249 4.41246L6.58754 1.63751Z" fill="#858585"/>
</svg>