<svg width="71" height="74" viewBox="0 0 71 74" fill="none" xmlns="http://www.w3.org/2000/svg">
<path d="M5.76069 27.7731C7.22636 27.7731 8.632 28.3553 9.66839 29.3917C10.7048 30.4281 11.287 31.8337 11.287 33.2994C11.2866 38.5328 13.311 43.5635 16.9364 47.3378C20.5617 51.1122 25.5067 53.3375 30.736 53.5478L31.5502 53.5625H40.326C39.3953 52.5269 38.8898 51.1782 38.9107 49.786C38.9315 48.3938 39.4771 47.0608 40.4383 46.0535C41.3995 45.0462 42.7055 44.4388 44.0952 44.3529C45.4849 44.2669 46.8558 44.7087 47.9338 45.5899L48.3538 45.9694L57.5644 55.1799C58.4492 56.0615 59.0078 57.2178 59.1486 58.4589L59.1817 59.0373V59.1404C59.1731 60.4171 58.7197 61.6509 57.8996 62.6294L57.5423 63.0162L48.3538 72.2083C47.3708 73.2001 46.0488 73.7829 44.6535 73.8396C43.2583 73.8963 41.8933 73.4228 40.833 72.5141C39.7727 71.6055 39.0957 70.3291 38.938 68.9417C38.7804 67.5542 39.1539 66.1585 39.9833 65.0352L40.326 64.6152H31.5502C23.2447 64.6152 15.2794 61.3158 9.40656 55.443C3.53371 49.5701 0.234375 41.6048 0.234375 33.2994C0.234375 31.8337 0.81661 30.4281 1.853 29.3917C2.88938 28.3553 4.29502 27.7731 5.76069 27.7731ZM22.1186 1.76255C23.1047 0.786562 24.4219 0.217213 25.8084 0.1676C27.195 0.117987 28.5495 0.59174 29.6028 1.49475C30.6562 2.39776 31.3313 3.66395 31.4942 5.04181C31.657 6.41966 31.2956 7.80835 30.4817 8.93202L30.1428 9.35202H38.9186C47.2241 9.35202 55.1893 12.6514 61.0622 18.5242C66.935 24.3971 70.2344 32.3623 70.2344 40.6678C70.2344 42.1335 69.6521 43.5391 68.6158 44.5755C67.5794 45.6119 66.1737 46.1941 64.7081 46.1941C63.2424 46.1941 61.8368 45.6119 60.8004 44.5755C59.764 43.5391 59.1817 42.1335 59.1817 40.6678C59.1822 35.4344 57.1577 30.4037 53.5324 26.6294C49.9071 22.855 44.962 20.6297 39.7328 20.4194L38.9186 20.4047H30.1428C31.0735 21.4403 31.5789 22.789 31.5581 24.1812C31.5373 25.5734 30.9917 26.9064 30.0305 27.9137C29.0692 28.921 27.7632 29.5284 26.3735 29.6143C24.9838 29.7003 23.6129 29.2585 22.5349 28.3773L22.1186 27.9941L12.9081 18.7836C11.9401 17.8163 11.3654 16.5243 11.2953 15.1576C11.2252 13.791 11.6647 12.447 12.5286 11.3857L12.9081 10.9657L22.1186 1.75518V1.76255Z" fill="#ED1F28"/>
</svg>
