<svg width="10" height="10" viewBox="0 0 10 10" fill="none" xmlns="http://www.w3.org/2000/svg">
<path d="M6.87502 4.99998C6.87506 5.04102 6.86699 5.08167 6.85128 5.11958C6.83557 5.1575 6.81252 5.19194 6.78346 5.22092L3.65846 8.34592C3.53635 8.46803 3.33861 8.46803 3.21658 8.34592C3.09455 8.22381 3.09447 8.02607 3.21658 7.90404L6.12064 4.99998L3.21658 2.09592C3.09447 1.97381 3.09447 1.77607 3.21658 1.65404C3.33869 1.53201 3.53643 1.53193 3.65846 1.65404L6.78346 4.77904C6.81252 4.80802 6.83557 4.84246 6.85128 4.88038C6.86699 4.91829 6.87506 4.95894 6.87502 4.99998Z" fill="#ED1F28"/>
</svg>
