<svg width="82" height="82" viewBox="0 0 82 82" fill="none" xmlns="http://www.w3.org/2000/svg">
<circle cx="40.6347" cy="40.6347" r="39.4737" fill="white" stroke="#ED1F28" stroke-width="2.32198"/>
<path d="M32.2695 42.375V26.4375C32.2695 25.6916 32.5658 24.9762 33.0933 24.4488C33.6207 23.9213 34.3361 23.625 35.082 23.625C35.828 23.625 36.5433 23.9213 37.0708 24.4488C37.5982 24.9762 37.8945 25.6916 37.8945 26.4375V40.5M37.8945 39.5625V35.8125C37.8945 35.0666 38.1908 34.3512 38.7183 33.8238C39.2457 33.2963 39.9611 33 40.707 33C41.453 33 42.1683 33.2963 42.6958 33.8238C43.2232 34.3512 43.5195 35.0666 43.5195 35.8125V40.5M43.5195 37.6875C43.5195 36.9416 43.8158 36.2262 44.3433 35.6988C44.8707 35.1713 45.5861 34.875 46.332 34.875C47.078 34.875 47.7933 35.1713 48.3208 35.6988C48.8482 36.2262 49.1445 36.9416 49.1445 37.6875V40.5" stroke="#ED1F28" stroke-width="2" stroke-linecap="round" stroke-linejoin="round"/>
<path d="M49.1445 39.5625C49.1445 38.8166 49.4408 38.1012 49.9683 37.5738C50.4957 37.0463 51.2111 36.75 51.957 36.75C52.703 36.75 53.4183 37.0463 53.9458 37.5738C54.4732 38.1012 54.7695 38.8166 54.7695 39.5625V48C54.7695 50.9837 53.5843 53.8452 51.4745 55.955C49.3647 58.0647 46.5032 59.25 43.5195 59.25H39.7695H40.1595C38.2964 59.2503 36.4624 58.7879 34.8221 57.9043C33.1819 57.0207 31.7867 55.7435 30.762 54.1875L30.3945 53.625C29.8095 52.7269 27.7564 49.1475 24.2333 42.885C23.8741 42.2466 23.7782 41.4933 23.9659 40.7853C24.1536 40.0773 24.6101 39.4704 25.2383 39.0938C25.9074 38.6922 26.6915 38.5258 27.4661 38.621C28.2406 38.7161 28.9612 39.0673 29.5133 39.6187L32.2695 42.375M26.6445 23.625L24.7695 21.75M24.7695 31.125H22.8945M43.5195 23.625L45.3945 21.75M45.3945 29.25H47.2695" stroke="#ED1F28" stroke-width="2" stroke-linecap="round" stroke-linejoin="round"/>
</svg>
