<svg width="82" height="82" viewBox="0 0 82 82" fill="none" xmlns="http://www.w3.org/2000/svg">
<circle cx="40.6347" cy="40.6347" r="39.4737" fill="white" stroke="#ED1F28" stroke-width="2.32198"/>
<path d="M28.2059 48.8662H29.8652V45.9094H50.4902V48.8662H52.1496V42.4406C52.1496 41.9531 52.0246 41.4438 51.7746 40.9125C51.5246 40.3825 51.1809 39.9587 50.7434 39.6413V36.4612C50.7434 35.5987 50.454 34.8781 49.8752 34.2994C49.2977 33.7219 48.5771 33.4331 47.7134 33.4331H42.2684C41.7809 33.4331 41.3627 33.5219 41.014 33.6994C40.6652 33.8769 40.3865 34.12 40.1777 34.4288C39.969 34.12 39.6902 33.8769 39.3415 33.6994C38.9927 33.5219 38.574 33.4331 38.0852 33.4331H32.644C31.7815 33.4331 31.0609 33.7219 30.4821 34.2994C29.9034 34.8781 29.614 35.5987 29.614 36.4612V39.6413C29.1765 39.9587 28.8327 40.3825 28.5827 40.9125C28.3327 41.4425 28.2077 41.9519 28.2077 42.4406L28.2059 48.8662ZM29.8652 44.25V42.375C29.8652 41.8438 30.0452 41.3988 30.4052 41.04C30.7652 40.6812 31.2102 40.5012 31.7402 40.5H48.6152C49.1465 40.5 49.5921 40.68 49.9521 41.04C50.3121 41.4 50.4915 41.845 50.4902 42.375V44.25H29.8652ZM31.2715 38.8406V36.2456C31.2715 35.9081 31.3796 35.6313 31.5959 35.415C31.8121 35.1988 32.0884 35.0906 32.4246 35.0906H38.194C38.5315 35.0906 38.8084 35.1988 39.0246 35.415C39.2409 35.6325 39.349 35.9094 39.349 36.2456V38.8406H31.2715ZM41.0065 38.8406V36.2456C41.0065 35.9081 41.1146 35.6313 41.3309 35.415C41.5471 35.1988 41.824 35.0906 42.1615 35.0906H47.9309C48.2671 35.0906 48.5434 35.1988 48.7596 35.415C48.9759 35.6313 49.084 35.9081 49.084 36.2456V38.8406H41.0065ZM26.3309 57.375C25.4684 57.375 24.7484 57.0863 24.1709 56.5088C23.5921 55.93 23.3027 55.2094 23.3027 54.3469V26.6531C23.3027 25.7906 23.5921 25.0706 24.1709 24.4931C24.7484 23.9144 25.4684 23.625 26.3309 23.625H54.0246C54.8871 23.625 55.6071 23.9144 56.1846 24.4931C56.7634 25.0706 57.0527 25.7906 57.0527 26.6531V54.3469C57.0527 55.2094 56.764 55.9294 56.1865 56.5069C55.6077 57.0856 54.8871 57.375 54.0246 57.375H26.3309ZM26.3309 55.5H54.0246C54.3121 55.5 54.5765 55.38 54.8177 55.14C55.0577 54.8988 55.1777 54.6344 55.1777 54.3469V26.6531C55.1777 26.3656 55.0577 26.1012 54.8177 25.86C54.5765 25.62 54.3121 25.5 54.0246 25.5H26.3309C26.0434 25.5 25.779 25.62 25.5377 25.86C25.2977 26.1012 25.1777 26.3656 25.1777 26.6531V54.3469C25.1777 54.6344 25.2977 54.8988 25.5377 55.14C25.779 55.38 26.0434 55.5 26.3309 55.5Z" fill="#ED1F28"/>
</svg>
