<svg width="125" height="125" viewBox="0 0 125 125" fill="none" xmlns="http://www.w3.org/2000/svg">
<g clip-path="url(#clip0_3875_702)">
<path d="M123.374 89.9801L111.738 85.745C111.483 85.6527 111.213 85.6115 110.942 85.6238C110.671 85.6361 110.405 85.7016 110.16 85.8166C109.915 85.9316 109.694 86.0938 109.511 86.294C109.329 86.4941 109.187 86.7284 109.095 86.9832L108.389 88.9211L94.9086 84.0057C94.5698 83.8791 94.2029 83.847 93.8473 83.9129L65.8013 88.8659C64.5473 89.0893 63.3618 89.5992 62.3372 90.3558C61.3126 91.1124 60.4765 92.0954 59.894 93.2282L47.029 88.5352C46.0116 88.161 44.9298 87.9931 43.8468 88.041C42.7638 88.0889 41.7011 88.3518 40.7206 88.8143C39.4821 89.392 38.406 90.2676 37.5885 91.3627C36.771 92.4579 36.2376 93.7385 36.0359 95.0902C35.522 99.0648 37.876 102.853 41.6679 104.151L84.0465 119.576C84.2725 119.66 84.5119 119.703 84.7531 119.702C84.9775 119.702 85.2004 119.665 85.4129 119.594L97.2484 115.598L98.508 116.055L97.8017 117.995C97.6153 118.51 97.6411 119.078 97.8733 119.574C98.1055 120.07 98.5252 120.453 99.04 120.64L110.678 124.874C110.903 124.958 111.141 125 111.381 125C111.805 125 112.218 124.87 112.565 124.627C112.913 124.384 113.176 124.04 113.321 123.642L124.614 92.6114C124.797 92.0978 124.769 91.5329 124.537 91.04C124.304 90.547 123.886 90.166 123.374 89.9801ZM96.6125 111.461L84.777 115.457L43.0787 100.278C42.1418 99.9661 41.3385 99.3456 40.8001 98.5178C40.2617 97.6901 40.0201 96.7041 40.1149 95.7212C40.2893 94.4876 41.0109 93.3995 42.0791 92.7574C42.6064 92.441 43.1978 92.2465 43.8099 92.1881C44.4221 92.1297 45.0396 92.2089 45.6172 92.42L59.0074 97.2922C59.0143 97.673 59.0445 98.053 59.1002 98.4288C59.9092 102.905 64.1737 105.894 68.657 105.126L91.8914 101.03L91.1729 96.9636L67.9496 101.061C65.7136 101.441 63.5853 99.9576 63.1682 97.7274C63.0825 97.2569 63.0856 96.7729 63.1782 96.3034C63.1932 96.2351 63.2053 96.1667 63.2133 96.0971C63.2407 95.9206 63.2881 95.7483 63.3555 95.5832C63.6047 94.9024 64.028 94.2989 64.5832 93.8328C65.1384 93.3668 65.8061 93.0544 66.5197 92.9269L94.0168 88.0778L106.978 92.7927L99.9189 112.192L97.9789 111.489C97.5397 111.325 97.0579 111.315 96.6125 111.461ZM110.139 120.297L102.382 117.473L112.262 90.3229L120.02 93.1454L110.139 120.297ZM48.2118 33.2903C48.8777 35.729 50.106 37.9776 51.7981 39.8557C51.7672 40.0208 51.7447 40.1869 51.7347 40.3554V51.5941C51.7347 55.0132 54.506 57.7854 57.926 57.7854V78.423C57.9236 78.8083 58.0293 79.1864 58.2309 79.5147C58.4325 79.843 58.722 80.1083 59.0667 80.2804L63.1942 82.3442C63.4807 82.4873 63.7966 82.5619 64.1169 82.5619C64.4371 82.5619 64.753 82.4873 65.0395 82.3442L69.167 80.2804C69.5117 80.1083 69.8014 79.8431 70.0032 79.5148C70.2049 79.1865 70.3107 78.8083 70.3085 78.423V57.7854C73.7277 57.7854 76.4998 55.0132 76.4998 51.5941V40.3554C76.4887 40.1748 76.4658 39.9955 76.4314 39.8183C77.8101 38.3015 78.8842 36.5338 79.5955 34.6114C81.0846 34.8615 82.6146 34.6586 83.9871 34.029C85.3596 33.3994 86.5114 32.3722 87.2933 31.0803C89.2554 27.8345 88.7183 23.6637 85.9975 21.0215L69.2021 4.23025C67.8637 2.88505 66.2719 1.81856 64.5188 1.09246C62.7656 0.366361 60.8859 -0.00493438 58.9883 4.95158e-05H37.2883C37.0087 -0.000753101 36.7319 0.0561549 36.4752 0.167214L22.4287 6.19134H20.7782V2.06381C20.7782 1.51647 20.5608 0.991542 20.1738 0.604511C19.7868 0.217481 19.2618 4.95158e-05 18.7145 4.95158e-05H2.20439C1.65704 4.95158e-05 1.13212 0.217481 0.745087 0.604511C0.358056 0.991542 0.140625 1.51647 0.140625 2.06381V35.084C0.140625 35.6313 0.358056 36.1563 0.745087 36.5433C1.13212 36.9303 1.65704 37.1478 2.20439 37.1478H18.7145C19.2618 37.1478 19.7868 36.9303 20.1738 36.5433C20.5608 36.1563 20.7782 35.6313 20.7782 35.084V30.9565H21.0796C22.5569 35.9095 29.1935 39.2115 35.2246 39.2115C37.6949 39.2622 40.1449 38.7563 42.3931 37.7313C44.6413 36.7063 46.63 35.1885 48.2118 33.2903ZM16.6507 33.0202H4.26815V4.12757H16.6507V33.0202ZM66.181 77.1473L64.1172 78.1792L62.0535 77.1473V57.7854H66.181V77.1473ZM72.3723 51.5941C72.3723 52.1414 72.1549 52.6664 71.7678 53.0534C71.3808 53.4404 70.8559 53.6579 70.3085 53.6579H57.926C57.3786 53.6579 56.8537 53.4404 56.4667 53.0534C56.0796 52.6664 55.8622 52.1414 55.8622 51.5941V43.1698C57.2499 43.9782 58.7499 44.5763 60.3132 44.9444C60.6601 45.7888 61.2754 46.4953 62.0641 46.9549C62.8528 47.4144 63.7709 47.6013 64.6765 47.4867C65.5824 47.3726 66.4253 46.9632 67.0751 46.3218C67.7249 45.6804 68.1452 44.8428 68.2711 43.9386C68.3969 43.0345 68.2215 42.1142 67.772 41.3198C67.3224 40.5253 66.6238 39.9011 65.7839 39.5435C64.9441 39.1859 64.0099 39.1149 63.1256 39.3413C62.2414 39.5678 61.4564 40.0792 60.8918 40.7965C59.7278 40.4915 58.6151 40.0166 57.5896 39.3869C59.5794 38.1805 61.8058 37.4168 64.1172 37.1478C67.0799 37.5643 69.9057 38.6622 72.3723 40.3554V51.5941ZM73.909 36.4727C70.9584 34.5751 67.6055 33.3929 64.1172 33.0202C60.6347 33.3915 57.2869 34.5709 54.3407 36.4647C53.0819 34.8621 52.2487 32.9674 51.9184 30.9565H62.0535C63.5362 30.9714 64.9942 30.5763 66.2666 29.8148C67.5389 29.0534 68.5762 27.9552 69.2637 26.6414L75.0428 32.4197C75.2733 32.6352 75.5172 32.8358 75.7731 33.0202C75.348 34.2667 74.7179 35.4336 73.9088 36.4727H73.909ZM70.2108 21.7503C70.0178 20.061 69.3032 18.4738 68.1663 17.2095C70.4502 18.0027 72.4519 19.4469 73.9247 21.3642C75.3975 23.2814 76.277 25.5878 76.4547 27.9988L70.2108 21.7503ZM45.5436 28.8927C45.5436 32.0175 40.4314 35.084 35.2248 35.084C30.0182 35.084 24.906 32.0175 24.906 28.8927C24.906 28.3454 24.6886 27.8204 24.3016 27.4334C23.9145 27.0464 23.3896 26.829 22.8423 26.829H20.7785V10.3189H22.8423C23.1219 10.3196 23.3987 10.2627 23.6554 10.1517L37.7006 4.12757H58.978C60.335 4.12258 61.6796 4.38703 62.9337 4.90558C64.1878 5.42413 65.3264 6.18647 66.2837 7.14841L83.075 23.9397C83.7344 24.5554 84.166 25.376 84.2998 26.2682C84.4336 27.1603 84.2615 28.0715 83.8117 28.8535C83.473 29.39 83.0024 29.8308 82.445 30.1338C81.8876 30.4368 81.2618 30.592 80.6273 30.5845H80.5296C80.5923 30.0234 80.6245 29.4579 80.6276 28.8927C80.6173 19.7791 73.2308 12.3929 64.1175 12.3826C61.3439 12.3868 58.617 13.097 56.1937 14.4464H39.3521V18.5739H62.0535C64.3329 18.5739 66.181 20.422 66.181 22.7014C66.181 24.9809 64.3329 26.829 62.0535 26.829H47.6072C47.0598 26.829 46.5349 27.0464 46.1479 27.4334C45.7608 27.8204 45.5434 28.3454 45.5434 28.8927H45.5436Z" fill="black"/>
</g>
<defs>
<clipPath id="clip0_3875_702">
<rect width="125" height="125" fill="white"/>
</clipPath>
</defs>
</svg>
