<svg width="75" height="87" viewBox="0 0 75 87" fill="none" xmlns="http://www.w3.org/2000/svg">
<path d="M23.2969 47.5648V13.0648C23.2969 11.4501 23.9383 9.90153 25.0801 8.75977C26.2218 7.618 27.7704 6.97656 29.3851 6.97656C30.9998 6.97656 32.5484 7.618 33.6901 8.75977C34.8319 9.90153 35.4733 11.4501 35.4733 13.0648V43.506M35.4733 41.4766V33.3589C35.4733 31.7442 36.1148 30.1956 37.2565 29.0539C38.3983 27.9121 39.9469 27.2707 41.5616 27.2707C43.1763 27.2707 44.7248 27.9121 45.8666 29.0539C47.0084 30.1956 47.6498 31.7442 47.6498 33.3589V43.506M47.6498 37.4177C47.6498 35.803 48.2913 34.2545 49.433 33.1127C50.5748 31.9709 52.1234 31.3295 53.7381 31.3295C55.3528 31.3295 56.9013 31.9709 58.0431 33.1127C59.1848 34.2545 59.8263 35.803 59.8263 37.4177V43.506" stroke="#ED1F28" stroke-width="4.32941" stroke-linecap="round" stroke-linejoin="round"/>
<path d="M59.8235 41.4729C59.8235 39.8582 60.465 38.3096 61.6067 37.1679C62.7485 36.0261 64.2971 35.3846 65.9118 35.3846C67.5265 35.3846 69.075 36.0261 70.2168 37.1679C71.3586 38.3096 72 39.8582 72 41.4729V59.7376C72 66.1964 69.4343 72.3907 64.8672 76.9577C60.3001 81.5248 54.1059 84.0905 47.6471 84.0905H39.5294H40.3736C36.3405 84.0912 32.3704 83.0902 28.8197 81.1775C25.2691 79.2647 22.249 76.5 20.0308 73.1317L19.2353 71.9141C17.9689 69.9699 13.5245 62.2216 5.898 48.6651C5.12053 47.2832 4.91285 45.6525 5.31914 44.1199C5.72542 42.5872 6.71361 41.2735 8.07353 40.4582C9.52203 39.589 11.2194 39.2288 12.8961 39.4347C14.5727 39.6406 16.1325 40.4009 17.3276 41.5946L23.2941 47.5611M11.1176 6.97289L7.05882 2.91406M7.05882 23.2082H3M47.6471 6.97289L51.7059 2.91406M51.7059 19.1494H55.7647" stroke="#ED1F28" stroke-width="4.32941" stroke-linecap="round" stroke-linejoin="round"/>
</svg>
