<svg width="15" height="15" viewBox="0 0 15 15" fill="none" xmlns="http://www.w3.org/2000/svg">
<g clip-path="url(#clip0_964_8854)">
<path d="M14.8459 12.4217L8.49655 1.42678C8.39555 1.25188 8.2503 1.10665 8.07538 1.00568C7.90047 0.904707 7.70206 0.851554 7.50009 0.851563C7.29813 0.851545 7.09971 0.904694 6.9248 1.00567C6.74988 1.10664 6.60463 1.25188 6.50364 1.42678L0.154299 12.4217C0.0532482 12.5967 3.14054e-05 12.7951 1.38959e-08 12.9971C-3.13776e-05 13.1991 0.0531237 13.3976 0.15412 13.5725C0.255117 13.7474 0.400395 13.8927 0.575345 13.9937C0.750296 14.0947 0.948752 14.1478 1.15076 14.1478H13.8494C14.0514 14.1478 14.2499 14.0946 14.4248 13.9936C14.5997 13.8926 14.745 13.7474 14.846 13.5724C14.9469 13.3975 15.0001 13.1991 15.0001 12.9971C15.0001 12.7951 14.9469 12.5967 14.8459 12.4217ZM1.15076 12.9971L7.50009 2.00218L13.8494 12.9971H1.15076Z" fill="black"/>
<path d="M6.7062 5.96297L7.03619 9.74071C7.05544 9.9631 7.23195 10.1464 7.46198 10.1665C7.71964 10.189 7.94676 9.99837 7.96924 9.74071L8.29923 5.96297C8.30278 5.91882 8.30323 5.86935 8.29923 5.82383C8.26081 5.38389 7.87307 5.05845 7.43317 5.09682C6.99327 5.13528 6.66779 5.52312 6.7062 5.96297Z" fill="black"/>
<path d="M7.50372 11.7213C7.86821 11.7213 8.16368 11.4258 8.16368 11.0613C8.16368 10.6968 7.86821 10.4014 7.50372 10.4014C7.13923 10.4014 6.84375 10.6968 6.84375 11.0613C6.84375 11.4258 7.13923 11.7213 7.50372 11.7213Z" fill="black"/>
</g>
<defs>
<clipPath id="clip0_964_8854">
<rect width="15" height="15" fill="white"/>
</clipPath>
</defs>
</svg>
