<svg width="82" height="82" viewBox="0 0 82 82" fill="none" xmlns="http://www.w3.org/2000/svg">
<circle cx="40.6347" cy="40.6347" r="39.4737" fill="white" stroke="#ED1F28" stroke-width="2.32198"/>
<g clip-path="url(#clip0_6923_7115)">
<path d="M51.2863 32.1068V34.5247C51.2863 34.7459 51.2152 34.9276 51.073 35.0698C50.9308 35.2121 50.7491 35.2832 50.5278 35.2832H46.5455C46.182 37.5588 45.1628 39.4077 43.4877 40.83C41.8126 42.2522 39.6318 43.1214 36.9453 43.4374C39.5844 46.2503 43.2111 50.4855 47.8255 56.1429C48.0468 56.3957 48.0784 56.6643 47.9204 56.9488C47.7939 57.2332 47.5648 57.3755 47.2329 57.3755H42.6106C42.3578 57.3755 42.1602 57.2807 42.018 57.091C37.1824 51.2914 33.2475 46.7797 30.2133 43.5559C30.0711 43.4137 30 43.2399 30 43.0345V40.024C30 39.8186 30.0751 39.6408 30.2252 39.4907C30.3753 39.3406 30.5531 39.2655 30.7585 39.2655H33.4134C35.4994 39.2655 37.1784 38.9257 38.4505 38.2462C39.7227 37.5667 40.5326 36.579 40.8802 35.2832H30.7585C30.5373 35.2832 30.3556 35.2121 30.2133 35.0698C30.0711 34.9276 30 34.7459 30 34.5247V32.1068C30 31.8856 30.0711 31.7039 30.2133 31.5616C30.3556 31.4194 30.5373 31.3483 30.7585 31.3483H40.5484C39.6476 29.5626 37.53 28.6697 34.1956 28.6697H30.7585C30.5531 28.6697 30.3753 28.5947 30.2252 28.4445C30.0751 28.2944 30 28.1166 30 27.9112V24.7585C30 24.5373 30.0711 24.3556 30.2133 24.2133C30.3556 24.0711 30.5373 24 30.7585 24H50.4804C50.7016 24 50.8834 24.0711 51.0256 24.2133C51.1678 24.3556 51.2389 24.5373 51.2389 24.7585V27.1764C51.2389 27.3976 51.1678 27.5793 51.0256 27.7216C50.8834 27.8638 50.7016 27.9349 50.4804 27.9349H44.9573C45.7001 28.8989 46.2058 30.0367 46.4744 31.3483H50.5278C50.7491 31.3483 50.9308 31.4194 51.073 31.5616C51.2152 31.7039 51.2863 31.8856 51.2863 32.1068Z" fill="#ED1F28"/>
</g>
<defs>
<clipPath id="clip0_6923_7115">
<rect width="22" height="33.3755" fill="white" transform="translate(30 24)"/>
</clipPath>
</defs>
</svg>
