<svg width="125" height="125" viewBox="0 0 125 125" fill="none" xmlns="http://www.w3.org/2000/svg">
<g clip-path="url(#clip0_3875_518)">
<path d="M113.281 105.469V101.562C114.317 101.562 115.311 101.151 116.043 100.418C116.776 99.6858 117.188 98.6923 117.188 97.6562C117.188 96.6202 116.776 95.6267 116.043 94.8941C115.311 94.1615 114.317 93.75 113.281 93.75H11.7188C10.6827 93.75 9.68918 94.1615 8.95661 94.8941C8.22405 95.6267 7.8125 96.6202 7.8125 97.6562C7.8125 98.6923 8.22405 99.6858 8.95661 100.418C9.68918 101.151 10.6827 101.562 11.7188 101.562V105.469C9.64675 105.469 7.65961 104.646 6.19448 103.181C4.72935 101.715 3.90625 99.7283 3.90625 97.6562C3.90625 95.5842 4.72935 93.5971 6.19448 92.132C7.65961 90.6669 9.64675 89.8438 11.7188 89.8438H113.281C115.353 89.8438 117.34 90.6669 118.806 92.132C120.271 93.5971 121.094 95.5842 121.094 97.6562C121.094 99.7283 120.271 101.715 118.806 103.181C117.34 104.646 115.353 105.469 113.281 105.469Z" fill="black"/>
<path d="M115.234 123.047H111.328V105.469H29.2969V101.562H113.281C113.799 101.562 114.296 101.768 114.662 102.135C115.029 102.501 115.234 102.998 115.234 103.516V123.047ZM21.4844 101.562H25.3906V105.469H21.4844V101.562ZM13.6719 123.047H9.76562V103.516C9.76562 102.998 9.9714 102.501 10.3377 102.135C10.704 101.768 11.2007 101.562 11.7188 101.562H17.5781V105.469H13.6719V123.047ZM99.6094 91.7969H95.7031V50.7812C95.7031 50.2632 95.4974 49.7665 95.1311 49.4002C94.7648 49.0339 94.268 48.8281 93.75 48.8281H89.8438V44.9219H93.75C95.304 44.9219 96.7944 45.5392 97.8932 46.638C98.9921 47.7369 99.6094 49.2272 99.6094 50.7812V91.7969ZM29.2969 91.7969H25.3906V50.7812C25.3906 49.2272 26.0079 47.7369 27.1068 46.638C28.2056 45.5392 29.696 44.9219 31.25 44.9219H85.9375V48.8281H31.25C30.732 48.8281 30.2352 49.0339 29.8689 49.4002C29.5027 49.7665 29.2969 50.2632 29.2969 50.7812V91.7969Z" fill="black"/>
<path d="M81.7246 48.1838L78.4316 46.094C79.1707 44.9427 79.7546 43.6989 80.168 42.3948C80.2906 41.9961 80.5376 41.6472 80.8729 41.399C81.2082 41.1509 81.6141 41.0166 82.0312 41.0159C83.0673 41.0159 84.0608 40.6043 84.7934 39.8718C85.526 39.1392 85.9375 38.1456 85.9375 37.1096V33.2034H82.0312C81.5132 33.2034 81.0165 32.9976 80.6502 32.6313C80.2839 32.265 80.0781 31.7682 80.0781 31.2502V25.0608C75.9459 27.592 71.2457 29.0483 66.4062 29.2971C65.8882 29.2971 65.3915 29.0913 65.0252 28.7251C64.6589 28.3588 64.4531 27.862 64.4531 27.344V24.4573C59.7305 26.4592 50.3906 30.219 44.9219 31.0745V31.2502C44.9219 31.7682 44.7161 32.265 44.3498 32.6313C43.9835 32.9976 43.4868 33.2034 42.9688 33.2034H39.0625V37.1096C39.0625 38.1456 39.4741 39.1392 40.2066 39.8718C40.9392 40.6043 41.9327 41.0159 42.9688 41.0159C43.3844 41.0158 43.7892 41.1484 44.1243 41.3943C44.4594 41.6402 44.7073 41.9866 44.832 42.3831C45.2453 43.6857 45.8284 44.9282 46.5664 46.0784L43.2734 48.1799C42.5884 47.1083 42.0088 45.9728 41.543 44.7893C39.7502 44.4542 38.1309 43.5034 36.9647 42.1012C35.7986 40.699 35.1589 38.9334 35.1562 37.1096V33.2034C35.1562 32.1674 35.5678 31.1738 36.3004 30.4412C37.0329 29.7087 38.0265 29.2971 39.0625 29.2971H41.0156C41.0156 28.7791 41.2214 28.2823 41.5877 27.9161C41.954 27.5498 42.4507 27.344 42.9688 27.344C47.4336 27.344 60.8301 21.8264 65.6133 19.6995C65.9107 19.5674 66.2363 19.5116 66.5607 19.5374C66.8851 19.5631 67.1979 19.6695 67.4708 19.8468C67.7436 20.0242 67.9678 20.2669 68.123 20.5529C68.2782 20.839 68.3594 21.1592 68.3594 21.4846V25.262C72.868 24.423 77.1361 22.5997 80.8594 19.9221C81.1496 19.7045 81.4946 19.572 81.8559 19.5394C82.2171 19.5068 82.5803 19.5755 82.9047 19.7377C83.2291 19.8999 83.502 20.1493 83.6927 20.4578C83.8834 20.7664 83.9844 21.1219 83.9844 21.4846V29.2971H85.9375C86.9735 29.2971 87.9671 29.7087 88.6996 30.4412C89.4322 31.1738 89.8438 32.1674 89.8438 33.2034V37.1096C89.8416 38.9337 89.2021 40.6998 88.0359 42.1024C86.8697 43.505 85.2501 44.4561 83.457 44.7913C82.9905 45.9754 82.4103 47.1116 81.7246 48.1838Z" fill="black"/>
<path d="M89.8438 33.2031H85.9375V21.4844C85.9323 16.824 84.0787 12.3559 80.7833 9.06047C77.4879 5.76506 73.0198 3.91142 68.3594 3.90625H56.6406C51.9802 3.91142 47.5121 5.76506 44.2167 9.06047C40.9213 12.3559 39.0677 16.824 39.0625 21.4844V33.2031H35.1562V21.4844C35.163 15.7884 37.4287 10.3277 41.4563 6.30005C45.4839 2.2724 50.9447 0.00671967 56.6406 0L68.3594 0C74.0553 0.00671967 79.5161 2.2724 83.5437 6.30005C87.5714 10.3277 89.837 15.7884 89.8438 21.4844V33.2031ZM62.5 80.0781C60.5685 80.0781 58.6805 79.5054 57.0745 78.4323C55.4686 77.3593 54.2169 75.8341 53.4777 74.0496C52.7386 72.2652 52.5452 70.3017 52.922 68.4073C53.2988 66.513 54.2289 64.7729 55.5947 63.4072C56.9604 62.0414 58.7005 61.1113 60.5948 60.7345C62.4892 60.3577 64.4527 60.5511 66.2371 61.2902C68.0216 62.0294 69.5468 63.2811 70.6198 64.887C71.6929 66.493 72.2656 68.381 72.2656 70.3125C72.2625 72.9016 71.2327 75.3837 69.4019 77.2144C67.5712 79.0452 65.0891 80.075 62.5 80.0781ZM62.5 64.4531C61.3411 64.4531 60.2083 64.7968 59.2447 65.4406C58.2811 66.0844 57.5301 66.9996 57.0866 68.0702C56.6432 69.1409 56.5271 70.319 56.7532 71.4556C56.9793 72.5922 57.5373 73.6363 58.3568 74.4557C59.1762 75.2751 60.2203 75.8332 61.3569 76.0593C62.4935 76.2854 63.6716 76.1693 64.7423 75.7259C65.8129 75.2824 66.7281 74.5314 67.3719 73.5678C68.0157 72.6042 68.3594 71.4714 68.3594 70.3125C68.3594 68.7585 67.742 67.2681 66.6432 66.1693C65.5444 65.0704 64.054 64.4531 62.5 64.4531ZM102.539 93.75H97.6562V89.8438H102.539C103.834 89.8438 105.076 89.3293 105.992 88.4136C106.907 87.4979 107.422 86.2559 107.422 84.9609C107.422 83.6659 106.907 82.424 105.992 81.5083C105.076 80.5926 103.834 80.0781 102.539 80.0781H97.6562V76.1719H102.539C104.87 76.1719 107.106 77.0979 108.754 78.7461C110.402 80.3944 111.328 82.6299 111.328 84.9609C111.328 87.2919 110.402 89.5275 108.754 91.1757C107.106 92.824 104.87 93.75 102.539 93.75Z" fill="black"/>
<path d="M105.49 80.3691L103.693 68.3496C103.269 66.3768 102.15 64.6219 100.541 63.4043L96.4395 60.1211L98.8809 57.0703L102.982 60.3535C105.344 62.1754 106.966 64.7913 107.547 67.7168L109.354 79.791L105.49 80.3691ZM27.3438 93.752H22.4609C20.1299 93.752 17.8944 92.826 16.2461 91.1777C14.5979 89.5294 13.6719 87.2939 13.6719 84.9629C13.6719 82.6319 14.5979 80.3964 16.2461 78.7481C17.8944 77.0998 20.1299 76.1738 22.4609 76.1738H27.3438V80.0801H22.4609C21.1659 80.0801 19.924 80.5945 19.0083 81.5102C18.0926 82.4259 17.5781 83.6679 17.5781 84.9629C17.5781 86.2579 18.0926 87.4999 19.0083 88.4156C19.924 89.3313 21.1659 89.8457 22.4609 89.8457H27.3438V93.752Z" fill="black"/>
<path d="M19.5117 80.3652L15.6484 79.7793L17.4453 67.7598C18.0184 64.8125 19.6443 62.1745 22.0195 60.3379L26.1211 57.0547L28.5625 60.1055L24.4609 63.3887C22.8387 64.6197 21.7157 66.3953 21.2988 68.3887L19.5117 80.3652Z" fill="black"/>
<path d="M72.2656 42.9688C74.423 42.9688 76.1719 40.7826 76.1719 38.0859C76.1719 35.3892 74.423 33.2031 72.2656 33.2031C70.1083 33.2031 68.3594 35.3892 68.3594 38.0859C68.3594 40.7826 70.1083 42.9688 72.2656 42.9688Z" fill="black"/>
<path d="M52.7344 42.9688C54.8917 42.9688 56.6406 40.7826 56.6406 38.0859C56.6406 35.3892 54.8917 33.2031 52.7344 33.2031C50.577 33.2031 48.8281 35.3892 48.8281 38.0859C48.8281 40.7826 50.577 42.9688 52.7344 42.9688Z" fill="black"/>
</g>
<defs>
<clipPath id="clip0_3875_518">
<rect width="125" height="125" fill="white"/>
</clipPath>
</defs>
</svg>
