<svg width="170" height="170" viewBox="0 0 170 170" fill="none" xmlns="http://www.w3.org/2000/svg">
<mask id="mask0_3875_3634" style="mask-type:luminance" maskUnits="userSpaceOnUse" x="0" y="0" width="170" height="170">
<path d="M0 0.000488281H170V170H0V0.000488281Z" fill="white"/>
</mask>
<g mask="url(#mask0_3875_3634)">
<path d="M84.9999 91.6406C70.3541 91.6406 58.4375 79.7241 58.4375 65.0782C58.4375 50.4323 70.3541 38.5158 84.9999 38.5158C99.6458 38.5158 111.562 50.4323 111.562 65.0782C111.562 79.7241 99.6458 91.6406 84.9999 91.6406Z" stroke="#858585" stroke-width="3" stroke-miterlimit="10" stroke-linecap="round" stroke-linejoin="round"/>
<path d="M35.4062 150.07C35.4096 150.027 35.4129 149.984 35.4195 149.941C37.8268 124.68 59.1029 104.924 84.995 104.924C110.887 104.924 132.16 124.677 134.574 149.938" stroke="#858585" stroke-width="3" stroke-miterlimit="10" stroke-linecap="round" stroke-linejoin="round"/>
<path d="M146.094 32.3672C147.099 32.3672 147.914 31.5522 147.914 30.5469C147.914 29.5416 147.099 28.7266 146.094 28.7266C145.089 28.7266 144.273 29.5416 144.273 30.5469C144.273 31.5522 145.089 32.3672 146.094 32.3672Z" fill="#858585" stroke="#858585" stroke-width="3"/>
<path d="M154.866 42.6358C162.363 54.9837 166.679 69.4828 166.679 85.0002C166.679 111.493 154.099 135.021 134.579 149.935V149.939C120.836 160.444 103.653 166.68 84.9998 166.68C66.3496 166.68 49.167 160.444 35.4246 149.939C15.9043 135.024 3.32031 111.496 3.32031 85.0002C3.32031 39.8574 39.8503 3.3208 84.9998 3.3208C103.883 3.3208 121.26 9.71238 135.087 20.4529" stroke="#858585" stroke-width="3" stroke-miterlimit="10" stroke-linecap="round" stroke-linejoin="round"/>
</g>
</svg>
