<svg width="125" height="125" viewBox="0 0 125 125" fill="none" xmlns="http://www.w3.org/2000/svg">
<path d="M111.144 118.659L109.121 99.6455C108.802 96.6862 107.576 93.8978 105.611 91.6625C103.646 89.4271 101.037 87.8542 98.1433 87.1592L91.4051 85.5459C91.2 81.8994 89.6472 72.46 79.3699 68.9023C82.4504 65.5111 84.7999 61.5221 86.2722 57.1836C86.5564 57.2041 86.8406 57.2256 87.117 57.2256C88.4017 57.2661 89.6791 57.0169 90.8544 56.4964C92.0297 55.9758 93.0727 55.1974 93.906 54.2188C94.9154 53.0021 95.5982 51.5485 95.89 49.9948C96.1819 48.4412 96.0731 46.8388 95.574 45.3389C95.3023 44.5392 94.864 43.8063 94.2881 43.1885C93.7122 42.5707 93.0118 42.0821 92.2332 41.7549C91.3023 41.3991 90.3036 41.2563 89.3103 41.3369C90.9793 35.8916 93.5096 24.4365 88.0467 17.4805C91.4051 13.0225 90.0086 7.68848 88.6707 5.31738C88.4543 4.93828 88.1011 4.65628 87.6835 4.52919C87.2659 4.40209 86.8155 4.43951 86.4246 4.63379C81.9763 6.84863 78.0545 6.33496 72.1218 5.55664C67.3895 4.85746 62.6144 4.48743 57.8308 4.44922C44.3689 4.44922 41.1316 11.7734 40.4041 14.4287C30.5799 20.3906 33.7283 34.9707 35.6863 41.3408C34.6938 41.2609 33.6961 41.4044 32.7664 41.7607C31.9875 42.0877 31.2869 42.5763 30.7109 43.1941C30.1348 43.8119 29.6964 44.5449 29.4246 45.3447C28.9259 46.8448 28.8174 48.4472 29.1094 50.0007C29.4014 51.5543 30.0842 53.008 31.0935 54.2246C31.9267 55.2032 32.9695 55.9817 34.1447 56.5022C35.3198 57.0227 36.597 57.272 37.8816 57.2314C38.159 57.2314 38.4431 57.21 38.7273 57.1895C40.2001 61.5275 42.5492 65.5164 45.6287 68.9082C35.3504 72.46 33.7996 81.9033 33.5926 85.5459L26.8543 87.1553C23.9603 87.8504 21.3521 89.4234 19.3871 91.6588C17.422 93.8941 16.1962 96.6824 15.8777 99.6416L13.8533 118.655C13.8296 118.878 13.8501 119.104 13.9137 119.319C13.9772 119.535 14.0825 119.735 14.2236 119.91C14.3648 120.085 14.5389 120.23 14.736 120.337C14.9332 120.444 15.1496 120.512 15.3728 120.535C15.4335 120.542 15.4944 120.545 15.5554 120.545C15.977 120.544 16.3834 120.388 16.6967 120.106C17.0099 119.824 17.2079 119.436 17.2527 119.017L19.2771 100.003C19.52 97.7461 20.4548 95.6195 21.9534 93.9146C23.452 92.2097 25.4411 91.0099 27.6482 90.4795L34.6394 88.8105C38.8465 93.5771 46.1492 95.6631 52.2381 96.5635V112.428C52.2381 112.881 52.4181 113.316 52.7386 113.636C53.0591 113.957 53.4938 114.137 53.947 114.137C54.4003 114.137 54.835 113.957 55.1555 113.636C55.476 113.316 55.656 112.881 55.656 112.428V96.9717C58.0633 97.1895 60.0701 97.2344 61.2937 97.2344C61.9256 97.2344 62.3347 97.2236 62.4998 97.2178C62.6648 97.2119 63.074 97.2344 63.7049 97.2344C65.5874 97.2301 67.4688 97.1424 69.3435 96.9717V112.432C69.3435 112.885 69.5236 113.32 69.8441 113.64C70.1646 113.961 70.5993 114.141 71.0525 114.141C71.5058 114.141 71.9405 113.961 72.261 113.64C72.5814 113.32 72.7615 112.885 72.7615 112.432V96.5674C78.8494 95.667 86.1531 93.5811 90.3601 88.8145L97.3504 90.4834C99.5577 91.0137 101.547 92.2134 103.046 93.9183C104.545 95.6232 105.48 97.7498 105.723 100.007L107.747 119.021C107.791 119.44 107.989 119.828 108.303 120.11C108.616 120.392 109.023 120.548 109.444 120.549C109.505 120.549 109.567 120.546 109.628 120.539C109.851 120.515 110.067 120.448 110.264 120.341C110.461 120.233 110.635 120.088 110.776 119.913C110.916 119.739 111.022 119.538 111.085 119.323C111.148 119.108 111.168 118.882 111.144 118.659ZM40.0379 44.4326L43.4851 40.957C45.5853 38.83 46.933 36.0749 47.323 33.1113L47.8953 28.6963C52.7089 29.6109 57.5991 30.0621 62.4988 30.0439C67.3972 30.0616 72.2861 29.61 77.0984 28.6953L77.6707 33.1094C78.0596 36.0733 79.4075 38.8287 81.5086 40.9551L84.9597 44.4326C84.6863 62.2324 73.992 70.3691 67.5769 73.6465C66.0038 74.4469 64.2638 74.8641 62.4988 74.8641C60.7338 74.8641 58.9938 74.4469 57.4207 73.6465C51.0086 70.3691 40.3152 62.2324 40.0379 44.4326ZM90.9588 44.9365C91.299 45.0884 91.6022 45.3121 91.8478 45.5923C92.0934 45.8725 92.2755 46.2024 92.3816 46.5596C92.6641 47.4905 92.7123 48.4769 92.5218 49.4309C92.3313 50.385 91.9081 51.2772 91.2898 52.0283C90.7913 52.6055 90.171 53.0649 89.4736 53.3734C88.7762 53.6819 88.019 53.8319 87.2566 53.8125C87.9369 50.9059 88.3091 47.9357 88.367 44.9512C89.2106 44.6826 90.1159 44.6771 90.9627 44.9355L90.9588 44.9365ZM42.7088 17.0488C42.9527 16.9159 43.1613 16.7264 43.317 16.4964C43.4728 16.2664 43.5713 16.0024 43.6043 15.7266C43.6433 15.4053 44.701 7.86719 57.8308 7.86719C62.4632 7.90152 67.0875 8.26047 71.6697 8.94141C77.1228 9.65723 81.5467 10.2373 86.2791 8.42187C86.775 9.75929 86.8775 11.2108 86.5744 12.6046C86.2714 13.9984 85.5755 15.2763 84.5691 16.2871C84.4086 16.446 84.2812 16.6352 84.1943 16.8436C84.1074 17.052 84.0626 17.2756 84.0626 17.5015C84.0626 17.7273 84.1074 17.9509 84.1943 18.1593C84.2812 18.3678 84.4086 18.5569 84.5691 18.7158C90.156 24.2314 87.5154 35.543 85.9539 40.585L83.9343 38.5488C82.3609 36.9553 81.3514 34.8912 81.0593 32.6709L80.2469 26.4043C80.2154 26.1642 80.1333 25.9334 80.006 25.7274C79.8786 25.5214 79.709 25.3448 79.5083 25.2092C79.3076 25.0737 79.0804 24.9823 78.8417 24.9412C78.603 24.9001 78.3583 24.9101 78.1238 24.9707C72.9957 26.117 67.7532 26.6724 62.4988 26.626C57.2444 26.6722 52.0019 26.1168 46.8738 24.9707C46.639 24.9093 46.3939 24.8987 46.1547 24.9394C45.9155 24.9802 45.6877 25.0714 45.4865 25.207C45.2852 25.3426 45.1152 25.5195 44.9877 25.726C44.8602 25.9324 44.7781 26.1637 44.7469 26.4043L43.9353 32.6709C43.6428 34.8915 42.6325 36.9555 41.0584 38.5488L39.0408 40.584C37.3035 34.9658 34.2361 21.5645 42.7088 17.0488ZM33.7107 52.0273C33.0926 51.2761 32.6696 50.3839 32.4793 49.4298C32.289 48.4758 32.3373 47.4895 32.6199 46.5586C32.7245 46.2038 32.904 45.8756 33.1462 45.5961C33.3885 45.3167 33.6879 45.0924 34.0242 44.9385C34.8747 44.6747 35.7859 44.6795 36.6336 44.9522C36.6925 47.9348 37.065 50.9029 37.7449 53.8076C36.9828 53.8268 36.2259 53.6771 35.5284 53.3693C34.8309 53.0616 34.2102 52.6033 33.7107 52.0273ZM36.9705 86.2891C36.9597 83.9404 37.5965 74.3145 48.4197 71.6465C48.9497 72.1113 49.4799 72.5495 50.0105 72.9609L49.1541 83.0391C49.1276 83.3594 49.1912 83.6807 49.3377 83.9668C51.4213 87.6301 54.1172 90.9093 57.3084 93.6621C51.2566 93.2432 41.4519 91.7129 36.9705 86.2891ZM62.4988 93.4238C58.5232 90.5824 55.1585 86.9716 52.6043 82.8057L53.2498 75.2119C54.1011 75.7394 54.9736 76.232 55.865 76.6885C57.9194 77.7354 60.1925 78.2812 62.4983 78.2812C64.8041 78.2812 67.0772 77.7354 69.1316 76.6885C70.0233 76.2318 70.8961 75.7393 71.7478 75.2119L72.3933 82.8057C69.8392 86.9717 66.4745 90.5825 62.4988 93.4238ZM67.6892 93.6621C70.8804 90.9093 73.5763 87.6301 75.6599 83.9668C75.8064 83.6807 75.87 83.3594 75.8435 83.0391L74.9881 72.96C75.5161 72.5485 76.046 72.1107 76.5779 71.6465C87.3455 74.3057 88.0232 83.9512 88.0242 86.2949C83.5418 91.7119 73.74 93.2432 67.6892 93.6621Z" fill="black"/>
</svg>
