<svg width="30" height="30" viewBox="0 0 30 30" fill="none" xmlns="http://www.w3.org/2000/svg">
<path d="M25.3125 8.4375H23.4375V5.625C23.4375 4.87908 23.1412 4.16371 22.6137 3.63626C22.0863 3.10882 21.3709 2.8125 20.625 2.8125H6.5625C5.81658 2.8125 5.10121 3.10882 4.57376 3.63626C4.04632 4.16371 3.75 4.87908 3.75 5.625V17.8125C3.75 18.0611 3.84877 18.2996 4.02459 18.4754C4.2004 18.6512 4.43886 18.75 4.6875 18.75C4.93614 18.75 5.1746 18.6512 5.35041 18.4754C5.52623 18.2996 5.625 18.0611 5.625 17.8125V5.625C5.625 5.37636 5.72377 5.1379 5.89959 4.96209C6.0754 4.78627 6.31386 4.6875 6.5625 4.6875H20.625C20.8736 4.6875 21.1121 4.78627 21.2879 4.96209C21.4637 5.1379 21.5625 5.37636 21.5625 5.625V23.9062C21.5645 24.3937 21.6767 24.8745 21.8906 25.3125H8.4375C8.18886 25.3125 7.9504 25.4113 7.77459 25.5871C7.59877 25.7629 7.5 26.0014 7.5 26.25C7.5 26.4986 7.59877 26.7371 7.77459 26.9129C7.9504 27.0887 8.18886 27.1875 8.4375 27.1875H24.8438C25.714 27.1875 26.5486 26.8418 27.1639 26.2264C27.7793 25.6111 28.125 24.7765 28.125 23.9062V11.25C28.125 10.5041 27.8287 9.78871 27.3012 9.26126C26.7738 8.73382 26.0584 8.4375 25.3125 8.4375ZM26.25 23.9062C26.25 24.2792 26.1018 24.6369 25.8381 24.9006C25.5744 25.1643 25.2167 25.3125 24.8438 25.3125C24.4708 25.3125 24.1131 25.1643 23.8494 24.9006C23.5857 24.6369 23.4375 24.2792 23.4375 23.9062V10.3125H25.3125C25.5611 10.3125 25.7996 10.4113 25.9754 10.5871C26.1512 10.7629 26.25 11.0014 26.25 11.25V23.9062Z" fill="white"/>
<path d="M8.4375 24.375C8.68614 24.375 8.9246 24.2762 9.10041 24.1004C9.27623 23.9246 9.375 23.6861 9.375 23.4375C9.375 23.1889 9.27623 22.9504 9.10041 22.7746C8.9246 22.5988 8.68614 22.5 8.4375 22.5H6.5625V20.625C6.5625 20.3764 6.46373 20.1379 6.28791 19.9621C6.1121 19.7863 5.87364 19.6875 5.625 19.6875C5.37636 19.6875 5.1379 19.7863 4.96209 19.9621C4.78627 20.1379 4.6875 20.3764 4.6875 20.625V22.5H2.8125C2.56386 22.5 2.3254 22.5988 2.14959 22.7746C1.97377 22.9504 1.875 23.1889 1.875 23.4375C1.875 23.6861 1.97377 23.9246 2.14959 24.1004C2.3254 24.2762 2.56386 24.375 2.8125 24.375H4.6875V26.25C4.6875 26.4986 4.78627 26.7371 4.96209 26.9129C5.1379 27.0887 5.37636 27.1875 5.625 27.1875C5.87364 27.1875 6.1121 27.0887 6.28791 26.9129C6.46373 26.7371 6.5625 26.4986 6.5625 26.25V24.375H8.4375ZM18.75 10.3125C18.9986 10.3125 19.2371 10.2137 19.4129 10.0379C19.5887 9.8621 19.6875 9.62364 19.6875 9.375C19.6875 9.12636 19.5887 8.8879 19.4129 8.71209C19.2371 8.53627 18.9986 8.4375 18.75 8.4375H11.25C11.0014 8.4375 10.7629 8.53627 10.5871 8.71209C10.4113 8.8879 10.3125 9.12636 10.3125 9.375C10.3125 9.62364 10.4113 9.8621 10.5871 10.0379C10.7629 10.2137 11.0014 10.3125 11.25 10.3125H18.75ZM7.5 13.125C7.5 13.3736 7.59877 13.6121 7.77459 13.7879C7.9504 13.9637 8.18886 14.0625 8.4375 14.0625H18.75C18.9986 14.0625 19.2371 13.9637 19.4129 13.7879C19.5887 13.6121 19.6875 13.3736 19.6875 13.125C19.6875 12.8764 19.5887 12.6379 19.4129 12.4621C19.2371 12.2863 18.9986 12.1875 18.75 12.1875H8.4375C8.18886 12.1875 7.9504 12.2863 7.77459 12.4621C7.59877 12.6379 7.5 12.8764 7.5 13.125Z" fill="white"/>
</svg>
