<svg width="15" height="15" viewBox="0 0 15 15" fill="none" xmlns="http://www.w3.org/2000/svg">
<g clip-path="url(#clip0_964_8892)">
<path d="M4.07031 5.87598C3.95842 5.87598 3.85112 5.92042 3.772 5.99954C3.69288 6.07866 3.64844 6.18596 3.64844 6.29785C3.64844 6.40974 3.69288 6.51705 3.772 6.59616C3.85112 6.67528 3.95842 6.71973 4.07031 6.71973H8.59375C8.70564 6.71973 8.81294 6.67528 8.89206 6.59616C8.97118 6.51705 9.01563 6.40974 9.01563 6.29785C9.01563 6.18596 8.97118 6.07866 8.89206 5.99954C8.81294 5.92042 8.70564 5.87598 8.59375 5.87598H4.07031ZM6.10422 8.27082H4.07031C3.95842 8.27082 3.85112 8.31527 3.772 8.39439C3.69288 8.4735 3.64844 8.58081 3.64844 8.6927C3.64844 8.80458 3.69288 8.91189 3.772 8.99101C3.85112 9.07012 3.95842 9.11457 4.07031 9.11457H6.10422C6.21611 9.11457 6.32341 9.07012 6.40253 8.99101C6.48165 8.91189 6.52609 8.80458 6.52609 8.6927C6.52609 8.58081 6.48165 8.4735 6.40253 8.39439C6.32341 8.31527 6.21611 8.27082 6.10422 8.27082Z" fill="white"/>
<path d="M6.04109 13.6406H2.83016C2.49768 13.6398 2.17913 13.507 1.94447 13.2714C1.70981 13.0359 1.57822 12.7169 1.57859 12.3844V3.83906C1.57822 3.50658 1.70981 3.18754 1.94447 2.952C2.17913 2.71646 2.49768 2.58368 2.83016 2.58281H3.70156V2.68875C3.70194 2.9846 3.81966 3.26822 4.0289 3.47737C4.23814 3.68652 4.52181 3.80413 4.81766 3.80438H8.84891C9.14476 3.80413 9.42842 3.68652 9.63767 3.47737C9.84691 3.26822 9.96463 2.9846 9.965 2.68875V2.58281H10.8322C11.5339 2.58281 12.0833 3.13453 12.0833 3.83906V6.24375C12.0833 6.35564 12.1277 6.46294 12.2068 6.54206C12.286 6.62118 12.3933 6.66563 12.5052 6.66563C12.617 6.66563 12.7244 6.62118 12.8035 6.54206C12.8826 6.46294 12.927 6.35564 12.927 6.24375V3.83906C12.927 3.28292 12.7064 2.74949 12.3136 2.35579C11.9208 1.9621 11.3879 1.7403 10.8317 1.73906H9.96453V1.63125C9.96416 1.3354 9.84644 1.05178 9.6372 0.84263C9.42795 0.633477 9.14429 0.515873 8.84844 0.515625H4.81719C4.52134 0.515873 4.23767 0.633477 4.02843 0.84263C3.81919 1.05178 3.70147 1.3354 3.70109 1.63125V1.73906H2.83016C2.27397 1.7403 1.74098 1.96209 1.3481 2.35576C0.955208 2.74944 0.734498 3.28288 0.734375 3.83906V12.3844C0.734375 13.5422 1.67469 14.4844 2.83016 14.4844H6.04109C6.15298 14.4844 6.26029 14.4399 6.3394 14.3608C6.41852 14.2817 6.46297 14.1744 6.46297 14.0625C6.46297 13.9506 6.41852 13.8433 6.3394 13.7642C6.26029 13.6851 6.15298 13.6406 6.04109 13.6406ZM4.54578 1.63125C4.54578 1.48125 4.66766 1.35938 4.81766 1.35938H8.84891C8.99891 1.35938 9.12078 1.48125 9.12078 1.63125V2.68828C9.12078 2.83828 8.99891 2.96016 8.84891 2.96016H4.81766C4.74555 2.96016 4.6764 2.93151 4.62541 2.88053C4.57443 2.82954 4.54578 2.76039 4.54578 2.68828V1.63125Z" fill="white"/>
<path d="M13.8093 8.13678C13.2318 7.55881 12.2235 7.55834 11.6456 8.13678L7.90541 11.8769C7.78529 11.9968 7.70564 12.1512 7.67759 12.3185L7.47228 13.5321C7.45065 13.6605 7.46005 13.7923 7.49971 13.9163C7.53936 14.0404 7.60812 14.1532 7.70025 14.2453C7.79237 14.3373 7.90518 14.406 8.02926 14.4456C8.15335 14.4852 8.2851 14.4946 8.41353 14.4729L9.62666 14.268C9.79494 14.2394 9.94775 14.1607 10.0682 14.0402L13.8084 10.3001C14.0948 10.013 14.2558 9.62413 14.256 9.21861C14.2561 8.8131 14.0955 8.42406 13.8093 8.13678ZM9.4865 13.4365L8.30478 13.6722L8.50259 12.4737L11.1834 9.79287L12.1542 10.7637L9.4865 13.4365ZM13.2121 9.70334L12.7499 10.1665L11.7796 9.19615L12.2423 8.7335C12.3058 8.66963 12.3813 8.61898 12.4645 8.58447C12.5477 8.54995 12.6369 8.53226 12.727 8.5324C12.8626 8.53253 12.9951 8.57283 13.1078 8.64822C13.2205 8.72361 13.3084 8.8307 13.3603 8.95597C13.4122 9.08125 13.4258 9.21909 13.3995 9.35211C13.3731 9.48512 13.3079 9.60734 13.2121 9.70334Z" fill="white"/>
</g>
<defs>
<clipPath id="clip0_964_8892">
<rect width="15" height="15" fill="white"/>
</clipPath>
</defs>
</svg>
