<svg width="31" height="25" viewBox="0 0 31 25" fill="none" xmlns="http://www.w3.org/2000/svg">
<path d="M10.7082 9.99414C10.5411 9.99414 10.3808 9.92829 10.2627 9.81108C10.1445 9.69387 10.0781 9.5349 10.0781 9.36914V8.11914C10.0781 7.95338 10.1445 7.79441 10.2627 7.6772C10.3808 7.55999 10.5411 7.49414 10.7082 7.49414C10.8753 7.49414 11.0356 7.55999 11.1538 7.6772C11.2719 7.79441 11.3383 7.95338 11.3383 8.11914V9.36914C11.3383 9.5349 11.2719 9.69387 11.1538 9.81108C11.0356 9.92829 10.8753 9.99414 10.7082 9.99414ZM10.7082 20.5704C10.5411 20.5704 10.3808 20.5045 10.2627 20.3873C10.1445 20.2701 10.0781 20.1112 10.0781 19.9454V17.8316C10.0781 17.6659 10.1445 17.5069 10.2627 17.3897C10.3808 17.2725 10.5411 17.2066 10.7082 17.2066C10.8753 17.2066 11.0356 17.2725 11.1538 17.3897C11.2719 17.5069 11.3383 17.6659 11.3383 17.8316V19.9466C11.338 20.1122 11.2714 20.2708 11.1533 20.3878C11.0352 20.5047 10.8751 20.5704 10.7082 20.5704ZM10.7082 15.2829C10.5411 15.2829 10.3808 15.217 10.2627 15.0998C10.1445 14.9826 10.0781 14.8237 10.0781 14.6579V12.5429C10.0781 12.3771 10.1445 12.2182 10.2627 12.1009C10.3808 11.9837 10.5411 11.9179 10.7082 11.9179C10.8753 11.9179 11.0356 11.9837 11.1538 12.1009C11.2719 12.2182 11.3383 12.3771 11.3383 12.5429V14.6579C11.3383 14.8237 11.2719 14.9826 11.1538 15.0998C11.0356 15.217 10.8753 15.2829 10.7082 15.2829ZM10.7082 24.9941C10.5411 24.9941 10.3808 24.9283 10.2627 24.8111C10.1445 24.6939 10.0781 24.5349 10.0781 24.3691V23.1191C10.0781 22.9534 10.1445 22.7944 10.2627 22.6772C10.3808 22.56 10.5411 22.4941 10.7082 22.4941C10.8753 22.4941 11.0356 22.56 11.1538 22.6772C11.2719 22.7944 11.3383 22.9534 11.3383 23.1191V24.3691C11.3383 24.5349 11.2719 24.6939 11.1538 24.8111C11.0356 24.9283 10.8753 24.9941 10.7082 24.9941Z" fill="#2B5CAB"/>
<path d="M3.14886 8.74429C2.9995 8.74747 2.8539 8.6977 2.73822 8.60392C2.62255 8.51014 2.5444 8.3785 2.51782 8.23268C2.49125 8.08686 2.51799 7.93641 2.59323 7.80839C2.66848 7.68038 2.7873 7.58318 2.92833 7.53429L22.9652 0.113041C23.9394 -0.249459 25.0836 0.293041 25.4163 1.26679L27.6884 7.91804C27.7397 8.07441 27.7268 8.24452 27.6525 8.39152C27.5782 8.53852 27.4485 8.65055 27.2915 8.70334C27.1345 8.75612 26.9629 8.74541 26.8138 8.67353C26.6647 8.60164 26.5502 8.47436 26.495 8.31929L24.2229 1.66804C24.1651 1.51003 24.0468 1.381 23.8937 1.30893C23.7406 1.23686 23.565 1.22756 23.405 1.28304L3.36814 8.70429C3.29816 8.73093 3.22382 8.74449 3.14886 8.74429Z" fill="#2B5CAB"/>
<path d="M27.0939 24.9941H3.15046C2.31521 24.9931 1.51446 24.6636 0.923853 24.0778C0.333244 23.4919 0.0010005 22.6976 0 21.8691L0 19.3691C0 19.2034 0.0663845 19.0444 0.18455 18.9272C0.302715 18.81 0.462981 18.7441 0.630092 18.7441H1.26018C2.65017 18.7441 3.78055 17.6229 3.78055 16.2441C3.78055 14.8654 2.65017 13.7441 1.26018 13.7441H0.630092C0.462981 13.7441 0.302715 13.6783 0.18455 13.5611C0.0663845 13.4439 0 13.2849 0 13.1191V10.6191C0 8.89664 1.41393 7.49414 3.15046 7.49414H27.0939C28.8305 7.49414 30.2444 8.89664 30.2444 10.6191V13.1191C30.2444 13.2849 30.178 13.4439 30.0599 13.5611C29.9417 13.6783 29.7814 13.7441 29.6143 13.7441H28.9842C28.4863 13.7454 28 13.8928 27.5864 14.1677C27.1728 14.4426 26.8505 14.8328 26.6599 15.289C26.4694 15.7453 26.4193 16.2473 26.5158 16.7317C26.6123 17.2162 26.8512 17.6615 27.2023 18.0116C27.6774 18.4841 28.31 18.7441 28.983 18.7441H29.613C29.7802 18.7441 29.9404 18.81 30.0586 18.9272C30.1768 19.0444 30.2431 19.2034 30.2431 19.3691V21.8691C30.2425 22.6975 29.9105 23.4918 29.3201 24.0777C28.7297 24.6635 27.9291 24.9931 27.0939 24.9941ZM1.26018 19.9941V21.8691C1.26018 22.9029 2.10829 23.7441 3.15046 23.7441H27.0939C28.1361 23.7441 28.9842 22.9029 28.9842 21.8691V19.9941C28.4879 19.9955 27.9949 19.8992 27.5364 19.7108C27.0778 19.5224 26.6614 19.2457 26.3114 18.8966C25.9591 18.5491 25.6799 18.1357 25.4897 17.6804C25.2996 17.2251 25.2024 16.737 25.2037 16.2441C25.2037 14.1766 26.8999 12.4941 28.9842 12.4941V10.6191C28.9842 9.58539 28.1361 8.74414 27.0939 8.74414H3.15046C2.10829 8.74414 1.26018 9.58539 1.26018 10.6191V12.4941C3.34453 12.4941 5.04073 14.1766 5.04073 16.2441C5.04073 18.3116 3.34453 19.9941 1.26018 19.9941Z" fill="#1D1D1D"/>
</svg>
