<svg xmlns="http://www.w3.org/2000/svg" width="36" height="36" viewBox="0 0 36 36" fill="none">
<path fill-rule="evenodd" clip-rule="evenodd" d="M0 18C0 8.05887 8.05887 0 18 0C27.9411 0 36 8.05887 36 18C36 27.9411 27.9411 36 18 36C8.05887 36 0 27.9411 0 18ZM28.4986 14.243C29.1362 13.6026 29.134 12.5665 28.4936 11.9288L27.334 10.7742C26.6936 10.1366 25.6575 10.1388 25.0198 10.7792L15.5754 20.2644L10.1409 14.9055C9.49743 14.271 8.46136 14.2783 7.82682 14.9218L6.67787 16.0869C6.04332 16.7304 6.05058 17.7665 6.69408 18.401L14.4477 26.0467C15.0889 26.6791 16.1207 26.6743 16.7562 26.0361L28.4986 14.243Z" fill="#2B5CAB"/>
</svg>