<svg width="30" height="30" viewBox="0 0 30 30" fill="none" xmlns="http://www.w3.org/2000/svg">
<g clip-path="url(#clip0_964_6338)">
<path d="M10.625 12.9941C10.4592 12.9941 10.3003 12.9283 10.1831 12.8111C10.0658 12.6939 10 12.5349 10 12.3691V11.1191C10 10.9534 10.0658 10.7944 10.1831 10.6772C10.3003 10.56 10.4592 10.4941 10.625 10.4941C10.7908 10.4941 10.9497 10.56 11.0669 10.6772C11.1842 10.7944 11.25 10.9534 11.25 11.1191V12.3691C11.25 12.5349 11.1842 12.6939 11.0669 12.8111C10.9497 12.9283 10.7908 12.9941 10.625 12.9941ZM10.625 23.5704C10.4592 23.5704 10.3003 23.5045 10.1831 23.3873C10.0658 23.2701 10 23.1112 10 22.9454V20.8316C10 20.6659 10.0658 20.5069 10.1831 20.3897C10.3003 20.2725 10.4592 20.2066 10.625 20.2066C10.7908 20.2066 10.9497 20.2725 11.0669 20.3897C11.1842 20.5069 11.25 20.6659 11.25 20.8316V22.9466C11.2497 23.1122 11.1837 23.2708 11.0665 23.3878C10.9493 23.5047 10.7905 23.5704 10.625 23.5704ZM10.625 18.2829C10.4592 18.2829 10.3003 18.217 10.1831 18.0998C10.0658 17.9826 10 17.8237 10 17.6579V15.5429C10 15.3771 10.0658 15.2182 10.1831 15.1009C10.3003 14.9837 10.4592 14.9179 10.625 14.9179C10.7908 14.9179 10.9497 14.9837 11.0669 15.1009C11.1842 15.2182 11.25 15.3771 11.25 15.5429V17.6579C11.25 17.8237 11.1842 17.9826 11.0669 18.0998C10.9497 18.217 10.7908 18.2829 10.625 18.2829ZM10.625 27.9941C10.4592 27.9941 10.3003 27.9283 10.1831 27.8111C10.0658 27.6939 10 27.5349 10 27.3691V26.1191C10 25.9534 10.0658 25.7944 10.1831 25.6772C10.3003 25.56 10.4592 25.4941 10.625 25.4941C10.7908 25.4941 10.9497 25.56 11.0669 25.6772C11.1842 25.7944 11.25 25.9534 11.25 26.1191V27.3691C11.25 27.5349 11.1842 27.6939 11.0669 27.8111C10.9497 27.9283 10.7908 27.9941 10.625 27.9941Z" fill="white"/>
<path d="M3.12025 11.7443C2.97209 11.7475 2.82766 11.6977 2.71293 11.6039C2.59819 11.5101 2.52067 11.3785 2.49431 11.2327C2.46794 11.0869 2.49447 10.9364 2.56911 10.8084C2.64375 10.6804 2.76161 10.5832 2.9015 10.5343L22.7765 3.11304C23.7427 2.75054 24.8777 3.29304 25.2077 4.26679L27.4615 10.918C27.5124 11.0744 27.4996 11.2445 27.4259 11.3915C27.3522 11.5385 27.2235 11.6505 27.0678 11.7033C26.9121 11.7561 26.7418 11.7454 26.5939 11.6735C26.446 11.6016 26.3324 11.4744 26.2777 11.3193L24.024 4.66804C23.9666 4.51003 23.8493 4.381 23.6974 4.30893C23.5456 4.23686 23.3714 4.22756 23.2127 4.28304L3.33775 11.7043C3.26833 11.7309 3.19459 11.7445 3.12025 11.7443Z" fill="white"/>
<path d="M26.875 27.9941H3.125C2.2965 27.9931 1.50222 27.6636 0.916387 27.0778C0.330551 26.4919 0.000992411 25.6976 0 24.8691L0 22.3691C0 22.2034 0.065848 22.0444 0.183058 21.9272C0.300269 21.81 0.45924 21.7441 0.625 21.7441H1.25C2.62875 21.7441 3.75 20.6229 3.75 19.2441C3.75 17.8654 2.62875 16.7441 1.25 16.7441H0.625C0.45924 16.7441 0.300269 16.6783 0.183058 16.5611C0.065848 16.4439 0 16.2849 0 16.1191V13.6191C0 11.8966 1.4025 10.4941 3.125 10.4941H26.875C28.5975 10.4941 30 11.8966 30 13.6191V16.1191C30 16.2849 29.9342 16.4439 29.8169 16.5611C29.6997 16.6783 29.5408 16.7441 29.375 16.7441H28.75C28.2562 16.7454 27.7737 16.8928 27.3635 17.1677C26.9532 17.4426 26.6335 17.8328 26.4445 18.289C26.2555 18.7453 26.2058 19.2473 26.3015 19.7317C26.3973 20.2162 26.6342 20.6615 26.9825 21.0116C27.4538 21.4841 28.0813 21.7441 28.7488 21.7441H29.3738C29.5395 21.7441 29.6985 21.81 29.8157 21.9272C29.9329 22.0444 29.9988 22.2034 29.9988 22.3691V24.8691C29.9981 25.6975 29.6688 26.4918 29.0832 27.0777C28.4975 27.6635 27.7034 27.9931 26.875 27.9941ZM1.25 22.9941V24.8691C1.25 25.9029 2.09125 26.7441 3.125 26.7441H26.875C27.9088 26.7441 28.75 25.9029 28.75 24.8691V22.9941C28.2577 22.9955 27.7687 22.8992 27.3138 22.7108C26.859 22.5224 26.446 22.2457 26.0987 21.8966C25.7494 21.5491 25.4723 21.1357 25.2837 20.6804C25.0952 20.2251 24.9987 19.737 25 19.2441C25 17.1766 26.6825 15.4941 28.75 15.4941V13.6191C28.75 12.5854 27.9088 11.7441 26.875 11.7441H3.125C2.09125 11.7441 1.25 12.5854 1.25 13.6191V15.4941C3.3175 15.4941 5 17.1766 5 19.2441C5 21.3116 3.3175 22.9941 1.25 22.9941Z" fill="white"/>
</g>
<defs>
<clipPath id="clip0_964_6338">
<rect width="30" height="30" fill="white"/>
</clipPath>
</defs>
</svg>
