<svg width="15" height="15" viewBox="0 0 15 15" fill="none" xmlns="http://www.w3.org/2000/svg">
<g clip-path="url(#clip0_964_8815)">
<path d="M2.5 4.375H12.5" stroke="#1D273B" stroke-width="1.25" stroke-linecap="round" stroke-linejoin="round"/>
<path d="M6.25 6.875V10.625" stroke="#1D273B" stroke-width="1.25" stroke-linecap="round" stroke-linejoin="round"/>
<path d="M8.75 6.875V10.625" stroke="#1D273B" stroke-width="1.25" stroke-linecap="round" stroke-linejoin="round"/>
<path d="M3.125 4.375L3.75 11.875C3.75 12.2065 3.8817 12.5245 4.11612 12.7589C4.35054 12.9933 4.66848 13.125 5 13.125H10C10.3315 13.125 10.6495 12.9933 10.8839 12.7589C11.1183 12.5245 11.25 12.2065 11.25 11.875L11.875 4.375" stroke="#1D273B" stroke-width="1.25" stroke-linecap="round" stroke-linejoin="round"/>
<path d="M5.625 4.375V2.5C5.625 2.33424 5.69085 2.17527 5.80806 2.05806C5.92527 1.94085 6.08424 1.875 6.25 1.875H8.75C8.91576 1.875 9.07473 1.94085 9.19194 2.05806C9.30915 2.17527 9.375 2.33424 9.375 2.5V4.375" stroke="#1D273B" stroke-width="1.25" stroke-linecap="round" stroke-linejoin="round"/>
</g>
<defs>
<clipPath id="clip0_964_8815">
<rect width="15" height="15" fill="white"/>
</clipPath>
</defs>
</svg>
