<svg width="150" height="150" viewBox="0 0 150 150" fill="none" xmlns="http://www.w3.org/2000/svg">
<path d="M43.75 112.5V106.25C43.75 97.962 47.0424 90.0134 52.9029 84.1529C58.7634 78.2924 66.712 75 75 75C83.288 75 91.2366 78.2924 97.0971 84.1529C102.958 90.0134 106.25 97.962 106.25 106.25V112.5" stroke="#2B5CAB" stroke-width="1.5" stroke-linecap="round"/>
<path d="M75 75C79.9728 75 84.7419 73.0246 88.2583 69.5083C91.7746 65.9919 93.75 61.2228 93.75 56.25C93.75 51.2772 91.7746 46.5081 88.2583 42.9917C84.7419 39.4754 79.9728 37.5 75 37.5C70.0272 37.5 65.2581 39.4754 61.7417 42.9917C58.2254 46.5081 56.25 51.2772 56.25 56.25C56.25 61.2228 58.2254 65.9919 61.7417 69.5083C65.2581 73.0246 70.0272 75 75 75Z" stroke="#2B5CAB" stroke-width="1.5" stroke-linecap="round" stroke-linejoin="round"/>
<path d="M75 137.5C109.518 137.5 137.5 109.518 137.5 75C137.5 40.4822 109.518 12.5 75 12.5C40.4822 12.5 12.5 40.4822 12.5 75C12.5 109.518 40.4822 137.5 75 137.5Z" stroke="black" stroke-width="1.5"/>
</svg>
