<svg width="30" height="30" viewBox="0 0 30 30" fill="none" xmlns="http://www.w3.org/2000/svg">
<path d="M8.75 22.5V21.25C8.75 19.5924 9.40848 18.0027 10.5806 16.8306C11.7527 15.6585 13.3424 15 15 15C16.6576 15 18.2473 15.6585 19.4194 16.8306C20.5915 18.0027 21.25 19.5924 21.25 21.25V22.5" stroke="white" stroke-width="1.5" stroke-linecap="round"/>
<path d="M15 15C15.9946 15 16.9484 14.6049 17.6517 13.9017C18.3549 13.1984 18.75 12.2446 18.75 11.25C18.75 10.2554 18.3549 9.30161 17.6517 8.59835C16.9484 7.89509 15.9946 7.5 15 7.5C14.0054 7.5 13.0516 7.89509 12.3483 8.59835C11.6451 9.30161 11.25 10.2554 11.25 11.25C11.25 12.2446 11.6451 13.1984 12.3483 13.9017C13.0516 14.6049 14.0054 15 15 15Z" stroke="white" stroke-width="1.5" stroke-linecap="round" stroke-linejoin="round"/>
<path d="M15 27.5C21.9036 27.5 27.5 21.9036 27.5 15C27.5 8.09644 21.9036 2.5 15 2.5C8.09644 2.5 2.5 8.09644 2.5 15C2.5 21.9036 8.09644 27.5 15 27.5Z" stroke="white" stroke-width="1.5"/>
</svg>
