<svg width="30" height="30" viewBox="0 0 30 30" fill="none" xmlns="http://www.w3.org/2000/svg">
<mask id="path-1-inside-1_964_6332" fill="white">
<path d="M27.8403 7.61746H23.9644V2.2034C23.9632 2.12805 23.9442 2.05405 23.9088 1.9875C23.8735 1.92096 23.8228 1.86376 23.761 1.82062C23.6992 1.77748 23.6281 1.74963 23.5534 1.73937C23.4788 1.72911 23.4027 1.73673 23.3316 1.7616L18.6148 3.43386L16.8601 1.69539C16.772 1.60813 16.6529 1.5593 16.5289 1.55957C16.4049 1.55985 16.2861 1.6092 16.1983 1.69685L12.1712 5.71316L5.54219 7.61746H5.53996C5.2811 7.61746 5.09723 7.84844 5.09723 8.1073V17.5468C3.10504 18.4345 1.70313 20.4319 1.70313 22.7484C1.70198 24.0272 2.13222 25.269 2.92428 26.273C3.71634 27.277 4.8239 27.9845 6.06786 28.2811C7.31182 28.5777 8.61946 28.446 9.7793 27.9073C10.9392 27.3687 11.8834 26.4546 12.4594 25.3128H27.8402C27.9008 25.3138 27.9609 25.3026 28.0171 25.28C28.0732 25.2574 28.1243 25.2237 28.1672 25.1809C28.2101 25.1382 28.244 25.0873 28.2669 25.0312C28.2897 24.9752 28.3011 24.9151 28.3004 24.8545V8.1073C28.3004 7.84844 28.0991 7.61746 27.8403 7.61746ZM23.0269 2.86697V7.61746H22.8561L19.3577 4.15562L23.0269 2.86697ZM16.5309 2.66834L21.5243 7.61746H11.5818L16.5309 2.66834ZM10.7988 7.07459L10.2559 7.61746H8.92L10.7988 7.07459ZM7.38274 27.5037C6.44221 27.5037 5.5228 27.2248 4.74077 26.7023C3.95875 26.1797 3.34924 25.4371 2.98931 24.5681C2.62938 23.6992 2.53521 22.743 2.7187 21.8206C2.90219 20.8981 3.3551 20.0508 4.02015 19.3857C4.68521 18.7207 5.53254 18.2678 6.455 18.0843C7.37746 17.9008 8.33362 17.9949 9.20255 18.3549C10.0715 18.7148 10.8142 19.3243 11.3367 20.1063C11.8592 20.8884 12.1381 21.8078 12.1381 22.7483C12.1368 24.009 11.6353 25.2178 10.7439 26.1093C9.85241 27.0008 8.64372 27.5023 7.38297 27.5038L7.38274 27.5037ZM27.3629 19.512H24.2996C23.4993 19.512 22.7317 19.1941 22.1658 18.6282C21.5999 18.0623 21.282 17.2947 21.282 16.4944C21.282 15.6941 21.5999 14.9266 22.1658 14.3607C22.7317 13.7948 23.4993 13.4768 24.2996 13.4768H27.3629V19.512ZM27.3629 12.5393H24.2996C23.2506 12.5393 22.2446 12.956 21.5029 13.6977C20.7612 14.4395 20.3445 15.4455 20.3445 16.4944C20.3445 17.5434 20.7612 18.5494 21.5029 19.2911C22.2446 20.0328 23.2506 20.4495 24.2996 20.4495H27.3629V24.3753H12.8355C13.0904 23.5266 13.1435 22.6302 12.9905 21.7574C12.8374 20.8846 12.4826 20.0597 11.9542 19.3484C11.4258 18.6371 10.7385 18.0591 9.94707 17.6605C9.15566 17.262 8.28207 17.0539 7.39598 17.0529C6.93682 17.0517 6.47938 17.109 6.03473 17.2236V8.55496H27.3629V12.5393Z"/>
</mask>
<path d="M27.8403 7.61746H23.9644V2.2034C23.9632 2.12805 23.9442 2.05405 23.9088 1.9875C23.8735 1.92096 23.8228 1.86376 23.761 1.82062C23.6992 1.77748 23.6281 1.74963 23.5534 1.73937C23.4788 1.72911 23.4027 1.73673 23.3316 1.7616L18.6148 3.43386L16.8601 1.69539C16.772 1.60813 16.6529 1.5593 16.5289 1.55957C16.4049 1.55985 16.2861 1.6092 16.1983 1.69685L12.1712 5.71316L5.54219 7.61746H5.53996C5.2811 7.61746 5.09723 7.84844 5.09723 8.1073V17.5468C3.10504 18.4345 1.70313 20.4319 1.70313 22.7484C1.70198 24.0272 2.13222 25.269 2.92428 26.273C3.71634 27.277 4.8239 27.9845 6.06786 28.2811C7.31182 28.5777 8.61946 28.446 9.7793 27.9073C10.9392 27.3687 11.8834 26.4546 12.4594 25.3128H27.8402C27.9008 25.3138 27.9609 25.3026 28.0171 25.28C28.0732 25.2574 28.1243 25.2237 28.1672 25.1809C28.2101 25.1382 28.244 25.0873 28.2669 25.0312C28.2897 24.9752 28.3011 24.9151 28.3004 24.8545V8.1073C28.3004 7.84844 28.0991 7.61746 27.8403 7.61746ZM23.0269 2.86697V7.61746H22.8561L19.3577 4.15562L23.0269 2.86697ZM16.5309 2.66834L21.5243 7.61746H11.5818L16.5309 2.66834ZM10.7988 7.07459L10.2559 7.61746H8.92L10.7988 7.07459ZM7.38274 27.5037C6.44221 27.5037 5.5228 27.2248 4.74077 26.7023C3.95875 26.1797 3.34924 25.4371 2.98931 24.5681C2.62938 23.6992 2.53521 22.743 2.7187 21.8206C2.90219 20.8981 3.3551 20.0508 4.02015 19.3857C4.68521 18.7207 5.53254 18.2678 6.455 18.0843C7.37746 17.9008 8.33362 17.9949 9.20255 18.3549C10.0715 18.7148 10.8142 19.3243 11.3367 20.1063C11.8592 20.8884 12.1381 21.8078 12.1381 22.7483C12.1368 24.009 11.6353 25.2178 10.7439 26.1093C9.85241 27.0008 8.64372 27.5023 7.38297 27.5038L7.38274 27.5037ZM27.3629 19.512H24.2996C23.4993 19.512 22.7317 19.1941 22.1658 18.6282C21.5999 18.0623 21.282 17.2947 21.282 16.4944C21.282 15.6941 21.5999 14.9266 22.1658 14.3607C22.7317 13.7948 23.4993 13.4768 24.2996 13.4768H27.3629V19.512ZM27.3629 12.5393H24.2996C23.2506 12.5393 22.2446 12.956 21.5029 13.6977C20.7612 14.4395 20.3445 15.4455 20.3445 16.4944C20.3445 17.5434 20.7612 18.5494 21.5029 19.2911C22.2446 20.0328 23.2506 20.4495 24.2996 20.4495H27.3629V24.3753H12.8355C13.0904 23.5266 13.1435 22.6302 12.9905 21.7574C12.8374 20.8846 12.4826 20.0597 11.9542 19.3484C11.4258 18.6371 10.7385 18.0591 9.94707 17.6605C9.15566 17.262 8.28207 17.0539 7.39598 17.0529C6.93682 17.0517 6.47938 17.109 6.03473 17.2236V8.55496H27.3629V12.5393Z" fill="white"/>
<path d="M23.9644 7.61746H21.9644V9.61746H23.9644V7.61746ZM23.9644 2.2034H25.9644V2.18787L25.9642 2.17235L23.9644 2.2034ZM23.3316 1.7616L22.6716 -0.126377L22.6633 -0.123437L23.3316 1.7616ZM18.6148 3.43386L17.2072 4.85463L18.0994 5.73858L19.2831 5.3189L18.6148 3.43386ZM16.8601 1.69539L18.2677 0.274619L18.2675 0.274371L16.8601 1.69539ZM16.1983 1.69685L17.6107 3.11297L17.612 3.11163L16.1983 1.69685ZM12.1712 5.71316L12.7234 7.63542L13.2186 7.49315L13.5835 7.12928L12.1712 5.71316ZM5.54219 7.61746V9.61746H5.82376L6.09439 9.53972L5.54219 7.61746ZM5.09723 17.5468L5.9113 19.3736L7.09723 18.8451V17.5468H5.09723ZM1.70313 22.7484L3.70313 22.7501V22.7484H1.70313ZM12.4594 25.3128V23.3128H11.2282L10.6737 24.412L12.4594 25.3128ZM27.8402 25.3128L27.8738 23.3131L27.857 23.3128H27.8402V25.3128ZM28.3004 24.8545H26.3004V24.8672L26.3005 24.8799L28.3004 24.8545ZM23.0269 2.86697H25.0269V0.0447927L22.3642 0.979965L23.0269 2.86697ZM23.0269 7.61746V9.61746H25.0269V7.61746H23.0269ZM22.8561 7.61746L21.4493 9.03908L22.0338 9.61746H22.8561V7.61746ZM19.3577 4.15562L18.695 2.26862L15.6781 3.32817L17.951 5.57725L19.3577 4.15562ZM16.5309 2.66834L17.9388 1.24784L16.5246 -0.153811L15.1166 1.25413L16.5309 2.66834ZM21.5243 7.61746V9.61746H26.3833L22.9322 6.19696L21.5243 7.61746ZM11.5818 7.61746L10.1676 6.20325L6.75341 9.61746H11.5818V7.61746ZM10.7988 7.07459L12.213 8.48872L10.2436 5.15319L10.7988 7.07459ZM10.2559 7.61746V9.61746H11.0844L11.6702 9.0316L10.2559 7.61746ZM8.92 7.61746L8.36481 5.69606L8.92 9.61746V7.61746ZM7.38274 27.5037L7.87042 25.5641L7.63031 25.5037H7.38274V27.5037ZM12.1381 22.7483L14.1381 22.7505V22.7483H12.1381ZM7.38297 27.5038L6.89529 29.4434L7.13655 29.5041L7.38531 29.5038L7.38297 27.5038ZM27.3629 19.512V21.512H29.3629V19.512H27.3629ZM24.2996 13.4768V11.4768V13.4768ZM27.3629 13.4768H29.3629V11.4768H27.3629V13.4768ZM27.3629 12.5393V14.5393H29.3629V12.5393H27.3629ZM24.2996 12.5393V10.5393V12.5393ZM24.2996 20.4495V22.4495V20.4495ZM27.3629 20.4495H29.3629V18.4495H27.3629V20.4495ZM27.3629 24.3753V26.3753H29.3629V24.3753H27.3629ZM12.8355 24.3753L10.92 23.7999L10.1464 26.3753H12.8355V24.3753ZM7.39598 17.0529L7.39069 19.0529L7.39367 19.0529L7.39598 17.0529ZM6.03473 17.2236H4.03473V19.804L6.53364 19.1603L6.03473 17.2236ZM6.03473 8.55496V6.55496H4.03473V8.55496H6.03473ZM27.3629 8.55496H29.3629V6.55496H27.3629V8.55496ZM27.8403 5.61746H23.9644V9.61746H27.8403V5.61746ZM25.9644 7.61746V2.2034H21.9644V7.61746H25.9644ZM25.9642 2.17235C25.9581 1.78031 25.859 1.39531 25.675 1.04904L22.1427 2.92596C22.0294 2.71279 21.9684 2.47578 21.9647 2.23444L25.9642 2.17235ZM25.675 1.04904C25.491 0.702774 25.2274 0.405175 24.9059 0.18073L22.6161 3.46051C22.4182 3.32234 22.256 3.13914 22.1427 2.92596L25.675 1.04904ZM24.9059 0.18073C24.5844 -0.0437231 24.2142 -0.18861 23.8257 -0.241999L23.2811 3.72075C23.042 3.68788 22.8141 3.59868 22.6161 3.46051L24.9059 0.18073ZM23.8257 -0.241999C23.4373 -0.295388 23.0417 -0.255754 22.6716 -0.126359L23.9916 3.64956C23.7638 3.72921 23.5202 3.75361 23.2811 3.72075L23.8257 -0.241999ZM22.6633 -0.123437L17.9465 1.54883L19.2831 5.3189L23.9999 3.64664L22.6633 -0.123437ZM20.0224 2.01309L18.2677 0.274619L15.4525 3.11616L17.2072 4.85463L20.0224 2.01309ZM18.2675 0.274371C17.8038 -0.184874 17.1771 -0.441868 16.5245 -0.440424L16.5333 3.55957C16.1287 3.56046 15.7402 3.40113 15.4527 3.11641L18.2675 0.274371ZM16.5245 -0.440424C15.8719 -0.438979 15.2463 -0.179211 14.7847 0.282081L17.612 3.11163C17.3258 3.39762 16.938 3.55867 16.5333 3.55957L16.5245 -0.440424ZM14.786 0.280735L10.7589 4.29704L13.5835 7.12928L17.6106 3.11297L14.786 0.280735ZM11.619 3.7909L4.98999 5.6952L6.09439 9.53972L12.7234 7.63542L11.619 3.7909ZM5.54219 5.61746H5.53996V9.61746H5.54219V5.61746ZM5.53996 5.61746C3.92265 5.61746 3.09723 7.01611 3.09723 8.1073H7.09723C7.09723 8.68076 6.63954 9.61746 5.53996 9.61746V5.61746ZM3.09723 8.1073V17.5468H7.09723V8.1073H3.09723ZM4.28316 15.7199C1.60452 16.9136 -0.296873 19.6048 -0.296873 22.7484H3.70313C3.70313 21.259 4.60557 19.9554 5.9113 19.3736L4.28316 15.7199ZM-0.296872 22.7466C-0.29842 24.4755 0.283247 26.1544 1.35407 27.5117L4.49449 25.0343C3.9812 24.3837 3.70238 23.5789 3.70313 22.7501L-0.296872 22.7466ZM1.35407 27.5117C2.42489 28.8691 3.92226 29.8256 5.60404 30.2266L6.53168 26.3356C5.72554 26.1434 5.00778 25.685 4.49449 25.0343L1.35407 27.5117ZM5.60404 30.2266C7.28581 30.6275 9.05367 30.4495 10.6217 29.7213L8.93688 26.0934C8.18524 26.4425 7.33783 26.5278 6.53168 26.3356L5.60404 30.2266ZM10.6217 29.7213C12.1898 28.993 13.4664 27.7572 14.245 26.2135L10.6737 24.412C10.3004 25.1519 9.68852 25.7443 8.93688 26.0934L10.6217 29.7213ZM12.4594 27.3128H27.8402V23.3128H12.4594V27.3128ZM27.8067 27.3125C28.1348 27.318 28.4606 27.2576 28.765 27.1349L27.2691 23.4251C27.4611 23.3477 27.6668 23.3096 27.8738 23.3131L27.8067 27.3125ZM28.765 27.1349C29.0694 27.0121 29.346 26.8296 29.5785 26.598L26.7559 23.7638C26.9025 23.6177 27.0771 23.5026 27.2691 23.4251L28.765 27.1349ZM29.5785 26.598C29.811 26.3665 29.9947 26.0906 30.1187 25.7867L26.415 24.2757C26.4933 24.084 26.6092 23.9099 26.7559 23.7638L29.5785 26.598ZM30.1187 25.7867C30.2426 25.4829 30.3044 25.1573 30.3002 24.8291L26.3005 24.8799C26.2979 24.6729 26.3368 24.4674 26.415 24.2757L30.1187 25.7867ZM30.3004 24.8545V8.1073H26.3004V24.8545H30.3004ZM30.3004 8.1073C30.3004 6.90965 29.3625 5.61746 27.8403 5.61746V9.61746C26.8358 9.61746 26.3004 8.78722 26.3004 8.1073H30.3004ZM21.0269 2.86697V7.61746H25.0269V2.86697H21.0269ZM23.0269 5.61746H22.8561V9.61746H23.0269V5.61746ZM24.2629 6.19584L20.7645 2.734L17.951 5.57725L21.4493 9.03908L24.2629 6.19584ZM20.0204 6.04263L23.6896 4.75397L22.3642 0.979965L18.695 2.26862L20.0204 6.04263ZM15.123 4.08884L20.1164 9.03796L22.9322 6.19696L17.9388 1.24784L15.123 4.08884ZM21.5243 5.61746H11.5818V9.61746H21.5243V5.61746ZM12.996 9.03166L17.9451 4.08254L15.1166 1.25413L10.1676 6.20325L12.996 9.03166ZM9.38446 5.66045L8.84165 6.20332L11.6702 9.0316L12.213 8.48872L9.38446 5.66045ZM10.2559 5.61746H8.92V9.61746H10.2559V5.61746ZM9.4752 9.53885L11.3539 8.99598L10.2436 5.15319L8.36481 5.69606L9.4752 9.53885ZM7.38274 25.5037C6.83777 25.5037 6.30504 25.3421 5.85191 25.0393L3.62963 28.3652C4.74055 29.1075 6.04664 29.5037 7.38274 29.5037V25.5037ZM5.85191 25.0393C5.39879 24.7366 5.04562 24.3062 4.83707 23.8027L1.14155 25.3335C1.65285 26.5679 2.51871 27.6229 3.62963 28.3652L5.85191 25.0393ZM4.83707 23.8027C4.62852 23.2993 4.57395 22.7452 4.68027 22.2107L0.75713 21.4304C0.496471 22.7408 0.63025 24.0991 1.14155 25.3335L4.83707 23.8027ZM4.68027 22.2107C4.78659 21.6762 5.04902 21.1853 5.43437 20.7999L2.60594 17.9715C1.66118 18.9163 1.01779 20.12 0.75713 21.4304L4.68027 22.2107ZM5.43437 20.7999C5.81972 20.4146 6.31068 20.1522 6.84518 20.0458L6.06482 16.1227C4.7544 16.3834 3.5507 17.0267 2.60594 17.9715L5.43437 20.7999ZM6.84518 20.0458C7.37968 19.9395 7.9337 19.9941 8.43719 20.2026L9.96792 16.5071C8.73353 15.9958 7.37524 15.862 6.06482 16.1227L6.84518 20.0458ZM8.43719 20.2026C8.94067 20.4112 9.37101 20.7644 9.67378 21.2175L12.9997 18.9952C12.2574 17.8843 11.2023 17.0184 9.96792 16.5071L8.43719 20.2026ZM9.67378 21.2175C9.97654 21.6706 10.1381 22.2033 10.1381 22.7483H14.1381C14.1381 21.4122 13.742 20.1061 12.9997 18.9952L9.67378 21.2175ZM10.1381 22.7461C10.1373 23.4772 9.84656 24.1781 9.32961 24.6951L12.1581 27.5234C13.4241 26.2574 14.1362 24.5409 14.1381 22.7505L10.1381 22.7461ZM9.32961 24.6951C8.81265 25.2121 8.11174 25.5029 7.38063 25.5038L7.38531 29.5038C9.1757 29.5017 10.8922 28.7895 12.1581 27.5234L9.32961 24.6951ZM7.87065 25.5641L7.87042 25.5641L6.89506 29.4433L6.89529 29.4434L7.87065 25.5641ZM27.3629 17.512H24.2996V21.512H27.3629V17.512ZM24.2996 17.512C24.0297 17.512 23.7709 17.4048 23.58 17.2139L20.7516 20.0424C21.6926 20.9834 22.9688 21.512 24.2996 21.512V17.512ZM23.58 17.2139C23.3892 17.0231 23.282 16.7643 23.282 16.4944H19.282C19.282 17.8252 19.8106 19.1014 20.7516 20.0424L23.58 17.2139ZM23.282 16.4944C23.282 16.2245 23.3892 15.9657 23.58 15.7749L20.7516 12.9464C19.8106 13.8874 19.282 15.1637 19.282 16.4944H23.282ZM23.58 15.7749C23.7709 15.584 24.0297 15.4768 24.2996 15.4768V11.4768C22.9688 11.4768 21.6926 12.0055 20.7516 12.9464L23.58 15.7749ZM24.2996 15.4768H27.3629V11.4768H24.2996V15.4768ZM25.3629 13.4768V19.512H29.3629V13.4768H25.3629ZM27.3629 10.5393H24.2996V14.5393H27.3629V10.5393ZM24.2996 10.5393C22.7202 10.5393 21.2055 11.1667 20.0887 12.2835L22.9171 15.112C23.2838 14.7453 23.7811 14.5393 24.2996 14.5393V10.5393ZM20.0887 12.2835C18.9719 13.4003 18.3445 14.915 18.3445 16.4944H22.3445C22.3445 15.9759 22.5505 15.4786 22.9171 15.112L20.0887 12.2835ZM18.3445 16.4944C18.3445 18.0738 18.9719 19.5885 20.0887 20.7053L22.9171 17.8769C22.5505 17.5102 22.3445 17.0129 22.3445 16.4944H18.3445ZM20.0887 20.7053C21.2055 21.8221 22.7202 22.4495 24.2996 22.4495V18.4495C23.7811 18.4495 23.2838 18.2435 22.9171 17.8769L20.0887 20.7053ZM24.2996 22.4495H27.3629V18.4495H24.2996V22.4495ZM25.3629 20.4495V24.3753H29.3629V20.4495H25.3629ZM27.3629 22.3753H12.8355V26.3753H27.3629V22.3753ZM14.7509 24.9507C15.0955 23.8035 15.1672 22.5918 14.9604 21.412L11.0205 22.1028C11.1197 22.6686 11.0853 23.2497 10.92 23.7999L14.7509 24.9507ZM14.9604 21.412C14.7536 20.2323 14.2739 19.1172 13.5597 18.1557L10.3487 20.541C10.6913 21.0021 10.9213 21.5369 11.0205 22.1028L14.9604 21.412ZM13.5597 18.1557C12.8454 17.1942 11.9164 16.413 10.8466 15.8742L9.04751 19.4468C9.56057 19.7052 10.0061 20.0799 10.3487 20.541L13.5597 18.1557ZM10.8466 15.8742C9.77688 15.3355 8.59603 15.0543 7.39829 15.0529L7.39367 19.0529C7.96811 19.0535 8.53445 19.1884 9.04751 19.4468L10.8466 15.8742ZM7.40127 15.0529C6.77204 15.0512 6.14516 15.1298 5.53582 15.2868L6.53364 19.1603C6.81359 19.0882 7.1016 19.0521 7.39069 19.0529L7.40127 15.0529ZM8.03473 17.2236V8.55496H4.03473V17.2236H8.03473ZM6.03473 10.555H27.3629V6.55496H6.03473V10.555ZM25.3629 8.55496V12.5393H29.3629V8.55496H25.3629Z" fill="white" mask="url(#path-1-inside-1_964_6332)"/>
<mask id="path-3-inside-2_964_6332" fill="white">
<path d="M22.0713 16.5018C22.0713 16.8289 22.1683 17.1487 22.3501 17.4208C22.5318 17.6928 22.7902 17.9048 23.0924 18.0301C23.3947 18.1553 23.7273 18.188 24.0482 18.1242C24.3691 18.0604 24.6638 17.9028 24.8952 17.6715C25.1265 17.4401 25.284 17.1454 25.3479 16.8245C25.4117 16.5036 25.3789 16.171 25.2537 15.8688C25.1285 15.5665 24.9165 15.3082 24.6445 15.1264C24.3724 14.9447 24.0526 14.8476 23.7254 14.8477C23.2869 14.8482 22.8664 15.0226 22.5563 15.3327C22.2463 15.6428 22.0718 16.0632 22.0713 16.5018ZM24.4421 16.5018C24.4421 16.6435 24.4001 16.7821 24.3213 16.8999C24.2426 17.0178 24.1307 17.1097 23.9997 17.1639C23.8688 17.2182 23.7247 17.2324 23.5856 17.2047C23.4466 17.1771 23.3189 17.1088 23.2187 17.0086C23.1185 16.9084 23.0502 16.7807 23.0225 16.6417C22.9949 16.5026 23.0091 16.3585 23.0633 16.2276C23.1176 16.0966 23.2094 15.9847 23.3273 15.9059C23.4451 15.8272 23.5837 15.7852 23.7254 15.7852C23.9154 15.7854 24.0975 15.861 24.2319 15.9953C24.3662 16.1296 24.4419 16.3118 24.4421 16.5018ZM9.57943 20.1571C9.57943 20.0328 9.53005 19.9135 9.44214 19.8256C9.35423 19.7377 9.235 19.6883 9.11068 19.6883H5.54789C5.42357 19.6883 5.30434 19.7377 5.21643 19.8256C5.12852 19.9135 5.07914 20.0328 5.07914 20.1571C5.07914 20.2814 5.12852 20.4006 5.21643 20.4885C5.30434 20.5764 5.42357 20.6258 5.54789 20.6258H6.56742C6.76465 20.6247 6.95823 20.6791 7.12606 20.7827C7.2939 20.8863 7.42924 21.0349 7.51664 21.2118H5.54789C5.42357 21.2118 5.30434 21.2611 5.21643 21.3491C5.12852 21.437 5.07914 21.5562 5.07914 21.6805C5.07914 21.8048 5.12852 21.9241 5.21643 22.012C5.30434 22.0999 5.42357 22.1493 5.54789 22.1493H7.51664C7.3432 22.5008 6.98344 22.7938 6.56742 22.7938H5.54789C5.45506 22.7907 5.36349 22.8161 5.28553 22.8665C5.20757 22.917 5.14695 22.9902 5.11184 23.0762C5.07673 23.1622 5.06882 23.2569 5.08916 23.3475C5.1095 23.4381 5.15713 23.5204 5.22562 23.5831L7.77398 25.9879C7.86494 26.072 7.98547 26.1168 8.10931 26.1125C8.23315 26.1082 8.35028 26.0552 8.43519 25.9649C8.52011 25.8747 8.56592 25.7545 8.56267 25.6306C8.55941 25.5068 8.50735 25.3892 8.41781 25.3035L6.71976 23.6857C7.14455 23.6591 7.54908 23.4947 7.87198 23.2175C8.19488 22.9402 8.41852 22.5651 8.50898 22.1493H9.11068C9.235 22.1493 9.35423 22.0999 9.44214 22.012C9.53005 21.9241 9.57943 21.8048 9.57943 21.6805C9.57943 21.5562 9.53005 21.437 9.44214 21.3491C9.35423 21.2611 9.235 21.2118 9.11068 21.2118H8.50863C8.45201 21.0062 8.36806 20.8091 8.25902 20.6258H9.11068C9.235 20.6258 9.35423 20.5764 9.44214 20.4885C9.53005 20.4006 9.57943 20.2814 9.57943 20.1571Z"/>
</mask>
<path d="M22.0713 16.5018C22.0713 16.8289 22.1683 17.1487 22.3501 17.4208C22.5318 17.6928 22.7902 17.9048 23.0924 18.0301C23.3947 18.1553 23.7273 18.188 24.0482 18.1242C24.3691 18.0604 24.6638 17.9028 24.8952 17.6715C25.1265 17.4401 25.284 17.1454 25.3479 16.8245C25.4117 16.5036 25.3789 16.171 25.2537 15.8688C25.1285 15.5665 24.9165 15.3082 24.6445 15.1264C24.3724 14.9447 24.0526 14.8476 23.7254 14.8477C23.2869 14.8482 22.8664 15.0226 22.5563 15.3327C22.2463 15.6428 22.0718 16.0632 22.0713 16.5018ZM24.4421 16.5018C24.4421 16.6435 24.4001 16.7821 24.3213 16.8999C24.2426 17.0178 24.1307 17.1097 23.9997 17.1639C23.8688 17.2182 23.7247 17.2324 23.5856 17.2047C23.4466 17.1771 23.3189 17.1088 23.2187 17.0086C23.1185 16.9084 23.0502 16.7807 23.0225 16.6417C22.9949 16.5026 23.0091 16.3585 23.0633 16.2276C23.1176 16.0966 23.2094 15.9847 23.3273 15.9059C23.4451 15.8272 23.5837 15.7852 23.7254 15.7852C23.9154 15.7854 24.0975 15.861 24.2319 15.9953C24.3662 16.1296 24.4419 16.3118 24.4421 16.5018ZM9.57943 20.1571C9.57943 20.0328 9.53005 19.9135 9.44214 19.8256C9.35423 19.7377 9.235 19.6883 9.11068 19.6883H5.54789C5.42357 19.6883 5.30434 19.7377 5.21643 19.8256C5.12852 19.9135 5.07914 20.0328 5.07914 20.1571C5.07914 20.2814 5.12852 20.4006 5.21643 20.4885C5.30434 20.5764 5.42357 20.6258 5.54789 20.6258H6.56742C6.76465 20.6247 6.95823 20.6791 7.12606 20.7827C7.2939 20.8863 7.42924 21.0349 7.51664 21.2118H5.54789C5.42357 21.2118 5.30434 21.2611 5.21643 21.3491C5.12852 21.437 5.07914 21.5562 5.07914 21.6805C5.07914 21.8048 5.12852 21.9241 5.21643 22.012C5.30434 22.0999 5.42357 22.1493 5.54789 22.1493H7.51664C7.3432 22.5008 6.98344 22.7938 6.56742 22.7938H5.54789C5.45506 22.7907 5.36349 22.8161 5.28553 22.8665C5.20757 22.917 5.14695 22.9902 5.11184 23.0762C5.07673 23.1622 5.06882 23.2569 5.08916 23.3475C5.1095 23.4381 5.15713 23.5204 5.22562 23.5831L7.77398 25.9879C7.86494 26.072 7.98547 26.1168 8.10931 26.1125C8.23315 26.1082 8.35028 26.0552 8.43519 25.9649C8.52011 25.8747 8.56592 25.7545 8.56267 25.6306C8.55941 25.5068 8.50735 25.3892 8.41781 25.3035L6.71976 23.6857C7.14455 23.6591 7.54908 23.4947 7.87198 23.2175C8.19488 22.9402 8.41852 22.5651 8.50898 22.1493H9.11068C9.235 22.1493 9.35423 22.0999 9.44214 22.012C9.53005 21.9241 9.57943 21.8048 9.57943 21.6805C9.57943 21.5562 9.53005 21.437 9.44214 21.3491C9.35423 21.2611 9.235 21.2118 9.11068 21.2118H8.50863C8.45201 21.0062 8.36806 20.8091 8.25902 20.6258H9.11068C9.235 20.6258 9.35423 20.5764 9.44214 20.4885C9.53005 20.4006 9.57943 20.2814 9.57943 20.1571Z" fill="white"/>
<path d="M22.0713 16.5018L20.0713 16.4995V16.5017L22.0713 16.5018ZM23.7254 14.8477L23.7254 12.8477L23.7232 12.8477L23.7254 14.8477ZM24.4421 16.5018L26.4421 16.5016L26.4421 16.4993L24.4421 16.5018ZM23.7254 15.7852L23.7279 13.7852H23.7254V15.7852ZM6.56742 20.6258V22.6259L6.57871 22.6258L6.56742 20.6258ZM7.51664 21.2118V23.2118H10.7363L9.30955 20.3255L7.51664 21.2118ZM7.51664 22.1493L9.31025 23.0341L10.7334 20.1493H7.51664V22.1493ZM5.54789 22.7938L5.48051 24.7927L5.51419 24.7938H5.54789V22.7938ZM5.22562 23.5831L6.59826 22.1285L6.58745 22.1183L6.5765 22.1083L5.22562 23.5831ZM7.77398 25.9879L6.40135 27.4425L6.40854 27.4492L6.41579 27.456L7.77398 25.9879ZM8.41781 25.3035L9.80045 23.8584L9.79741 23.8555L8.41781 25.3035ZM6.71976 23.6857L6.59495 21.6896L2.02522 21.9753L5.34016 25.1337L6.71976 23.6857ZM8.50898 22.1493V20.1493H6.89723L6.55468 21.7242L8.50898 22.1493ZM8.50863 21.2118L6.58042 21.7428L6.98497 23.2118H8.50863V21.2118ZM8.25902 20.6258V18.6258H4.74193L6.54022 21.6484L8.25902 20.6258ZM20.0713 16.5017C20.0713 17.2244 20.2856 17.9309 20.6871 18.5319L24.013 16.3097C24.051 16.3666 24.0713 16.4334 24.0713 16.5018L20.0713 16.5017ZM20.6871 18.5319C21.0886 19.1328 21.6593 19.6012 22.327 19.8778L23.8578 16.1823C23.921 16.2085 23.975 16.2528 24.013 16.3097L20.6871 18.5319ZM22.327 19.8778C22.9948 20.1544 23.7295 20.2268 24.4383 20.0858L23.658 16.1626C23.7251 16.1493 23.7946 16.1561 23.8578 16.1823L22.327 19.8778ZM24.4383 20.0858C25.1472 19.9448 25.7983 19.5968 26.3094 19.0857L23.4809 16.2573C23.5293 16.2089 23.5909 16.176 23.658 16.1626L24.4383 20.0858ZM26.3094 19.0857C26.8204 18.5746 27.1684 17.9235 27.3094 17.2147L23.3863 16.4344C23.3996 16.3673 23.4326 16.3056 23.4809 16.2573L26.3094 19.0857ZM27.3094 17.2147C27.4504 16.5058 27.3781 15.7711 27.1015 15.1034L23.406 16.6342C23.3798 16.571 23.3729 16.5014 23.3863 16.4344L27.3094 17.2147ZM27.1015 15.1034C26.8249 14.4357 26.3565 13.865 25.7555 13.4634L23.5334 16.7894C23.4765 16.7514 23.4321 16.6974 23.406 16.6342L27.1015 15.1034ZM25.7555 13.4634C25.1546 13.0619 24.4481 12.8476 23.7254 12.8477L23.7255 16.8477C23.6571 16.8477 23.5902 16.8274 23.5334 16.7894L25.7555 13.4634ZM23.7232 12.8477C22.755 12.8488 21.8267 13.2338 21.1421 13.9185L23.9706 16.7469C23.9061 16.8113 23.8188 16.8476 23.7277 16.8477L23.7232 12.8477ZM21.1421 13.9185C20.4575 14.6031 20.0724 15.5313 20.0713 16.4995L24.0713 16.504C24.0712 16.5951 24.035 16.6825 23.9706 16.7469L21.1421 13.9185ZM22.4421 16.5019C22.4421 16.2481 22.5173 15.9999 22.6583 15.7889L25.9844 18.0109C26.2828 17.5642 26.4421 17.0389 26.4421 16.5016L22.4421 16.5019ZM22.6583 15.7889C22.7993 15.5779 22.9997 15.4134 23.2342 15.3162L24.7652 19.0116C25.2616 18.806 25.6859 18.4577 25.9844 18.0109L22.6583 15.7889ZM23.2342 15.3162C23.4687 15.219 23.7268 15.1936 23.9757 15.2431L23.1956 19.1663C23.7226 19.2711 24.2688 19.2173 24.7652 19.0116L23.2342 15.3162ZM23.9757 15.2431C24.2247 15.2926 24.4534 15.4148 24.6328 15.5943L21.8045 18.4229C22.1845 18.8028 22.6686 19.0615 23.1956 19.1663L23.9757 15.2431ZM24.6328 15.5943C24.8123 15.7738 24.9346 16.0025 24.9841 16.2514L21.061 17.0319C21.1658 17.5589 21.4246 18.0429 21.8045 18.4229L24.6328 15.5943ZM24.9841 16.2514C25.0336 16.5003 25.0082 16.7584 24.9111 16.9929L21.2155 15.4622C21.0099 15.9587 20.9561 16.5049 21.061 17.0319L24.9841 16.2514ZM24.9111 16.9929C24.8139 17.2274 24.6495 17.4279 24.4384 17.5689L22.2161 14.243C21.7694 14.5415 21.4212 14.9658 21.2155 15.4622L24.9111 16.9929ZM24.4384 17.5689C24.2274 17.7099 23.9793 17.7852 23.7254 17.7852V13.7852C23.1881 13.7852 22.6629 13.9445 22.2161 14.243L24.4384 17.5689ZM23.723 17.7852C23.3834 17.7847 23.0578 17.6496 22.8177 17.4095L25.6461 14.5811C25.1373 14.0723 24.4474 13.786 23.7279 13.7852L23.723 17.7852ZM22.8177 17.4095C22.5778 17.1697 22.4425 16.8442 22.4421 16.5042L26.4421 16.4993C26.4412 15.7793 26.1546 15.0896 25.6461 14.5811L22.8177 17.4095ZM11.5794 20.1571C11.5794 19.5023 11.3193 18.8744 10.8564 18.4114L8.02792 21.2398C7.74076 20.9527 7.57943 20.5632 7.57943 20.1571H11.5794ZM10.8564 18.4114C10.3934 17.9484 9.76543 17.6883 9.11068 17.6883V21.6883C8.70457 21.6883 8.31509 21.527 8.02792 21.2398L10.8564 18.4114ZM9.11068 17.6883H5.54789V21.6883H9.11068V17.6883ZM5.54789 17.6883C4.89314 17.6883 4.2652 17.9484 3.80222 18.4114L6.63065 21.2398C6.34348 21.527 5.954 21.6883 5.54789 21.6883V17.6883ZM3.80222 18.4114C3.33924 18.8744 3.07914 19.5023 3.07914 20.1571H7.07914C7.07914 20.5632 6.91781 20.9527 6.63065 21.2398L3.80222 18.4114ZM3.07914 20.1571C3.07914 20.8118 3.33924 21.4398 3.80222 21.9027L6.63065 19.0743C6.91781 19.3615 7.07914 19.751 7.07914 20.1571H3.07914ZM3.80222 21.9027C4.2652 22.3657 4.89314 22.6258 5.54789 22.6258V18.6258C5.954 18.6258 6.34348 18.7871 6.63065 19.0743L3.80222 21.9027ZM5.54789 22.6258H6.56742V18.6258H5.54789V22.6258ZM6.57871 22.6258C6.40106 22.6268 6.2267 22.5778 6.07553 22.4845L8.1766 19.0808C7.68976 18.7803 7.12825 18.6226 6.55613 18.6259L6.57871 22.6258ZM6.07553 22.4845C5.92435 22.3912 5.80245 22.2573 5.72372 22.098L9.30955 20.3255C9.05603 19.8126 8.66345 19.3813 8.1766 19.0808L6.07553 22.4845ZM7.51664 19.2118H5.54789V23.2118H7.51664V19.2118ZM5.54789 19.2118C4.89314 19.2118 4.2652 19.4719 3.80222 19.9348L6.63065 22.7633C6.34348 23.0504 5.954 23.2118 5.54789 23.2118V19.2118ZM3.80222 19.9348C3.33924 20.3978 3.07914 21.0258 3.07914 21.6805H7.07914C7.07914 22.0866 6.91781 22.4761 6.63065 22.7633L3.80222 19.9348ZM3.07914 21.6805C3.07914 22.3353 3.33924 22.9632 3.80222 23.4262L6.63065 20.5978C6.91781 20.8849 7.07914 21.2744 7.07914 21.6805H3.07914ZM3.80222 23.4262C4.2652 23.8892 4.89314 24.1493 5.54789 24.1493V20.1493C5.954 20.1493 6.34348 20.3106 6.63065 20.5978L3.80222 23.4262ZM5.54789 24.1493H7.51664V20.1493H5.54789V24.1493ZM5.72303 21.2644C5.77572 21.1576 5.85358 21.0596 5.96845 20.9774C6.08926 20.8908 6.29462 20.7938 6.56742 20.7938V24.7938C7.93889 24.7938 8.89532 23.8752 9.31025 23.0341L5.72303 21.2644ZM6.56742 20.7938H5.54789V24.7938H6.56742V20.7938ZM5.61527 20.7949C5.11389 20.778 4.61937 20.9152 4.19831 21.1879L6.37276 24.5452C6.10762 24.7169 5.79622 24.8033 5.48051 24.7927L5.61527 20.7949ZM4.19831 21.1879C3.77724 21.4606 3.44985 21.8558 3.26022 22.3202L6.96346 23.8322C6.84405 24.1247 6.6379 24.3735 6.37276 24.5452L4.19831 21.1879ZM3.26022 22.3202C3.0706 22.7847 3.02784 23.2961 3.13772 23.7855L7.0406 22.9095C7.10979 23.2177 7.08287 23.5397 6.96346 23.8322L3.26022 22.3202ZM3.13772 23.7855C3.24759 24.275 3.50481 24.7191 3.87475 25.0579L6.5765 22.1083C6.80945 22.3216 6.97142 22.6013 7.0406 22.9095L3.13772 23.7855ZM3.85299 25.0377L6.40135 27.4425L9.14661 24.5332L6.59826 22.1285L3.85299 25.0377ZM6.41579 27.456C6.89397 27.8983 7.52758 28.1339 8.17864 28.1113L8.03998 24.1137C8.44336 24.0997 8.83591 24.2457 9.13217 24.5198L6.41579 27.456ZM8.17864 28.1113C8.8297 28.0887 9.44546 27.8098 9.89184 27.3354L6.97855 24.5945C7.2551 24.3005 7.6366 24.1277 8.03998 24.1137L8.17864 28.1113ZM9.89184 27.3354C10.3382 26.8609 10.5791 26.2293 10.562 25.5781L6.56336 25.6832C6.55275 25.2797 6.70199 24.8884 6.97855 24.5945L9.89184 27.3354ZM10.562 25.5781C10.5449 24.9269 10.2711 24.3088 9.80045 23.8584L7.03517 26.7486C6.74355 26.4696 6.57396 26.0867 6.56336 25.6832L10.562 25.5781ZM9.79741 23.8555L8.09936 22.2377L5.34016 25.1337L7.03821 26.7515L9.79741 23.8555ZM6.84458 25.6818C7.70371 25.6281 8.52188 25.2956 9.17494 24.7348L6.56901 21.7001C6.57628 21.6939 6.58539 21.6902 6.59495 21.6896L6.84458 25.6818ZM9.17494 24.7348C9.82801 24.174 10.2803 23.4155 10.4633 22.5743L6.55468 21.7242C6.55671 21.7148 6.56175 21.7064 6.56901 21.7001L9.17494 24.7348ZM8.50898 24.1493H9.11068V20.1493H8.50898V24.1493ZM9.11068 24.1493C9.76543 24.1493 10.3934 23.8892 10.8564 23.4262L8.02792 20.5978C8.31509 20.3106 8.70457 20.1493 9.11068 20.1493V24.1493ZM10.8564 23.4262C11.3193 22.9632 11.5794 22.3353 11.5794 21.6805H7.57943C7.57943 21.2744 7.74076 20.8849 8.02792 20.5978L10.8564 23.4262ZM11.5794 21.6805C11.5794 21.0258 11.3193 20.3978 10.8564 19.9348L8.02792 22.7633C7.74076 22.4761 7.57943 22.0866 7.57943 21.6805H11.5794ZM10.8564 19.9348C10.3934 19.4719 9.76543 19.2118 9.11068 19.2118V23.2118C8.70457 23.2118 8.31509 23.0504 8.02792 22.7633L10.8564 19.9348ZM9.11068 19.2118H8.50863V23.2118H9.11068V19.2118ZM10.4368 20.6807C10.3327 20.3026 10.1783 19.9402 9.97783 19.6032L6.54022 21.6484C6.55778 21.6779 6.5713 21.7097 6.58042 21.7428L10.4368 20.6807ZM8.25902 22.6258H9.11068V18.6258H8.25902V22.6258ZM9.11068 22.6258C9.76543 22.6258 10.3934 22.3657 10.8564 21.9027L8.02792 19.0743C8.31509 18.7871 8.70457 18.6258 9.11068 18.6258V22.6258ZM10.8564 21.9027C11.3193 21.4398 11.5794 20.8118 11.5794 20.1571H7.57943C7.57943 19.751 7.74076 19.3615 8.02792 19.0743L10.8564 21.9027Z" fill="white" mask="url(#path-3-inside-2_964_6332)"/>
</svg>
