<svg width="15" height="15" viewBox="0 0 15 15" fill="none" xmlns="http://www.w3.org/2000/svg">
<path d="M11.9625 13.5938H3.0375C2.60487 13.5938 2.18995 13.4219 1.88403 13.116C1.57811 12.81 1.40625 12.3951 1.40625 11.9625V3.0375C1.40625 2.60487 1.57811 2.18995 1.88403 1.88403C2.18995 1.57811 2.60487 1.40625 3.0375 1.40625H11.9625C12.3951 1.40625 12.81 1.57811 13.116 1.88403C13.4219 2.18995 13.5938 2.60487 13.5938 3.0375V11.9625C13.5938 12.3951 13.4219 12.81 13.116 13.116C12.81 13.4219 12.3951 13.5938 11.9625 13.5938ZM3.0375 2.34375C2.85351 2.34375 2.67705 2.41684 2.54694 2.54694C2.41684 2.67705 2.34375 2.85351 2.34375 3.0375V11.9625C2.34375 12.1465 2.41684 12.323 2.54694 12.4531C2.67705 12.5832 2.85351 12.6562 3.0375 12.6562H11.9625C12.1465 12.6562 12.323 12.5832 12.4531 12.4531C12.5832 12.323 12.6562 12.1465 12.6562 11.9625V3.0375C12.6562 2.85351 12.5832 2.67705 12.4531 2.54694C12.323 2.41684 12.1465 2.34375 11.9625 2.34375H3.0375Z" fill="black"/>
<path d="M1.87384 11.7563C1.80632 11.756 1.73962 11.7414 1.67819 11.7134C1.61676 11.6854 1.56201 11.6446 1.51759 11.5938C1.47761 11.5466 1.44734 11.4921 1.42852 11.4332C1.4097 11.3744 1.4027 11.3124 1.40793 11.2508C1.41316 11.1892 1.43051 11.1293 1.45898 11.0745C1.48745 11.0196 1.52649 10.971 1.57384 10.9313L4.77384 8.23125C5.01276 8.0296 5.31857 7.9248 5.63096 7.93753C5.94334 7.95026 6.23962 8.07958 6.46134 8.3L7.98009 9.81875C8.0367 9.86717 8.10873 9.89377 8.18322 9.89377C8.2577 9.89377 8.32974 9.86717 8.38634 9.81875L9.86134 8.75C10.0799 8.58174 10.348 8.4905 10.6238 8.4905C10.8997 8.4905 11.1678 8.58174 11.3863 8.75L13.4176 10.3688C13.466 10.4073 13.5064 10.4551 13.5363 10.5092C13.5663 10.5634 13.5853 10.6229 13.5923 10.6845C13.5993 10.746 13.594 10.8083 13.5769 10.8678C13.5598 10.9273 13.5312 10.9828 13.4926 11.0313C13.454 11.0797 13.4063 11.12 13.3521 11.15C13.2979 11.18 13.2384 11.199 13.1769 11.206C13.1154 11.2129 13.0531 11.2077 12.9936 11.1906C12.9341 11.1735 12.8785 11.1448 12.8301 11.1063L10.8051 9.48125C10.7504 9.43919 10.6834 9.41638 10.6145 9.41638C10.5455 9.41638 10.4785 9.43919 10.4238 9.48125L8.94884 10.625C8.70875 10.8053 8.4118 10.8931 8.11227 10.8725C7.81274 10.8518 7.53066 10.724 7.31759 10.5125L5.79884 8.9625C5.74142 8.91068 5.66682 8.88199 5.58947 8.88199C5.51212 8.88199 5.43751 8.91068 5.38009 8.9625L2.17384 11.65C2.09012 11.7208 1.98345 11.7586 1.87384 11.7563ZM9.37384 7.34375C9.03391 7.34375 8.7016 7.24295 8.41896 7.05409C8.13631 6.86523 7.91601 6.5968 7.78592 6.28274C7.65584 5.96868 7.6218 5.62309 7.68812 5.28969C7.75444 4.95628 7.91813 4.65003 8.1585 4.40966C8.39887 4.16929 8.70513 4.00559 9.03853 3.93928C9.37194 3.87296 9.71752 3.90699 10.0316 4.03708C10.3456 4.16717 10.6141 4.38747 10.8029 4.67011C10.9918 4.95276 11.0926 5.28506 11.0926 5.625C11.0926 6.08084 10.9115 6.51801 10.5892 6.84034C10.2669 7.16267 9.82968 7.34375 9.37384 7.34375ZM9.37384 4.84375C9.21933 4.84375 9.06828 4.88957 8.9398 4.97541C8.81133 5.06126 8.71119 5.18327 8.65206 5.32603C8.59293 5.46878 8.57746 5.62587 8.6076 5.77742C8.63775 5.92896 8.71215 6.06817 8.82141 6.17743C8.93067 6.28669 9.06988 6.36109 9.22143 6.39124C9.37297 6.42138 9.53006 6.40591 9.67281 6.34678C9.81557 6.28765 9.93758 6.18752 10.0234 6.05904C10.1093 5.93056 10.1551 5.77952 10.1551 5.625C10.1551 5.4178 10.0728 5.21909 9.92627 5.07257C9.77976 4.92606 9.58104 4.84375 9.37384 4.84375Z" fill="black"/>
</svg>
