<svg width="82" height="82" viewBox="0 0 82 82" fill="none" xmlns="http://www.w3.org/2000/svg">
<circle cx="40.6347" cy="40.6347" r="39.4737" fill="white" stroke="#ED1F28" stroke-width="2.32198"/>
<g clip-path="url(#clip0_6923_7125)">
<path d="M26.2363 36.626C26.9325 36.626 27.6002 36.9026 28.0925 37.3948C28.5848 37.8871 28.8613 38.5548 28.8613 39.251C28.8611 41.7369 29.8227 44.1264 31.5448 45.9193C33.2668 47.7121 35.6157 48.7691 38.0996 48.869L38.4863 48.876H42.6548C42.2128 48.3841 41.9727 47.7434 41.9826 47.0821C41.9925 46.4209 42.2516 45.7877 42.7082 45.3092C43.1648 44.8307 43.7851 44.5422 44.4452 44.5014C45.1053 44.4606 45.7565 44.6704 46.2686 45.089L46.4681 45.2692L50.8431 49.6442C51.2634 50.063 51.5287 50.6122 51.5956 51.2017L51.6113 51.4765V51.5255C51.6072 52.1319 51.3919 52.718 51.0023 53.1828L50.8326 53.3665L46.4681 57.7328C46.0011 58.2038 45.3732 58.4807 44.7104 58.5076C44.0477 58.5345 43.3993 58.3096 42.8957 57.878C42.392 57.4464 42.0704 56.8401 41.9956 56.1811C41.9207 55.522 42.0981 54.8591 42.4921 54.3255L42.6548 54.126H38.4863C34.5412 54.126 30.7577 52.5588 27.9681 49.7692C25.1785 46.9796 23.6113 43.1961 23.6113 39.251C23.6113 38.5548 23.8879 37.8871 24.3802 37.3948C24.8725 36.9026 25.5401 36.626 26.2363 36.626ZM34.0063 24.271C34.4747 23.8074 35.1004 23.537 35.759 23.5134C36.4176 23.4898 37.061 23.7149 37.5613 24.1438C38.0617 24.5727 38.3824 25.1742 38.4597 25.8286C38.5371 26.4831 38.3654 27.1428 37.9788 27.6765L37.8178 27.876H41.9863C45.9314 27.876 49.7149 29.4432 52.5045 32.2328C55.2941 35.0224 56.8613 38.8059 56.8613 42.751C56.8613 43.4472 56.5848 44.1149 56.0925 44.6072C55.6002 45.0994 54.9325 45.376 54.2363 45.376C53.5401 45.376 52.8725 45.0994 52.3802 44.6072C51.8879 44.1149 51.6113 43.4472 51.6113 42.751C51.6115 40.2651 50.6499 37.8756 48.9279 36.0827C47.2059 34.2899 44.857 33.2329 42.3731 33.133L41.9863 33.126H37.8178C38.2599 33.6179 38.5 34.2586 38.4901 34.9199C38.4802 35.5811 38.2211 36.2143 37.7645 36.6928C37.3079 37.1713 36.6875 37.4598 36.0274 37.5006C35.3673 37.5414 34.7161 37.3316 34.2041 36.913L34.0063 36.731L29.6313 32.356C29.1715 31.8965 28.8986 31.2828 28.8653 30.6337C28.832 29.9845 29.0407 29.3461 29.4511 28.842L29.6313 28.6425L34.0063 24.2675V24.271Z" fill="#ED1F28"/>
</g>
<defs>
<clipPath id="clip0_6923_7125">
<rect width="42" height="42" fill="white" transform="translate(19.2363 20)"/>
</clipPath>
</defs>
</svg>
