<svg xmlns="http://www.w3.org/2000/svg" width="114" height="36" viewBox="0 0 114 36" fill="none">
  <g clip-path="url(#clip0_2552_5524)">
    <path d="M14.2602 12.8455V16.6909H23.4682C23.2237 18.8182 22.4904 20.4545 21.3495 21.5182C20.0457 22.8273 17.9271 24.3 14.2602 24.3C8.6376 24.3 4.23731 19.7182 4.23731 14.0727C4.23731 8.42727 8.55611 3.84545 14.2602 3.84545C17.2752 3.84545 19.5568 5.07273 21.1866 6.62727L23.8756 3.92727C21.594 1.71818 18.4975 0 14.2602 0C6.51894 0 0 6.3 0 14.0727C0 21.8455 6.51894 28.1455 14.2602 28.1455C18.416 28.1455 21.594 26.7545 24.0386 24.2182C26.5647 21.6818 27.3796 18.0818 27.3796 15.2182C27.3796 14.3182 27.2981 13.5 27.2166 12.8455H14.2602Z" fill="white"/>
    <path d="M38.7867 9.65625C33.816 9.65625 29.6602 13.5017 29.6602 18.7381C29.6602 23.9744 33.7345 27.8199 38.7867 27.8199C43.8389 27.8199 47.9132 24.0562 47.9132 18.8199C47.9132 13.5017 43.8389 9.65625 38.7867 9.65625ZM38.7867 24.3017C36.0161 24.3017 33.653 22.0108 33.653 18.8199C33.653 15.5472 36.0161 13.3381 38.7867 13.3381C41.5572 13.3381 43.9203 15.5472 43.9203 18.8199C43.9203 22.0108 41.5572 24.3017 38.7867 24.3017Z" fill="white"/>
    <path d="M83.3613 11.7017H83.1984C82.302 10.6381 80.5908 9.65625 78.3906 9.65625C73.8274 9.65625 69.916 13.5835 69.916 18.7381C69.916 23.8108 73.8274 27.8199 78.3906 27.8199C80.5908 27.8199 82.302 26.8381 83.1984 25.7744H83.3613V27.0835C83.3613 30.5199 81.4871 32.4017 78.5536 32.4017C76.109 32.4017 74.6422 30.6835 73.9904 29.129L70.5679 30.6017C71.5457 32.9744 74.2348 36.0017 78.6351 36.0017C83.2798 36.0017 87.2727 33.2199 87.2727 26.5108V10.1472H83.5243V11.7017H83.3613ZM78.7981 24.3017C76.0275 24.3017 73.9904 21.929 73.9904 18.8199C73.9904 15.629 76.109 13.3381 78.7981 13.3381C81.4871 13.3381 83.6058 15.7108 83.6058 18.9017C83.6873 22.0108 81.5686 24.3017 78.7981 24.3017Z" fill="white"/>
    <path d="M59.0777 9.65625C54.107 9.65625 49.9512 13.5017 49.9512 18.7381C49.9512 23.9744 54.0255 27.8199 59.0777 27.8199C64.1299 27.8199 68.2042 24.0562 68.2042 18.8199C68.2042 13.5017 64.1299 9.65625 59.0777 9.65625ZM59.0777 24.3017C56.3071 24.3017 53.944 22.0108 53.944 18.8199C53.944 15.5472 56.3071 13.3381 59.0777 13.3381C61.8482 13.3381 64.2114 15.5472 64.2114 18.8199C64.2114 22.0108 61.8482 24.3017 59.0777 24.3017Z" fill="white"/>
    <path d="M90.2871 0.40625H94.1985V27.8972H90.2871V0.40625Z" fill="white"/>
    <path d="M106.258 24.3017C104.221 24.3017 102.836 23.4017 101.858 21.5199L114 16.529L113.592 15.4653C112.859 13.4199 110.496 9.65625 105.851 9.65625C101.206 9.65625 97.2949 13.3381 97.2949 18.7381C97.2949 23.8108 101.125 27.8199 106.258 27.8199C110.414 27.8199 112.777 25.2835 113.837 23.8108L110.74 21.7653C109.681 23.3199 108.296 24.3017 106.258 24.3017ZM106.014 13.0926C107.644 13.0926 109.029 13.9108 109.436 15.0562L101.288 18.4926C101.206 14.729 103.977 13.0926 106.014 13.0926Z" fill="white"/>
  </g>
  <defs>
    <clipPath id="clip0_2552_5524">
      <rect width="114" height="36" fill="white"/>
    </clipPath>
  </defs>
</svg>